<?xml version="1.0" encoding="UTF-8"?><svg id="b" xmlns="http://www.w3.org/2000/svg" width="50" height="50.65" viewBox="0 0 50 50.65"><g id="c"><rect width="50" height="50" rx="5" ry="5" style="fill:#fff; stroke-width:0px;"/><path d="M10.54,29.55c-.18.47-.53.72-1.08.72-.85,0-1.4-.42-1.4-1.05,0-.15.02-.33.1-.52l7.17-18.47c.37-1,1-1.5,2.02-1.5s1.65.47,2.02,1.5l6.92,18.47c.05.15.1.32.1.47,0,.62-.62,1.1-1.53,1.1-.57,0-.87-.25-1.05-.72l-2.5-6.95h-8.22l-2.57,6.95ZM20.56,20.48l-1.77-4.95c-.5-1.42-.98-2.85-1.45-4.27h-.1c-.48,1.42-.97,2.87-1.5,4.3l-1.85,4.92h6.67Z" style="fill:gray; stroke-width:0px;"/><path d="M40.98,29.32c0,.65-.47.95-1.22.95s-1.12-.25-1.22-1.08c-.1-.87-.12-1.8-.15-2.97-1.17,3-2.75,4.17-5,4.17-3,0-4.92-2.17-4.92-5.85,0-5.27,2.97-8.2,7.52-8.2,1.2,0,2.37.17,3.35.48.97.3,1.38.72,1.38,1.75v5.8c0,1.62.1,3.2.27,4.82v.12ZM38.31,18.98c-.72-.45-1.55-.65-2.38-.65-2.97,0-4.9,1.85-4.9,5.95,0,3,1.12,4.17,2.67,4.17,1.25,0,2.42-.88,3.37-3.12.88-2.07,1.22-4,1.22-5.52v-.82Z" style="fill:gray; stroke-width:0px;"/><path d="M4.55,34.19h5.28l.19.24c-.09.68-.26,1.25-.51,1.7-.22.4-.53.78-.94,1.12l-.69-.56c.33-.24.6-.54.8-.9.16-.28.26-.56.3-.84h-4.43v-.76ZM4.72,39.92c.73-.29,1.23-.68,1.51-1.16.25-.44.38-1.04.38-1.82v-1.35h.91v1.22c0,1.07-.21,1.91-.63,2.52-.33.48-.85.9-1.55,1.24l-.61-.65Z" style="fill:#000; stroke-width:0px;"/><path d="M12.68,34.05c0,1.63-.02,2.76-.07,3.37-.04.51-.11.94-.23,1.29-.22.67-.59,1.25-1.13,1.73l-.68-.5c.5-.4.84-.91,1.02-1.52.09-.32.15-.8.18-1.44.02-.56.04-1.54.04-2.92h.87ZM14.55,39.18c.71-.5,1.3-1.35,1.76-2.53l.61.72c-.4.82-.83,1.46-1.28,1.93-.39.41-.89.79-1.52,1.16l-.45-.31v-6.15h.87v5.18Z" style="fill:#000; stroke-width:0px;"/><path d="M17.62,34.26h4.63c-.02,1.27-.16,2.3-.43,3.11-.27.8-.68,1.45-1.25,1.96-.52.47-1.25.88-2.17,1.22l-.5-.7c1.21-.41,2.07-1.01,2.59-1.79.48-.74.74-1.75.78-3.03h-3.66v-.76Z" style="fill:#000; stroke-width:0px;"/><path d="M23.21,35.23h4.14l.21.27c-.1.58-.23,1.07-.41,1.47-.15.34-.35.68-.6,1.02l-.7-.47c.21-.22.39-.49.53-.82.12-.26.2-.52.23-.76h-3.41v-.71ZM23.79,40.54l-.58-.65c.66-.28,1.09-.63,1.29-1.06.14-.31.21-.81.21-1.48v-.91h.84v.9c0,.9-.15,1.58-.44,2.06-.25.41-.7.79-1.32,1.14Z" style="fill:#000; stroke-width:0px;"/><path d="M28.24,38.39c.66-1.19,1.23-2.31,1.7-3.37.1-.21.2-.36.31-.43.09-.06.21-.09.36-.09.17,0,.3.04.4.11.09.06.19.18.3.35,1.14,1.71,2.18,3.21,3.11,4.48l-.77.61c-.71-1.03-1.64-2.46-2.81-4.29-.03-.06-.09-.09-.16-.09-.07,0-.12.04-.15.11-.43.94-.93,1.96-1.5,3.05l-.81-.43ZM32.19,34.18l.52-.15c.21.37.4.81.58,1.33l-.54.18c-.15-.5-.34-.96-.57-1.36ZM33.17,33.95l.51-.16c.22.4.41.82.57,1.27l-.53.2c-.17-.51-.35-.94-.55-1.3Z" style="fill:#000; stroke-width:0px;"/><path d="M35.2,35.76l.72-.26c.26.55.48,1.17.66,1.86l-.74.27c-.18-.74-.39-1.37-.63-1.87ZM36.07,40c1.01-.37,1.73-.91,2.16-1.64.38-.65.61-1.64.68-2.98l.89.18c-.09.81-.2,1.46-.34,1.95-.13.48-.31.91-.53,1.28-.28.46-.61.84-1.01,1.13-.34.26-.79.5-1.34.72l-.52-.63ZM36.73,35.43l.75-.23c.21.48.39,1.08.55,1.79l-.75.26c-.16-.77-.34-1.38-.55-1.82Z" style="fill:#000; stroke-width:0px;"/><path d="M42.55,36.11c1.13.3,2.16.72,3.07,1.24l-.45.85c-.74-.51-1.61-.92-2.62-1.23v3.54h-.89v-6.74h.89v2.34Z" style="fill:#000; stroke-width:0px;"/><path d="M16.42,43.12c-.47.08-1.06.15-1.77.21l-.35-.71c1.59-.12,2.96-.37,4.13-.76l.43.71c-.44.14-.96.27-1.55.39v1.38h2.02v.75h-2.02c0,.95-.21,1.7-.61,2.25-.35.48-.91.88-1.66,1.19l-.61-.62c.79-.32,1.33-.7,1.61-1.13.25-.39.38-.95.4-1.68h-2.45v-.75h2.45v-1.22Z" style="fill:#000; stroke-width:0px;"/><path d="M21.38,44.29l-.26-1.22.8-.15.25,1.21,2.46-.47.43.43c-.19.86-.56,1.7-1.11,2.52l-.69-.4c.23-.29.43-.61.61-.96.15-.3.24-.56.28-.78l-1.82.38.75,3.55-.8.17-.75-3.55-1.25.26-.16-.74,1.26-.24Z" style="fill:#000; stroke-width:0px;"/><path d="M25.89,44.66h4.53v.87h-4.53v-.87Z" style="fill:#000; stroke-width:0px;"/><path d="M32.99,44.11c1.13.3,2.16.72,3.07,1.24l-.45.85c-.74-.51-1.61-.92-2.62-1.23v3.54h-.89v-6.74h.89v2.34Z" style="fill:#000; stroke-width:0px;"/><path d="M28.93,4.55l.31.06c.5.48,1.03,1.19,1.59,2.12.56.93.81,1.54.76,1.83-.01.06-.06.14-.15.24-.09.1-.17.14-.23.13-.1-.02-.19-.12-.28-.31-.15-.29-.42-.71-.82-1.27-.4-.56-.76-1-1.07-1.31l-1.26,7.95c-.08.47-.27.82-.56,1.05-.29.23-.71.42-1.26.56-.55.14-1.07.17-1.58.08-.68-.12-1.18-.41-1.49-.85-.31-.45-.42-.92-.34-1.41.11-.62.48-1.11,1.13-1.47.64-.36,1.33-.48,2.05-.35.67.12,1.32.42,1.97.91l1.23-7.95Z" style="fill:#b3b3b3; stroke:#b3b3b3; stroke-miterlimit:10;"/></g></svg>