<?xml version="1.0" encoding="UTF-8"?><svg id="b" xmlns="http://www.w3.org/2000/svg" width="50" height="50" viewBox="0 0 50 50"><g id="c"><rect width="50" height="50" rx="5" ry="5" style="fill:#fff; stroke-width:0px;"/><path id="d" d="M25.92,33.05c-.59.22-1.24.22-1.83,0-.85-.31-1.72-.56-2.61-.74-2.67-.57-5.43-.57-8.11,0-.49.1-.97.23-1.46.37-.5.14-1.03-.16-1.16-.66-.02-.08-.03-.17-.03-.25V9.04c0-.39.25-.73.61-.87,4.31-1.65,9.1-1.51,13.31.39.24.11.51.11.74,0,4.2-1.9,8.99-2.06,13.31-.45.37.14.61.49.61.89v22.76c0,.52-.43.94-.96.94-.09,0-.18-.01-.26-.04-.48-.14-.96-.27-1.46-.37-2.67-.57-5.43-.57-8.11,0-.89.19-1.76.44-2.61.74" style="fill:#fff; stroke-width:0px;"/><path id="e" d="M32.56,8.76c1.68,0,3.36.28,4.95.81v21.12l-.54-.12c-2.91-.62-5.92-.62-8.84,0-.96.21-1.9.48-2.83.82-.2.08-.42.08-.62,0-.93-.34-1.88-.62-2.84-.82-2.91-.62-5.92-.62-8.84,0l-.54.12V9.62c1.62-.55,3.32-.84,5.03-.84,2.2,0,4.38.47,6.38,1.38.7.32,1.5.32,2.2,0,2.03-.92,4.23-1.4,6.46-1.4M32.55,7.01c-2.47,0-4.92.53-7.17,1.55-.24.11-.51.11-.74,0-4.21-1.9-9-2.04-13.31-.39-.36.14-.6.48-.61.87v22.71c0,.51.42.93.93.93,0,0,.01,0,.02,0l.28-.05c.48-.14.96-.27,1.46-.37,2.67-.57,5.43-.57,8.11,0,.89.19,1.76.44,2.61.74.59.22,1.24.22,1.83,0,.85-.31,1.72-.56,2.61-.74,2.67-.57,5.43-.57,8.11,0,.49.1.97.23,1.46.37l.28.05c.51.01.94-.4.95-.91,0,0,0-.01,0-.02V8.99c0-.39-.24-.74-.61-.88-1.98-.74-4.07-1.11-6.18-1.1" style="fill:gray; stroke-width:0px;"/><path d="M17.35,40.07v5.73h-.91v-4.62c-.16.12-.34.22-.53.3s-.4.15-.65.22v-.77c.15-.05.3-.1.44-.16s.28-.12.42-.18.27-.14.41-.23.28-.18.43-.29h.38Z" style="fill:#000; stroke-width:0px;"/><path d="M20.33,45.89c-.58,0-1.04-.24-1.37-.71s-.49-1.17-.49-2.07c0-.99.17-1.74.51-2.25s.83-.76,1.48-.76c1.23,0,1.85.96,1.85,2.87,0,.95-.17,1.67-.52,2.17s-.83.75-1.46.75ZM20.42,40.83c-.68,0-1.02.75-1.02,2.25,0,1.4.33,2.1,1,2.1s.98-.71.98-2.14-.32-2.21-.96-2.21Z" style="fill:#000; stroke-width:0px;"/><path d="M24.77,45.89c-.58,0-1.04-.24-1.37-.71s-.49-1.17-.49-2.07c0-.99.17-1.74.51-2.25s.83-.76,1.48-.76c1.23,0,1.85.96,1.85,2.87,0,.95-.17,1.67-.52,2.17s-.83.75-1.46.75ZM24.86,40.83c-.68,0-1.02.75-1.02,2.25,0,1.4.33,2.1,1,2.1s.98-.71.98-2.14-.32-2.21-.96-2.21Z" style="fill:#000; stroke-width:0px;"/><path d="M29.27,39.61c.44,0,.79.15,1.03.46.22.28.33.65.33,1.12,0,.54-.14.96-.43,1.25-.24.24-.55.36-.93.36-.43,0-.77-.16-1.02-.47-.22-.28-.32-.66-.32-1.13,0-.54.14-.95.42-1.23.23-.23.54-.35.92-.35ZM28.68,46.02l-.33-.25,5.03-6.27.32.27-5.02,6.26ZM29.27,40.16c-.38,0-.57.34-.57,1.03s.19,1.06.57,1.06.58-.35.58-1.06-.19-1.03-.58-1.03ZM32.82,42.75c.43,0,.77.15,1.02.46.22.28.33.65.33,1.12,0,.54-.14.96-.42,1.25-.24.24-.55.36-.92.36-.45,0-.79-.16-1.03-.47-.22-.28-.33-.66-.33-1.14,0-.54.14-.94.42-1.22.24-.23.55-.35.94-.35ZM32.82,43.29c-.39,0-.58.35-.58,1.04s.19,1.06.58,1.06.57-.35.57-1.06-.19-1.04-.57-1.04Z" style="fill:#000; stroke-width:0px;"/><path d="M16.19,23.04v-4.96l-1.46.46v-.94l1.78-.62h.76v6.05h-1.08Z" style="fill:gray; stroke-width:0px;"/><path d="M19.28,20.05c0-2.07.57-3.09,2.05-3.09s2.05,1.05,2.05,3.09-.57,3.09-2.05,3.09-2.05-1.03-2.05-3.09ZM22.3,20.05c0-1.52-.25-2.17-.98-2.17s-.98.66-.98,2.17.24,2.17.98,2.17.98-.66.98-2.17Z" style="fill:gray; stroke-width:0px;"/><path d="M24.14,20.05c0-2.07.57-3.09,2.05-3.09s2.05,1.05,2.05,3.09-.57,3.09-2.05,3.09-2.05-1.03-2.05-3.09ZM27.16,20.05c0-1.52-.25-2.17-.98-2.17s-.98.66-.98,2.17.24,2.17.98,2.17.98-.66.98-2.17Z" style="fill:gray; stroke-width:0px;"/><path d="M29.23,18.63c0-1.04.53-1.65,1.3-1.65s1.29.62,1.29,1.65-.54,1.66-1.29,1.66-1.3-.62-1.3-1.66ZM31.04,18.63c0-.54-.15-.96-.5-.96-.39,0-.5.42-.5.96s.13.97.5.97.5-.42.5-.97ZM30.23,23.04l3.51-6.01h.61l-3.5,6.01h-.62ZM32.71,21.44c0-1.05.53-1.66,1.3-1.66s1.3.62,1.3,1.66-.54,1.66-1.3,1.66-1.3-.62-1.3-1.66ZM34.53,21.44c0-.54-.15-.97-.51-.97-.38,0-.5.42-.5.97s.14.97.5.97.51-.43.51-.97Z" style="fill:gray; stroke-width:0px;"/></g></svg>