<?xml version="1.0" encoding="UTF-8"?><svg id="_レイヤー_2" xmlns="http://www.w3.org/2000/svg" width="50" height="50" viewBox="0 0 50 50"><g id="sideBar"><rect width="50" height="50" rx="5" ry="5" style="fill:#fff; stroke-width:0px;"/><polygon points="36.52 30.79 20.65 25.35 20.65 4.34 36.52 9.79 36.52 30.79" style="fill:#999; stroke:gray; stroke-linecap:round; stroke-linejoin:round; stroke-width:2px;"/><path d="M36.41,9.61c-2.6.34-4.9,1.54-7.05,3.21v20.84c1.9-1.35,4.15-2.47,7.05-3.21V9.61Z" style="fill:#ccc; stroke:gray; stroke-linecap:round; stroke-linejoin:round;"/><path d="M36.41,9.61l-7.05,3.21-15.87-5.61c.04-1.36,3.09-3.08,7.05-3.21l15.87,5.61Z" style="fill:#fff; stroke-width:0px;"/><polygon points="29.47 34 13.59 28.55 13.59 7.55 29.47 12.99 29.47 34" style="fill:gray; stroke:gray; stroke-linecap:round; stroke-linejoin:round; stroke-width:2px;"/><path d="M29.35,12.82l-15.87-5.61c.04-1.36,3.09-3.08,7.05-3.21l15.87,5.61" style="fill:none; stroke:gray; stroke-linecap:round; stroke-linejoin:round; stroke-width:2px;"/><line x1="15.04" y1="7.96" x2="15.04" y2="28.96" style="fill:none; stroke:#999; stroke-linecap:round; stroke-linejoin:round;"/><path d="M14.34,44.75c.29.02.54.03.74.03.17,0,.26-.09.26-.26v-1.33h-1.88v.95l.02,1.18s0,.07-.02.07-.03.01-.07.01h-.69s-.07,0-.07-.02c0,0-.01-.03-.01-.07l.02-1.18v-.95h-1.82c-.1.87-.33,1.61-.7,2.21-.06.11-.11.16-.14.16-.03,0-.08-.04-.17-.13-.16-.16-.35-.3-.57-.41.32-.41.53-.9.66-1.49.11-.54.17-1.25.17-2.14v-1.31l-.02-1.31s0-.08.02-.09c.01,0,.04-.01.08-.01l1.09.02h3.76l1.1-.02s.07,0,.08.02c0,.01.01.04.01.08l-.02,1.31v3.54l.02,1.1c0,.29-.09.5-.27.65-.15.14-.5.21-1.05.21-.13,0-.21,0-.23-.03-.02-.02-.04-.08-.07-.2-.05-.23-.13-.43-.22-.61ZM10.86,42.45h1.77v-1.13h-1.74v.09c0,.38,0,.73-.02,1.04ZM10.89,40.58h1.74v-1.11h-1.74v1.11ZM15.34,39.47h-1.88v1.11h1.88v-1.11ZM13.46,42.45h1.88v-1.13h-1.88v1.13Z" style="fill:#000; stroke-width:0px;"/><path d="M17.13,41.54c.62-.81,1.06-1.67,1.31-2.59.06-.2.09-.39.1-.59.37.1.62.18.75.23.09.03.14.08.14.13,0,.04-.03.1-.09.15-.04.04-.09.15-.14.33-.1.31-.23.64-.38,1v5.38s0,.07,0,.08c-.01,0-.04.01-.07.01h-.64c-.05,0-.08-.03-.08-.09v-1.22s0-1.7,0-1.7c0-.43,0-.77,0-1.01-.13.2-.27.4-.41.6-.05.07-.09.11-.13.11-.05,0-.1-.07-.13-.21-.05-.23-.13-.43-.25-.6ZM19.05,44.91c.7-.5,1.22-1.09,1.57-1.75-.2-.23-.39-.42-.56-.55-.04-.03-.06-.06-.06-.08,0-.02.01-.04.04-.08l.28-.43s.05-.06.07-.06c.02,0,.04.01.07.04.22.18.38.32.48.43.14-.39.24-.81.31-1.28h-.8c-.23.65-.52,1.2-.89,1.66-.06.08-.11.11-.14.11s-.08-.05-.14-.14c-.1-.17-.22-.32-.35-.43.64-.74,1.03-1.67,1.18-2.8-.17,0-.33,0-.46.01-.09,0-.14,0-.14,0-.04,0-.07,0-.07-.02,0,0-.01-.03-.01-.07v-.56s0-.07.02-.07.03-.01.07-.01l.79.02h.9l.79-.02c.05,0,.08.03.08.09v.56c0,.06-.03.09-.08.09l-.79-.02h-.34c-.07.38-.13.68-.18.9h.59c.08,0,.14-.01.18-.04.05-.03.09-.04.11-.04.05,0,.16.07.33.22.15.14.22.25.22.3,0,.05-.02.1-.05.14-.04.04-.07.17-.11.38-.17.97-.46,1.78-.85,2.43-.31.52-.74,1.02-1.3,1.52-.09.07-.14.11-.17.11-.04,0-.1-.06-.18-.18-.11-.15-.24-.28-.4-.39ZM22.26,39.1c.29.01.55.03.77.06.08,0,.11.03.11.08,0,.03,0,.06-.02.11-.02.04-.03.07-.03.09-.02.08-.02.36-.02.86v2.15l.02,1.05s0,.06-.01.07c0,0-.03.01-.07.01h-.61s-.07,0-.07-.02c0,0-.01-.03-.01-.07l.02-1.05v-2.14c0-.5-.02-.9-.05-1.2ZM22.57,44.69c.29.04.53.05.73.05.12,0,.2-.02.24-.07.04-.04.06-.12.06-.24v-4.86c0-.47-.02-.85-.05-1.13.38.01.65.03.82.05.08,0,.12.04.12.09,0,.04-.02.1-.05.17-.03.07-.05.33-.05.81v3.38l.02,1.65c0,.22-.02.39-.06.5-.04.11-.12.21-.22.28-.12.09-.25.14-.38.17-.14.03-.35.04-.64.04-.13,0-.21-.01-.24-.04-.02-.02-.04-.1-.07-.22-.04-.26-.12-.46-.23-.61Z" style="fill:#000; stroke-width:0px;"/><path d="M26.36,40.67h.34v-.95c-.16.04-.39.09-.7.15-.09.02-.15.03-.18.03-.07,0-.12-.07-.17-.22-.06-.18-.14-.33-.24-.47.87-.13,1.61-.32,2.21-.57.13-.05.26-.13.38-.21.16.13.32.29.48.49.05.05.07.1.07.14,0,.06-.05.1-.14.11-.05,0-.15.03-.3.08-.24.1-.45.18-.64.24v1.19h.21l.93-.02c.05,0,.08.03.08.09v.58s0,.07-.01.08c-.01,0-.03.01-.07.01l-.93-.02h-.21v1.13h.09l.82-.02s.07,0,.08.02c0,.01.01.03.01.07l-.02.76v.7l.02,1.34s0,.07-.02.08c0,0-.03.01-.07.01h-.58s-.07,0-.07-.02c0,0-.01-.03-.01-.07v-.33h-1.27v.41s0,.07-.02.07-.04.01-.07.01h-.58s-.07,0-.08-.02c0,0-.01-.03-.01-.07l.02-1.36v-.62l-.02-.9s0-.07.02-.07.03-.01.07-.01l.82.02h.08v-1.13h-.34l-.93.02s-.07,0-.08-.02c0-.01-.01-.04-.01-.08v-.58s0-.07.02-.07.04-.01.07-.01l.93.02ZM26.48,43.21v1.18h1.27v-1.18h-1.27ZM29.83,43.86l-.98.02s-.07,0-.08-.02c-.01,0-.02-.03-.02-.07v-.59s0-.06.02-.07c.01,0,.04-.01.08-.01l.98.02h.32v-.92h-.47l-1.04.02c-.05,0-.08-.03-.08-.09v-.57s0-.08.02-.09c.01,0,.03-.01.07-.01l1.04.02h1.02c.14-.29.28-.64.4-1.04.03-.1.06-.24.09-.41.27.05.51.11.71.18.08.03.12.06.12.11,0,.04-.03.08-.08.14-.04.04-.07.1-.1.18-.11.3-.23.58-.35.85h.09l1.04-.02s.07,0,.07.02c0,.01.01.04.01.08v.57s0,.06-.01.07c0,0-.03.01-.07.01l-1.04-.02h-.62v.92h.48l.99-.02c.06,0,.09.03.09.08v.59s0,.06-.01.07c0,0-.03.01-.07.01l-.99-.02h-.48v.81l.02.91s0,.07-.02.07-.04.01-.07.01h-.66c-.05,0-.08-.03-.08-.09l.02-.91v-.81h-.32ZM29.81,39.95l-.99.02s-.07,0-.07-.02c0,0-.01-.04-.01-.07v-.56s0-.06.02-.07c0,0,.03,0,.07,0h.99s.34,0,.34,0v-.21c0-.31-.02-.54-.05-.7.29,0,.56.03.82.05.08,0,.12.03.12.08s-.02.1-.05.16c-.03.05-.04.19-.04.41v.21h1.46s.07,0,.08,0,.01.03.01.07v.56s0,.07-.02.08c-.01,0-.04.01-.08.01l-.99-.02h-1.6ZM29.72,40.09s.05,0,.07,0c.03,0,.06.02.09.07.16.36.28.68.36.97,0,.03.01.05.01.06,0,.03-.03.05-.09.07l-.49.14s-.07.02-.08.02c-.03,0-.05-.03-.07-.08-.08-.35-.19-.67-.33-.98-.01-.03-.02-.04-.02-.06,0-.02.03-.04.1-.06l.46-.13Z" style="fill:#000; stroke-width:0px;"/><path d="M34.44,43.82l-.98.02c-.05,0-.08-.03-.08-.09v-.61c0-.06.03-.09.08-.09l.75.02v-2.52l-.02-.97c0-.06.03-.09.08-.09l1.11.02h.43v-.23c0-.35-.02-.64-.06-.87.29,0,.55.03.8.06.08,0,.12.03.12.08,0,.04-.02.1-.05.17-.03.08-.04.25-.04.51v.28h.81v-.23c0-.38-.02-.67-.05-.87.29,0,.56.03.81.06.08,0,.12.03.12.08,0,.04-.02.1-.05.17-.03.08-.04.25-.04.51v.28h.49l1.1-.02c.05,0,.08.03.08.09l-.02.97v2.52l.71-.02c.05,0,.08.03.08.09v.61c0,.06-.03.09-.08.09l-.98-.02h-5.14ZM33.46,45.01c.64-.15,1.25-.41,1.83-.78.14-.1.27-.21.38-.34.28.14.49.27.64.38.07.05.11.1.11.15s-.04.09-.13.11c-.09.03-.22.12-.38.24-.52.38-1.08.67-1.7.86-.1.03-.16.04-.18.04-.05,0-.11-.06-.18-.18-.11-.2-.25-.36-.39-.49ZM35.02,41.24h.8v-1.02h-.8v1.02ZM35.02,43.05h.8v-1.13h-.8v1.13ZM36.59,41.24h.81v-1.02h-.81v1.02ZM36.59,43.05h.81v-1.13h-.81v1.13ZM40.47,44.93c-.14.14-.26.32-.39.54-.07.13-.12.2-.17.2-.04,0-.09-.02-.18-.05-.84-.26-1.55-.64-2.14-1.16-.02-.02-.04-.04-.04-.06,0-.02.03-.05.08-.09l.45-.34s.08-.05.09-.05c.01,0,.04.01.07.04.58.45,1.32.77,2.22.97ZM39.04,40.22h-.86v1.02h.86v-1.02ZM38.18,43.05h.86v-1.13h-.86v1.13Z" style="fill:#000; stroke-width:0px;"/></g></svg>