<?xml version="1.0" encoding="UTF-8"?><svg id="b" xmlns="http://www.w3.org/2000/svg" width="50" height="50.53" viewBox="0 0 50 50.53"><g id="c"><rect width="50" height="50" rx="5" ry="5" style="fill:#fff; stroke-width:0px;"/><path d="M11.02,34.14h4.63c-.02,1.27-.16,2.3-.43,3.11-.27.8-.68,1.45-1.25,1.96-.52.47-1.25.88-2.17,1.22l-.5-.7c1.21-.41,2.07-1.01,2.59-1.79.48-.74.74-1.75.78-3.03h-3.66v-.76Z" style="stroke-width:0px;"/><path d="M16.62,35.61h4.74c-.07,1.6-.45,2.78-1.14,3.52-.55.59-1.4,1.02-2.56,1.31l-.41-.67c1.11-.28,1.92-.71,2.42-1.31.44-.53.68-1.23.74-2.1h-3.79v-.75ZM17.12,33.95h3.82v.74h-3.82v-.74Z" style="stroke-width:0px;"/><path d="M22.3,35.64l.72-.26c.26.55.48,1.17.66,1.86l-.74.27c-.18-.74-.39-1.37-.63-1.87ZM23.18,39.88c1.01-.37,1.73-.91,2.16-1.64.38-.65.61-1.64.68-2.98l.89.18c-.09.81-.2,1.46-.34,1.95-.13.48-.31.91-.53,1.28-.28.46-.61.84-1.01,1.13-.34.26-.79.5-1.34.72l-.52-.63ZM23.83,35.31l.75-.23c.21.48.39,1.08.55,1.79l-.75.26c-.16-.77-.34-1.38-.55-1.82Z" style="stroke-width:0px;"/><path d="M27.85,36.36l.38-.66c.9.3,1.57.59,2.01.85l-.42.73c-.46-.3-1.11-.61-1.97-.92ZM32.79,34.91l.8.46c-.15.67-.36,1.3-.65,1.89-.27.54-.57.98-.89,1.31-.85.86-1.98,1.44-3.39,1.74l-.39-.81c1.36-.24,2.4-.73,3.11-1.47.35-.37.65-.84.91-1.41.23-.53.41-1.1.52-1.71ZM28.53,34.66l.43-.66c.79.28,1.43.58,1.94.9l-.45.74c-.48-.36-1.11-.69-1.91-.98Z" style="stroke-width:0px;"/><path d="M37.92,39.32h1.15v.73h-4.69v-.73h2.7l.27-3.2h-2.35v-.73h3.26l-.34,3.94Z" style="stroke-width:0px;"/><path d="M19.53,43h2.36c0,1.85-.06,3.23-.17,4.13-.06.47-.2.78-.42.93-.12.08-.3.14-.53.17s-.57.05-1.04.05l-.28-.87c.24.02.43.03.59.03.24,0,.41-.01.53-.03.09-.01.15-.06.2-.13.04-.08.08-.21.1-.4.09-.71.14-1.75.14-3.13h-1.5c-.07,1.22-.29,2.19-.66,2.89-.33.63-.85,1.19-1.55,1.7l-.59-.59c.72-.5,1.22-1.1,1.51-1.79.23-.55.37-1.29.41-2.21h-1.71v-.74h1.73v-1.34h.89c0,.64,0,1.09,0,1.34Z" style="stroke-width:0px;"/><path d="M22.87,44.54h4.53v.87h-4.53v-.87Z" style="stroke-width:0px;"/><path d="M29.98,43.98c1.13.3,2.16.72,3.07,1.24l-.45.85c-.74-.51-1.61-.92-2.62-1.23v3.54h-.89v-6.74h.89v2.34ZM31.27,41.47l.53-.14c.21.36.41.8.59,1.33l-.54.18c-.15-.5-.34-.96-.57-1.36ZM32.25,41.23l.52-.15c.22.4.41.83.57,1.27l-.54.18c-.16-.51-.35-.94-.55-1.3Z" style="stroke-width:0px;"/><path id="d" d="M43.35,31H6.65c-.91,0-1.65-.69-1.65-1.54V4.54c0-.85.74-1.54,1.65-1.54h36.69c.91,0,1.65.69,1.65,1.54h0v24.92c0,.85-.74,1.54-1.65,1.54" style="fill:gray; stroke:gray; stroke-miterlimit:10;"/><path d="M23.69,12.5v1.46h-4.63v2.28h4.07v1.49h-4.07v3.71h-1.8v-8.94h6.43Z" style="fill:#fff; stroke-width:0px;"/><path d="M24.45,17.11v-.11c0-2.88,1.81-4.59,4.31-4.59,2.17,0,3.79,1.06,3.98,3h-1.92c-.18-.91-1.09-1.44-2.1-1.44-1.43,0-2.36,1.01-2.36,3.03v.1c0,1.91.96,2.91,2.28,2.91,1.17,0,2-.53,2.18-1.45h1.91c-.14,1.88-1.8,3.03-4.1,3.03-2.51,0-4.17-1.62-4.17-4.49Z" style="fill:#fff; stroke-width:0px;"/><path d="M40.25,20.75l-.75-.75,3-3-3-3,.75-.75,3.75,3.75-3.75,3.75Z" style="fill:#fff; stroke:#fff; stroke-miterlimit:10; stroke-width:.5px;"/><path d="M9.75,20.75l.75-.75-3-3,3-3-.75-.75-3.75,3.75,3.75,3.75Z" style="fill:#fff; stroke:#fff; stroke-miterlimit:10; stroke-width:.5px;"/><rect x="13" y="8" width="24" height="18" style="fill:none; stroke:#fff; stroke-miterlimit:10; stroke-width:.5px;"/></g></svg>