<svg xmlns="http://www.w3.org/2000/svg" xmlns:xlink="http://www.w3.org/1999/xlink" width="1000" zoomAndPan="magnify" viewBox="0 0 750 749.999995" height="1000" preserveAspectRatio="xMidYMid meet" version="1.0"><defs><g/><clipPath id="3fa1e67807"><path d="M 27.90625 542.253906 L 722.09375 542.253906 L 722.09375 725.527344 L 27.90625 725.527344 Z M 27.90625 542.253906 " clip-rule="nonzero"/></clipPath><clipPath id="1eb1b50d8d"><path d="M 0.90625 0.253906 L 695.09375 0.253906 L 695.09375 183.527344 L 0.90625 183.527344 Z M 0.90625 0.253906 " clip-rule="nonzero"/></clipPath><clipPath id="b44f23f85a"><rect x="0" width="696" y="0" height="184"/></clipPath></defs><path fill="#ffffff" d="M 75 0 L 675 0 C 676.226562 0 677.453125 0.03125 678.679688 0.0898438 C 679.90625 0.152344 681.128906 0.242188 682.351562 0.359375 C 683.574219 0.480469 684.789062 0.632812 686.003906 0.8125 C 687.21875 0.992188 688.429688 1.203125 689.632812 1.441406 C 690.835938 1.679688 692.03125 1.949219 693.222656 2.246094 C 694.414062 2.546875 695.597656 2.875 696.769531 3.230469 C 697.945312 3.585938 699.109375 3.972656 700.265625 4.382812 C 701.421875 4.796875 702.566406 5.238281 703.699219 5.710938 C 704.835938 6.179688 705.957031 6.675781 707.066406 7.199219 C 708.175781 7.726562 709.273438 8.277344 710.355469 8.855469 C 711.4375 9.433594 712.503906 10.039062 713.558594 10.671875 C 714.609375 11.300781 715.648438 11.957031 716.667969 12.640625 C 717.6875 13.320312 718.691406 14.027344 719.675781 14.757812 C 720.664062 15.492188 721.628906 16.246094 722.578125 17.023438 C 723.527344 17.804688 724.457031 18.605469 725.367188 19.429688 C 726.277344 20.253906 727.164062 21.097656 728.03125 21.96875 C 728.902344 22.835938 729.746094 23.722656 730.570312 24.632812 C 731.394531 25.542969 732.195312 26.472656 732.976562 27.421875 C 733.753906 28.371094 734.507812 29.335938 735.242188 30.324219 C 735.972656 31.308594 736.679688 32.3125 737.359375 33.332031 C 738.042969 34.351562 738.699219 35.390625 739.328125 36.441406 C 739.960938 37.496094 740.566406 38.5625 741.144531 39.644531 C 741.722656 40.726562 742.273438 41.824219 742.800781 42.933594 C 743.324219 44.042969 743.820312 45.164062 744.289062 46.296875 C 744.761719 47.433594 745.203125 48.578125 745.617188 49.734375 C 746.027344 50.890625 746.414062 52.054688 746.769531 53.230469 C 747.125 54.402344 747.453125 55.585938 747.753906 56.777344 C 748.050781 57.96875 748.320312 59.164062 748.558594 60.367188 C 748.796875 61.570312 749.007812 62.78125 749.1875 63.996094 C 749.367188 65.210938 749.519531 66.425781 749.640625 67.648438 C 749.757812 68.871094 749.847656 70.09375 749.910156 71.320312 C 749.96875 72.546875 750 73.773438 750 75 L 750 675 C 750 676.226562 749.96875 677.453125 749.910156 678.679688 C 749.847656 679.90625 749.757812 681.128906 749.640625 682.351562 C 749.519531 683.574219 749.367188 684.789062 749.1875 686.003906 C 749.007812 687.21875 748.796875 688.429688 748.558594 689.632812 C 748.320312 690.835938 748.050781 692.03125 747.753906 693.222656 C 747.453125 694.414062 747.125 695.597656 746.769531 696.769531 C 746.414062 697.945312 746.027344 699.109375 745.617188 700.265625 C 745.203125 701.421875 744.761719 702.566406 744.289062 703.699219 C 743.820312 704.835938 743.324219 705.957031 742.800781 707.066406 C 742.273438 708.175781 741.722656 709.273438 741.144531 710.355469 C 740.566406 711.4375 739.960938 712.503906 739.328125 713.558594 C 738.699219 714.609375 738.042969 715.648438 737.359375 716.667969 C 736.679688 717.6875 735.972656 718.691406 735.242188 719.675781 C 734.507812 720.664062 733.753906 721.628906 732.976562 722.578125 C 732.195312 723.527344 731.394531 724.457031 730.570312 725.367188 C 729.746094 726.277344 728.902344 727.164062 728.03125 728.03125 C 727.164062 728.902344 726.277344 729.746094 725.367188 730.570312 C 724.457031 731.394531 723.527344 732.195312 722.578125 732.976562 C 721.628906 733.753906 720.664062 734.507812 719.675781 735.242188 C 718.691406 735.972656 717.6875 736.679688 716.667969 737.359375 C 715.648438 738.042969 714.609375 738.699219 713.558594 739.328125 C 712.503906 739.960938 711.4375 740.566406 710.355469 741.144531 C 709.273438 741.722656 708.175781 742.273438 707.066406 742.800781 C 705.957031 743.324219 704.835938 743.820312 703.699219 744.289062 C 702.566406 744.761719 701.421875 745.203125 700.265625 745.617188 C 699.109375 746.027344 697.945312 746.414062 696.769531 746.769531 C 695.597656 747.125 694.414062 747.453125 693.222656 747.753906 C 692.03125 748.050781 690.835938 748.320312 689.632812 748.558594 C 688.429688 748.796875 687.21875 749.007812 686.003906 749.1875 C 684.789062 749.367188 683.574219 749.519531 682.351562 749.640625 C 681.128906 749.757812 679.90625 749.847656 678.679688 749.910156 C 677.453125 749.96875 676.226562 750 675 750 L 75 750 C 73.773438 750 72.546875 749.96875 71.320312 749.910156 C 70.09375 749.847656 68.871094 749.757812 67.648438 749.640625 C 66.425781 749.519531 65.210938 749.367188 63.996094 749.1875 C 62.78125 749.007812 61.570312 748.796875 60.367188 748.558594 C 59.164062 748.320312 57.96875 748.050781 56.777344 747.753906 C 55.585938 747.453125 54.402344 747.125 53.230469 746.769531 C 52.054688 746.414062 50.890625 746.027344 49.734375 745.617188 C 48.578125 745.203125 47.433594 744.761719 46.296875 744.289062 C 45.164062 743.820312 44.042969 743.324219 42.933594 742.800781 C 41.824219 742.273438 40.726562 741.722656 39.644531 741.144531 C 38.5625 740.566406 37.496094 739.960938 36.441406 739.328125 C 35.390625 738.699219 34.351562 738.042969 33.332031 737.359375 C 32.3125 736.679688 31.308594 735.972656 30.324219 735.242188 C 29.335938 734.507812 28.371094 733.753906 27.421875 732.976562 C 26.472656 732.195312 25.542969 731.394531 24.632812 730.570312 C 23.722656 729.746094 22.835938 728.902344 21.96875 728.03125 C 21.097656 727.164062 20.253906 726.277344 19.429688 725.367188 C 18.605469 724.457031 17.804688 723.527344 17.023438 722.578125 C 16.246094 721.628906 15.492188 720.664062 14.757812 719.675781 C 14.027344 718.691406 13.320312 717.6875 12.640625 716.667969 C 11.957031 715.648438 11.300781 714.609375 10.671875 713.558594 C 10.039062 712.503906 9.433594 711.4375 8.855469 710.355469 C 8.277344 709.273438 7.726562 708.175781 7.199219 707.066406 C 6.675781 705.957031 6.179688 704.835938 5.710938 703.699219 C 5.238281 702.566406 4.796875 701.421875 4.382812 700.265625 C 3.96875 699.109375 3.585938 697.945312 3.230469 696.769531 C 2.875 695.597656 2.546875 694.414062 2.246094 693.222656 C 1.949219 692.03125 1.679688 690.835938 1.441406 689.632812 C 1.203125 688.429688 0.992188 687.21875 0.8125 686.003906 C 0.632812 684.789062 0.480469 683.574219 0.359375 682.351562 C 0.242188 681.128906 0.152344 679.90625 0.0898438 678.679688 C 0.03125 677.453125 0 676.226562 0 675 L 0 75 C 0 73.773438 0.03125 72.546875 0.0898438 71.320312 C 0.152344 70.09375 0.242188 68.871094 0.359375 67.648438 C 0.480469 66.425781 0.632812 65.210938 0.8125 63.996094 C 0.992188 62.78125 1.203125 61.570312 1.441406 60.367188 C 1.679688 59.164062 1.949219 57.96875 2.246094 56.777344 C 2.546875 55.585938 2.875 54.402344 3.230469 53.230469 C 3.585938 52.054688 3.96875 50.890625 4.382812 49.734375 C 4.796875 48.578125 5.238281 47.433594 5.710938 46.296875 C 6.179688 45.164062 6.675781 44.042969 7.199219 42.933594 C 7.726562 41.824219 8.277344 40.726562 8.855469 39.644531 C 9.433594 38.5625 10.039062 37.496094 10.671875 36.441406 C 11.300781 35.390625 11.957031 34.351562 12.640625 33.332031 C 13.320312 32.3125 14.027344 31.308594 14.757812 30.324219 C 15.492188 29.335938 16.246094 28.371094 17.023438 27.421875 C 17.804688 26.472656 18.605469 25.542969 19.429688 24.632812 C 20.253906 23.722656 21.097656 22.835938 21.96875 21.96875 C 22.835938 21.097656 23.722656 20.253906 24.632812 19.429688 C 25.542969 18.605469 26.472656 17.804688 27.421875 17.023438 C 28.371094 16.246094 29.335938 15.492188 30.324219 14.757812 C 31.308594 14.027344 32.3125 13.320312 33.332031 12.640625 C 34.351562 11.957031 35.390625 11.300781 36.441406 10.671875 C 37.496094 10.039062 38.5625 9.433594 39.644531 8.855469 C 40.726562 8.277344 41.824219 7.726562 42.933594 7.199219 C 44.042969 6.675781 45.164062 6.179688 46.296875 5.710938 C 47.433594 5.238281 48.578125 4.796875 49.734375 4.382812 C 50.890625 3.972656 52.054688 3.585938 53.230469 3.230469 C 54.402344 2.875 55.585938 2.546875 56.777344 2.246094 C 57.96875 1.949219 59.164062 1.679688 60.367188 1.441406 C 61.570312 1.203125 62.78125 0.992188 63.996094 0.8125 C 65.210938 0.632812 66.425781 0.480469 67.648438 0.359375 C 68.871094 0.242188 70.09375 0.152344 71.320312 0.0898438 C 72.546875 0.03125 73.773438 0 75 0 Z M 75 0 " fill-opacity="1" fill-rule="nonzero"/><path fill="#000000" d="M 136.351562 597 L 136.351562 630.898438 L 122.851562 630.898438 L 122.851562 585.601562 L 193.949219 585.601562 C 193.949219 601.050781 193.351562 613.5 192 622.949219 C 190.949219 631.050781 189.300781 638.25 186.898438 644.550781 C 180.449219 662.25 166.800781 674.699219 146.25 681.898438 L 137.25 672 C 148.800781 668.25 157.5 663.300781 163.648438 657.300781 C 167.851562 652.949219 171.300781 647.550781 173.699219 640.949219 C 177.601562 630.898438 179.550781 616.199219 179.550781 597 Z M 136.351562 597 " fill-opacity="1" fill-rule="nonzero"/><path fill="#000000" d="M 209.851562 623.101562 L 277.800781 623.101562 L 277.800781 636.148438 L 209.851562 636.148438 Z M 209.851562 623.101562 " fill-opacity="1" fill-rule="nonzero"/><path fill="#000000" d="M 322.199219 602.101562 C 316.050781 614.851562 308.25 626.101562 298.800781 635.699219 L 288.75 628.199219 C 303 614.101562 312.300781 597.601562 316.648438 578.699219 L 330.449219 580.800781 C 328.648438 586.199219 327.300781 589.5 326.851562 590.851562 L 363.75 590.851562 L 366.898438 595.199219 C 362.699219 621.449219 354.601562 641.550781 342.601562 655.5 C 333.449219 666.300781 320.398438 675.148438 303.601562 682.050781 L 295.800781 672.300781 C 312.898438 665.699219 325.949219 656.398438 335.101562 644.25 C 343.5 633.148438 349.050781 619.050781 351.898438 601.949219 L 322.199219 601.949219 Z M 322.199219 602.101562 " fill-opacity="1" fill-rule="nonzero"/><path fill="#000000" d="M 381.601562 620.398438 L 387.300781 610.5 C 400.800781 615 410.851562 619.351562 417.449219 623.25 L 411.148438 634.199219 C 404.25 629.699219 394.5 625.050781 381.601562 620.398438 Z M 455.550781 598.648438 L 467.550781 605.550781 C 465.300781 615.601562 462.148438 625.050781 457.800781 633.898438 C 453.75 642 449.25 648.601562 444.449219 653.550781 C 431.699219 666.601562 414.75 675.148438 393.601562 679.648438 L 387.75 667.5 C 408.148438 663.898438 423.75 656.550781 434.398438 645.449219 C 439.648438 639.898438 444.148438 632.851562 448.050781 624.300781 C 451.5 616.351562 454.199219 607.949219 455.851562 598.648438 Z M 391.800781 594.898438 L 398.25 585 C 410.101562 589.199219 419.699219 593.699219 427.351562 598.5 L 420.601562 609.601562 C 413.398438 604.199219 403.949219 599.25 391.949219 594.898438 Z M 391.800781 594.898438 " fill-opacity="1" fill-rule="nonzero"/><path fill="#000000" d="M 479.550781 623.101562 L 547.5 623.101562 L 547.5 636.148438 L 479.550781 636.148438 Z M 479.550781 623.101562 " fill-opacity="1" fill-rule="nonzero"/><path fill="#000000" d="M 586.199219 614.699219 C 603.148438 619.199219 618.601562 625.5 632.25 633.300781 L 625.5 646.050781 C 614.398438 638.398438 601.351562 632.25 586.199219 627.601562 L 586.199219 680.699219 L 572.851562 680.699219 L 572.851562 579.601562 L 586.199219 579.601562 Z M 586.199219 614.699219 " fill-opacity="1" fill-rule="nonzero"/><path stroke-linecap="round" transform="matrix(14.999999, 0, 0, 14.999999, 0.00000265, 0.00002)" fill-opacity="1" fill="#ffffff" fill-rule="nonzero" stroke-linejoin="round" d="M 37.500002 22 L 31.740106 33 L 12.5 33 L 12.5 5.999999 L 37.500002 5.999999 Z M 37.500002 22 " stroke="#808080" stroke-width="2" stroke-opacity="1" stroke-miterlimit="4"/><path stroke-linecap="round" transform="matrix(14.999999, 0, 0, 14.999999, 0.00000265, 0.00002)" fill-opacity="1" fill="#ffffff" fill-rule="nonzero" stroke-linejoin="round" d="M 32.170053 32.429948 L 37.12995 22.520052 L 29.570053 26.429948 Z M 32.170053 32.429948 " stroke="#808080" stroke-width="2" stroke-opacity="1" stroke-miterlimit="4"/><path stroke-linecap="round" transform="matrix(14.999999, 0, 0, 14.999999, 0.00000265, 0.00002)" fill="none" stroke-linejoin="round" d="M 17.500001 11.999999 L 32.500001 11.999999 " stroke="#b3b3b3" stroke-width="2" stroke-opacity="1" stroke-miterlimit="4"/><path stroke-linecap="round" transform="matrix(14.999999, 0, 0, 14.999999, 0.00000265, 0.00002)" fill="none" stroke-linejoin="round" d="M 17.500001 16.999999 L 32.500001 16.999999 " stroke="#b3b3b3" stroke-width="2" stroke-opacity="1" stroke-miterlimit="4"/><path stroke-linecap="round" transform="matrix(14.999999, 0, 0, 14.999999, 0.00000265, 0.00002)" fill="none" stroke-linejoin="round" d="M 17.500001 22 L 32.500001 22 " stroke="#b3b3b3" stroke-width="2" stroke-opacity="1" stroke-miterlimit="4"/><path stroke-linecap="round" transform="matrix(14.999999, 0, 0, 14.999999, 0.00000265, 0.00002)" fill="none" stroke-linejoin="round" d="M 17.500001 27 L 27.500001 27 " stroke="#b3b3b3" stroke-width="2" stroke-opacity="1" stroke-miterlimit="4"/><g clip-path="url(#3fa1e67807)"><g transform="matrix(1, 0, 0, 1, 27, 542)"><g clip-path="url(#b44f23f85a)"><g clip-path="url(#1eb1b50d8d)"><path fill="#ffffff" d="M 0.90625 0.253906 L 695.347656 0.253906 L 695.347656 183.527344 L 0.90625 183.527344 Z M 0.90625 0.253906 " fill-opacity="1" fill-rule="nonzero"/></g></g></g></g><g fill="#000000" fill-opacity="1"><g transform="translate(141.003043, 684.142595)"><g><path d="M 58.234375 -18.453125 C 52.253906 -12.910156 45.273438 -7.601562 37.296875 -2.53125 C 29.328125 2.53125 20.796875 6.664062 11.703125 9.875 L 6.765625 -2.734375 C 14.734375 -5.160156 22.460938 -8.644531 29.953125 -13.1875 C 37.453125 -17.738281 44.019531 -22.53125 49.65625 -27.5625 C 44.375 -34.0625 39.566406 -41.726562 35.234375 -50.5625 C 30.898438 -59.40625 27.21875 -68.507812 24.1875 -77.875 L 7.28125 -77.875 L 7.28125 -89.4375 L 53.046875 -89.4375 L 53.046875 -109.984375 L 64.21875 -109.984375 L 64.21875 -89.4375 L 110.5 -89.4375 L 110.5 -77.875 L 93.203125 -77.875 C 90.085938 -68.332031 86.296875 -59.1875 81.828125 -50.4375 C 77.367188 -41.6875 72.453125 -34.191406 67.078125 -27.953125 C 70.984375 -24.484375 75.296875 -21.101562 80.015625 -17.8125 C 84.734375 -14.519531 89.691406 -11.613281 94.890625 -9.09375 C 100.097656 -6.582031 105.257812 -4.632812 110.375 -3.25 L 105.6875 9.75 C 95.976562 6.882812 87.132812 2.898438 79.15625 -2.203125 C 71.1875 -7.316406 64.210938 -12.734375 58.234375 -18.453125 Z M 36.140625 -77.875 C 38.648438 -70.414062 41.769531 -63.003906 45.5 -55.640625 C 49.226562 -48.273438 53.472656 -41.90625 58.234375 -36.53125 C 62.828125 -41.8125 67.050781 -48.070312 70.90625 -55.3125 C 74.769531 -62.550781 77.957031 -70.070312 80.46875 -77.875 Z M 36.140625 -77.875 "/></g></g></g><g fill="#000000" fill-opacity="1"><g transform="translate(257.999547, 684.142595)"><g><path d="M 112.3125 2.984375 L 102.046875 9.484375 C 101.523438 8.015625 100.894531 6.238281 100.15625 4.15625 C 99.425781 2.082031 98.582031 0.132812 97.625 -1.6875 C 95.976562 -1.601562 94.285156 -1.492188 92.546875 -1.359375 C 90.816406 -1.234375 89.085938 -1.082031 87.359375 -0.90625 L 85.9375 -0.78125 C 85.5 -0.695312 85.039062 -0.628906 84.5625 -0.578125 C 84.082031 -0.535156 83.628906 -0.515625 83.203125 -0.515625 L 81.765625 -0.390625 C 81.160156 -0.304688 80.578125 -0.238281 80.015625 -0.1875 C 79.453125 -0.144531 78.867188 -0.0820312 78.265625 0 L 76.953125 0 C 76.609375 0.0820312 76.265625 0.125 75.921875 0.125 C 75.578125 0.125 75.226562 0.171875 74.875 0.265625 L 73.453125 0.390625 C 73.015625 0.390625 72.554688 0.410156 72.078125 0.453125 C 71.609375 0.492188 71.15625 0.5625 70.71875 0.65625 L 69.296875 0.78125 C 63.484375 1.21875 57.910156 1.648438 52.578125 2.078125 C 47.253906 2.515625 42.507812 2.90625 38.34375 3.25 L 36.921875 -8.84375 L 46.28125 -9.234375 C 47.40625 -11.742188 48.53125 -14.625 49.65625 -17.875 C 50.78125 -21.125 51.863281 -24.484375 52.90625 -27.953125 L 53.296875 -29.25 C 54.253906 -32.375 55.164062 -35.453125 56.03125 -38.484375 C 56.894531 -41.515625 57.628906 -44.285156 58.234375 -46.796875 L 36.65625 -46.796875 L 36.65625 -58.234375 L 67.46875 -58.234375 L 67.46875 -79.4375 L 42.375 -79.4375 L 42.375 -90.734375 L 67.46875 -90.734375 L 67.46875 -109.984375 L 78.65625 -109.984375 L 78.65625 -90.734375 L 104.78125 -90.734375 L 104.78125 -79.4375 L 78.65625 -79.4375 L 78.65625 -58.234375 L 110.234375 -58.234375 L 110.234375 -46.796875 L 71.234375 -46.796875 C 70.453125 -44.628906 69.648438 -42.289062 68.828125 -39.78125 C 68.003906 -37.269531 67.117188 -34.710938 66.171875 -32.109375 L 65.78125 -30.8125 C 64.476562 -27.082031 63.15625 -23.441406 61.8125 -19.890625 C 60.46875 -16.335938 59.144531 -13.128906 57.84375 -10.265625 C 60.625 -10.441406 63.484375 -10.640625 66.421875 -10.859375 C 69.367188 -11.078125 72.40625 -11.269531 75.53125 -11.4375 L 76.828125 -11.5625 L 78.125 -11.703125 L 79.4375 -11.703125 C 80.039062 -11.785156 80.601562 -11.847656 81.125 -11.890625 C 81.644531 -11.929688 82.207031 -11.953125 82.8125 -11.953125 L 84.109375 -12.09375 C 85.410156 -12.175781 86.707031 -12.257812 88 -12.34375 C 89.300781 -12.4375 90.601562 -12.523438 91.90625 -12.609375 C 90.34375 -15.378906 88.628906 -18.347656 86.765625 -21.515625 C 84.910156 -24.679688 83.113281 -27.476562 81.375 -29.90625 L 90.875 -35.234375 C 92.945312 -32.546875 95.046875 -29.53125 97.171875 -26.1875 C 99.296875 -22.851562 101.351562 -19.410156 103.34375 -15.859375 C 105.34375 -12.304688 107.117188 -8.90625 108.671875 -5.65625 C 110.234375 -2.40625 111.445312 0.472656 112.3125 2.984375 Z M 40.4375 -96.453125 L 34.0625 -86.84375 C 32.675781 -87.789062 30.898438 -88.976562 28.734375 -90.40625 C 26.566406 -91.84375 24.3125 -93.253906 21.96875 -94.640625 L 20.796875 -95.296875 C 19.234375 -96.242188 17.71875 -97.171875 16.25 -98.078125 C 14.78125 -98.992188 13.394531 -99.796875 12.09375 -100.484375 L 18.203125 -109.328125 C 19.503906 -108.722656 20.890625 -108.007812 22.359375 -107.1875 C 23.828125 -106.363281 25.34375 -105.472656 26.90625 -104.515625 L 28.078125 -103.875 C 30.421875 -102.488281 32.695312 -101.144531 34.90625 -99.84375 C 37.113281 -98.539062 38.957031 -97.410156 40.4375 -96.453125 Z M 34.1875 -63.703125 L 28.203125 -53.4375 C 26.554688 -54.5625 24.429688 -55.878906 21.828125 -57.390625 C 19.234375 -58.910156 16.503906 -60.445312 13.640625 -62 C 10.785156 -63.5625 8.1875 -64.953125 5.84375 -66.171875 L 11.4375 -75.40625 C 12.738281 -74.789062 14.144531 -74.113281 15.65625 -73.375 C 17.175781 -72.644531 18.757812 -71.847656 20.40625 -70.984375 L 21.578125 -70.328125 C 24.003906 -69.117188 26.34375 -67.925781 28.59375 -66.75 C 30.851562 -65.582031 32.71875 -64.566406 34.1875 -63.703125 Z M 38.34375 -34.703125 C 36.957031 -31.503906 35.484375 -28.0625 33.921875 -24.375 C 32.367188 -20.6875 30.722656 -16.9375 28.984375 -13.125 L 28.34375 -11.828125 C 26.695312 -8.359375 25.070312 -4.957031 23.46875 -1.625 C 21.863281 1.707031 20.320312 4.71875 18.84375 7.40625 L 9.484375 -0.390625 C 11.046875 -3.078125 12.820312 -6.347656 14.8125 -10.203125 C 16.8125 -14.054688 18.804688 -18.109375 20.796875 -22.359375 L 21.453125 -23.65625 C 21.453125 -23.75 21.535156 -23.96875 21.703125 -24.3125 L 22.234375 -25.609375 C 22.316406 -25.691406 22.445312 -25.910156 22.625 -26.265625 L 23.140625 -27.5625 C 23.316406 -27.90625 23.488281 -28.226562 23.65625 -28.53125 C 23.832031 -28.832031 23.960938 -29.160156 24.046875 -29.515625 L 24.703125 -30.8125 C 25.648438 -32.800781 26.554688 -34.789062 27.421875 -36.78125 C 28.296875 -38.78125 29.125 -40.691406 29.90625 -42.515625 Z M 38.34375 -34.703125 "/></g></g></g><g fill="#000000" fill-opacity="1"><g transform="translate(374.99605, 684.142595)"><g><path d="M 21.96875 -25.609375 C 21.625 -21.878906 21.082031 -17.847656 20.34375 -13.515625 C 19.601562 -9.179688 18.625 -5 17.40625 -0.96875 C 16.195312 3.050781 14.6875 6.535156 12.875 9.484375 C 12.257812 8.796875 11.109375 7.84375 9.421875 6.625 C 7.734375 5.414062 6.410156 4.550781 5.453125 4.03125 C 7.273438 0.90625 8.726562 -2.691406 9.8125 -6.765625 C 10.894531 -10.835938 11.71875 -15.082031 12.28125 -19.5 C 12.84375 -23.914062 13.234375 -28.222656 13.453125 -32.421875 C 13.671875 -36.628906 13.78125 -40.46875 13.78125 -43.9375 L 13.78125 -65 L 12.734375 -63.703125 C 11.867188 -64.566406 10.632812 -65.78125 9.03125 -67.34375 C 7.425781 -68.90625 6.101562 -69.988281 5.0625 -70.59375 C 8.96875 -75.1875 12.414062 -81.035156 15.40625 -88.140625 C 18.394531 -95.242188 20.710938 -102.523438 22.359375 -109.984375 L 32.375 -107.515625 C 32.019531 -106.128906 31.625 -104.675781 31.1875 -103.15625 C 30.757812 -101.632812 30.332031 -100.140625 29.90625 -98.671875 L 41.734375 -98.671875 L 43.296875 -99.3125 L 49.53125 -95.03125 C 48.664062 -92.34375 47.601562 -89.503906 46.34375 -86.515625 C 45.082031 -83.523438 43.847656 -80.773438 42.640625 -78.265625 L 56.03125 -78.265625 L 56.03125 -69.03125 C 61.144531 -71.71875 64.957031 -75.25 67.46875 -79.625 C 69.976562 -84 71.671875 -88.742188 72.546875 -93.859375 L 58.375 -93.859375 L 58.375 -103.734375 L 108.6875 -103.734375 C 108.6875 -103.734375 108.6875 -103.210938 108.6875 -102.171875 C 108.6875 -101.140625 108.640625 -100.316406 108.546875 -99.703125 C 108.203125 -89.742188 107.679688 -82.269531 106.984375 -77.28125 C 106.296875 -72.300781 105.390625 -69.070312 104.265625 -67.59375 C 103.484375 -66.46875 102.523438 -65.625 101.390625 -65.0625 C 100.265625 -64.5 98.96875 -64.128906 97.5 -63.953125 C 96.375 -63.867188 94.640625 -63.828125 92.296875 -63.828125 C 89.960938 -63.828125 87.40625 -63.867188 84.625 -63.953125 L 84.625 -73.578125 C 85.84375 -73.492188 87.316406 -73.425781 89.046875 -73.375 C 90.785156 -73.332031 92.039062 -73.3125 92.8125 -73.3125 C 94.113281 -73.226562 95.070312 -73.578125 95.6875 -74.359375 C 96.289062 -75.140625 96.828125 -77.023438 97.296875 -80.015625 C 97.773438 -83.003906 98.144531 -87.617188 98.40625 -93.859375 L 82.6875 -93.859375 C 81.550781 -86.753906 79.335938 -80.253906 76.046875 -74.359375 C 72.753906 -68.460938 67.726562 -63.828125 60.96875 -60.453125 C 60.53125 -61.492188 59.832031 -62.75 58.875 -64.21875 C 57.925781 -65.695312 56.976562 -66.910156 56.03125 -67.859375 L 56.03125 -3.515625 C 56.03125 -1.085938 55.769531 1.078125 55.25 2.984375 C 54.726562 4.890625 53.734375 6.28125 52.265625 7.15625 C 50.703125 7.925781 48.578125 8.421875 45.890625 8.640625 C 43.203125 8.859375 39.734375 8.96875 35.484375 8.96875 L 34.703125 -1.046875 C 36.441406 -0.953125 38.285156 -0.90625 40.234375 -0.90625 C 42.179688 -0.90625 43.632812 -0.90625 44.59375 -0.90625 L 45.234375 -0.90625 C 46.453125 -1 47.0625 -1.910156 47.0625 -3.640625 L 47.0625 -25.609375 Z M 21.96875 -78.265625 L 33.28125 -78.265625 C 33.96875 -79.816406 34.660156 -81.609375 35.359375 -83.640625 C 36.054688 -85.679688 36.707031 -87.65625 37.3125 -89.5625 L 26.390625 -89.5625 C 25.691406 -87.65625 24.972656 -85.726562 24.234375 -83.78125 C 23.503906 -81.832031 22.75 -79.992188 21.96875 -78.265625 Z M 22.75 -57.0625 L 31.0625 -57.0625 L 31.0625 -69.296875 L 22.75 -69.296875 Z M 38.875 -57.0625 L 47.0625 -57.0625 L 47.0625 -69.296875 L 38.875 -69.296875 Z M 90.734375 -15.203125 L 90.734375 8.578125 L 80.46875 8.578125 L 80.46875 -15.203125 L 57.984375 -15.203125 L 57.984375 -25.609375 L 80.46875 -25.609375 L 80.46875 -40.046875 L 69.421875 -40.046875 C 68.640625 -37.960938 67.816406 -35.878906 66.953125 -33.796875 C 66.085938 -31.722656 65.175781 -29.945312 64.21875 -28.46875 L 56.15625 -33.28125 C 58.238281 -36.65625 60.1875 -41.007812 62 -46.34375 C 63.820312 -51.675781 65.171875 -56.851562 66.046875 -61.875 L 75.015625 -59.796875 C 74.660156 -58.328125 74.3125 -56.769531 73.96875 -55.125 C 73.625 -53.476562 73.234375 -51.914062 72.796875 -50.4375 L 80.46875 -50.4375 L 80.46875 -62.796875 L 90.734375 -62.796875 L 90.734375 -50.4375 L 109.453125 -50.4375 L 109.453125 -40.046875 L 90.734375 -40.046875 L 90.734375 -25.609375 L 111.671875 -25.609375 L 111.671875 -15.203125 Z M 22.359375 -34.84375 L 31.0625 -34.84375 L 31.0625 -48.09375 L 22.75 -48.09375 L 22.75 -43.15625 C 22.75 -41.851562 22.726562 -40.46875 22.6875 -39 C 22.644531 -37.53125 22.535156 -36.144531 22.359375 -34.84375 Z M 38.875 -34.84375 L 47.0625 -34.84375 L 47.0625 -48.09375 L 38.875 -48.09375 Z M 38.875 -34.84375 "/></g></g></g><g fill="#000000" fill-opacity="1"><g transform="translate(491.992543, 684.142595)"><g><path d="M 74.234375 -43.9375 C 73.710938 -36.914062 72.691406 -29.9375 71.171875 -23 C 69.660156 -16.070312 67.300781 -9.722656 64.09375 -3.953125 C 60.882812 1.804688 56.421875 6.460938 50.703125 10.015625 C 50.359375 9.140625 49.859375 8.050781 49.203125 6.75 C 48.554688 5.457031 47.84375 4.222656 47.0625 3.046875 C 46.28125 1.878906 45.5 1.125 44.71875 0.78125 L 44.71875 3.375 L 20.546875 3.375 L 20.546875 9.09375 L 11.046875 9.09375 L 11.046875 -35.484375 L 44.71875 -35.484375 L 44.71875 -0.125 C 49.488281 -2.988281 53.171875 -6.78125 55.765625 -11.5 C 58.367188 -16.226562 60.210938 -21.40625 61.296875 -27.03125 C 62.378906 -32.664062 63.09375 -38.300781 63.4375 -43.9375 L 51.875 -43.9375 L 51.875 -87.234375 L 61.875 -87.234375 C 61.1875 -90.003906 60.0625 -93.144531 58.5 -96.65625 C 56.9375 -100.164062 55.421875 -103.265625 53.953125 -105.953125 L 63.703125 -109.453125 C 65.429688 -106.515625 67.160156 -103.113281 68.890625 -99.25 C 70.628906 -95.394531 71.847656 -92.125 72.546875 -89.4375 L 66.5625 -87.234375 L 93.203125 -87.234375 L 86.453125 -89.3125 C 87.316406 -91.132812 88.242188 -93.28125 89.234375 -95.75 C 90.234375 -98.21875 91.164062 -100.726562 92.03125 -103.28125 C 92.90625 -105.84375 93.554688 -108.117188 93.984375 -110.109375 L 105.296875 -106.734375 C 104.171875 -104.046875 102.957031 -101.289062 101.65625 -98.46875 C 100.351562 -95.65625 99.097656 -93.078125 97.890625 -90.734375 L 97.375 -89.703125 C 97.195312 -89.265625 97 -88.847656 96.78125 -88.453125 C 96.5625 -88.066406 96.367188 -87.660156 96.203125 -87.234375 L 107.515625 -87.234375 L 107.515625 -43.9375 L 92.6875 -43.9375 L 92.6875 -7.015625 C 92.6875 -5.367188 92.859375 -4.175781 93.203125 -3.4375 C 93.554688 -2.707031 94.640625 -2.34375 96.453125 -2.34375 L 98.9375 -2.34375 C 100.84375 -2.34375 102.03125 -3.660156 102.5 -6.296875 C 102.976562 -8.941406 103.257812 -13.773438 103.34375 -20.796875 L 112.96875 -19.375 C 112.707031 -12.257812 112.097656 -6.707031 111.140625 -2.71875 C 110.191406 1.257812 108.785156 4.070312 106.921875 5.71875 C 105.054688 7.363281 102.519531 8.1875 99.3125 8.1875 L 95.546875 8.1875 C 90.171875 8.1875 86.617188 6.972656 84.890625 4.546875 C 83.160156 2.117188 82.296875 -1.691406 82.296875 -6.890625 L 82.296875 -43.9375 Z M 43.9375 -105.8125 L 43.9375 -96.453125 L 11.953125 -96.453125 L 11.953125 -105.8125 Z M 47.96875 -88.921875 L 47.96875 -79.4375 L 5.984375 -79.4375 L 5.984375 -88.921875 Z M 62.40625 -54.203125 L 96.328125 -54.203125 L 96.328125 -76.703125 L 62.40625 -76.703125 Z M 43.9375 -71.234375 L 43.9375 -62.015625 L 11.3125 -62.015625 L 11.3125 -71.234375 Z M 43.9375 -53.6875 L 43.9375 -44.328125 L 11.3125 -44.328125 L 11.3125 -53.6875 Z M 20.546875 -6.234375 L 35.234375 -6.234375 L 35.234375 -25.875 L 20.546875 -25.875 Z M 20.546875 -6.234375 "/></g></g></g></svg>