<?xml version="1.0" encoding="UTF-8"?><svg id="b" xmlns="http://www.w3.org/2000/svg" width="50" height="50" viewBox="0 0 50 50"><g id="c"><rect width="50" height="50" rx="5" ry="5" style="fill:#fff; stroke-width:0px;"/><path id="d" d="M22.37,6.74c5.9,0,10.67,4.78,10.67,10.67s-4.78,10.67-10.67,10.67-10.67-4.78-10.67-10.67c0-5.9,4.78-10.67,10.67-10.67h0M22.37,5c-6.86,0-12.42,5.56-12.42,12.42s5.56,12.42,12.42,12.42,12.42-5.56,12.42-12.42h0c0-6.86-5.56-12.42-12.42-12.42" style="fill:gray; stroke-width:0px;"/><path id="e" d="M37.72,31.48l-1.26,1.26c-.34.34-.89.34-1.23,0l-5.65-5.64,2.51-2.51,5.63,5.66c.34.34.34.89,0,1.23" style="fill:gray; stroke-width:0px;"/><path d="M12.03,42.37l-1,.02c-.05,0-.08-.03-.08-.09v-.56c0-.06.03-.09.08-.09l1,.02h2.02v-.59h-1.04l-1.09.02s-.08,0-.09-.02c0-.01-.01-.03-.01-.07v-.54s0-.07.02-.07c.01,0,.04-.01.08-.01l1.09.02h1.04v-.54h-1.4l-1.07.02s-.08,0-.09-.02c0-.01-.01-.03-.01-.07v-.55s0-.07.02-.07c.01,0,.04-.01.08-.01l1.07.02h1.4v-.08c0-.31-.02-.56-.06-.76.34,0,.64.03.88.05.08,0,.12.04.12.08,0,.04-.01.1-.04.18-.04.06-.05.21-.05.44v.09h1.54l1.08-.02s.07,0,.08.02c0,0,.01.03.01.07v.55s0,.07-.02.07-.04.01-.07.01l-1.08-.02h-1.54v.54h1.2l1.1-.02s.07,0,.08.02c0,0,.01.03.01.07v.54s0,.07-.02.07-.04.01-.07.01l-1.1-.02h-1.2v.59h2.15l1-.02s.07,0,.07.02c0,0,0,.03,0,.07v.56s0,.07-.01.07-.03.01-.07.01l-1-.02h-1.72c.16.37.36.71.62,1.01.29-.22.52-.42.7-.62.1-.1.18-.21.25-.34.27.16.48.3.63.43.05.04.08.08.08.12,0,.05-.04.09-.11.12-.07.02-.15.07-.26.16-.27.24-.54.45-.8.62.53.45,1.15.76,1.86.94-.17.16-.31.34-.43.56-.06.12-.12.18-.17.18-.02,0-.08-.02-.19-.05-1.5-.64-2.5-1.68-2.98-3.13h-.09c-.18.2-.4.4-.64.6v1.64c.51-.1,1.08-.23,1.69-.39-.03.13-.04.29-.04.47,0,.13-.02.21-.05.23-.02.02-.09.05-.21.08-.84.22-1.72.41-2.66.57-.17.03-.27.05-.3.08-.05.03-.09.05-.12.05-.07,0-.11-.04-.13-.11-.09-.28-.15-.52-.19-.73.33-.02.64-.05.95-.08l.26-.03v-1.21c-.47.28-.95.52-1.46.71-.09.03-.15.05-.18.05-.05,0-.11-.07-.18-.2-.08-.16-.19-.31-.34-.45.51-.13,1.01-.32,1.49-.57.43-.22.8-.46,1.08-.71h-1.36Z" style="stroke-width:0px;"/><path d="M18.84,44.34c.57-.45,1-.96,1.28-1.53.11-.24.18-.45.21-.64.21.05.47.14.77.26.08.04.12.08.12.14,0,.04-.03.09-.1.15-.04.04-.1.14-.18.31-.31.62-.71,1.18-1.2,1.69-.08.09-.15.13-.19.13s-.11-.05-.2-.14c-.2-.18-.37-.3-.51-.38ZM20.12,41.57l-1.01.02s-.07,0-.08-.02c0-.01-.01-.03-.01-.07v-.67s0-.07.02-.07c0,0,.03-.01.07-.01l1.01.02h4.85l1.01-.02s.07,0,.07.02c0,0,.01.03.01.07v.67s0,.07-.02.07-.03.01-.07.01l-1.01-.02h-1.98v1.95l.02,1.11c0,.2-.02.34-.06.45-.04.1-.1.18-.19.26-.17.14-.58.21-1.22.21h-.08c-.08,0-.14-.02-.16-.05-.02-.02-.04-.09-.07-.2-.07-.28-.15-.49-.24-.65.3.03.55.05.77.05.24,0,.36-.1.36-.3v-2.82h-2ZM21.02,39.66l-1.11.02s-.07,0-.07-.02c0-.01-.01-.03-.01-.07v-.67s0-.07.02-.07.03-.01.07-.01l1.11.02h3.07l1.11-.02s.07,0,.08.02c0,0,.01.03.01.07v.67s0,.07-.02.07c0,0-.03.01-.07.01l-1.11-.02h-3.07ZM26.25,44.18c-.15.11-.32.27-.5.47-.09.11-.15.16-.18.16-.04,0-.09-.04-.17-.13-.6-.62-1.09-1.33-1.47-2.14-.01-.02-.02-.04-.02-.06,0-.03.03-.05.1-.09l.5-.21s.07-.03.09-.03c.02,0,.04.02.07.07.39.77.92,1.42,1.58,1.95Z" style="stroke-width:0px;"/><path d="M29.38,39.86c.39-.03.74-.06,1.05-.11l.02.7c-.51.05-.93.09-1.25.11-.35,1.24-.82,2.47-1.42,3.69l-.78-.35c.61-1.11,1.07-2.21,1.38-3.3-.4,0-.69.02-.86.02h-.38s-.02-.7-.02-.7c.12,0,.3,0,.54,0,.19,0,.49,0,.89-.02.08-.36.16-.8.23-1.32l.86.11c-.06.3-.15.69-.26,1.16ZM30.84,43.11c-.04-.4-.07-1.05-.07-1.94h.78c0,.9.03,1.6.08,2.1.56.24,1.07.56,1.53.97l-.45.75c-.39-.43-.75-.73-1.08-.91v.2c0,.38-.15.68-.44.88-.27.18-.63.27-1.08.27-.52,0-.91-.12-1.16-.34-.22-.2-.32-.47-.32-.82,0-.41.18-.72.54-.95.29-.18.65-.27,1.08-.27.23,0,.43.02.6.05ZM30.87,43.84c-.17-.07-.37-.11-.59-.11-.62,0-.94.18-.94.54,0,.33.26.5.79.5s.75-.21.75-.64c0-.01,0-.03,0-.05v-.24ZM30.87,40.25l.37-.65c.8.27,1.46.57,1.98.91l-.41.71c-.53-.4-1.17-.73-1.93-.98Z" style="stroke-width:0px;"/><path d="M36.38,41.04c.1-.05.71-.37,1.84-.95l.44.73c-1.18.46-2.08.92-2.71,1.36-.32.22-.56.47-.72.75-.13.23-.2.45-.2.67,0,.33.13.58.4.73.25.14.64.21,1.16.21.72,0,1.4-.04,2.06-.11v.83c-.65.03-1.29.05-1.91.05-.93,0-1.59-.15-1.98-.44-.36-.27-.54-.7-.54-1.3,0-.77.48-1.46,1.43-2.09-.21-.74-.41-1.68-.6-2.81l.85-.07c.13.94.29,1.75.48,2.43ZM37.33,38.47l.54-.15c.21.36.4.8.58,1.33l-.55.18c-.15-.5-.34-.96-.57-1.36ZM38.32,38.23l.53-.16c.22.4.41.83.57,1.27l-.54.19c-.17-.51-.35-.94-.55-1.3Z" style="stroke-width:0px;"/></g></svg>