<?xml version="1.0" encoding="UTF-8"?><svg id="b" xmlns="http://www.w3.org/2000/svg" width="50" height="50" viewBox="0 0 50 50"><g id="c"><rect width="50" height="50" rx="5" ry="5" style="fill:#fff; stroke-width:0px;"/><g id="d"><path id="e" d="M12.75,20.76c0,6.76,5.48,12.25,12.25,12.25s12.25-5.48,12.25-12.25-5.48-12.25-12.25-12.25h0c-6.76,0-12.25,5.48-12.25,12.25" style="fill:gray; stroke-width:0px;"/><path id="f" d="M20.18,6.75h9.63c.24,0,.43-.18.44-.41,0,0,0-.01,0-.02v-.9c0-.24-.19-.43-.43-.43,0,0,0,0,0,0h-9.64c-.24,0-.43.19-.43.43h0v.9c0,.24.19.43.43.43h0" style="fill:gray; stroke-width:0px;"/><rect id="g" x="23.25" y="5.03" width="3.5" height="4.36" style="fill:gray; stroke-width:0px;"/><path id="h" d="M32.2,11.79l.65-1.14c.12-.2.06-.46-.14-.59,0,0,0,0-.01,0l-2.28-1.32c-.2-.12-.46-.06-.59.14,0,0,0,0,0,.01l-.65,1.14" style="fill:gray; stroke-width:0px;"/><path id="i" d="M20.83,10.04l-.66-1.14c-.12-.2-.38-.28-.58-.16,0,0,0,0-.01,0l-2.28,1.32c-.2.12-.28.38-.16.58,0,0,0,0,0,.01l.65,1.14" style="fill:gray; stroke-width:0px;"/><path id="j" d="M14.5,20.76c0,5.8,4.7,10.5,10.5,10.5s10.5-4.7,10.5-10.5c0-5.8-4.7-10.5-10.5-10.5s-10.5,4.7-10.5,10.5h0" style="fill:#fff; stroke-width:0px;"/><path id="k" d="M23.6,20.76c0,.77.63,1.4,1.4,1.4s1.4-.63,1.4-1.4-.63-1.4-1.4-1.4-1.4.63-1.4,1.4" style="fill:gray; stroke-width:0px;"/><path id="l" d="M29.64,15.51l-4.94,4.93.62.62,4.94-4.93c.17-.16.17-.43,0-.6,0,0,0,0,0,0h-.02c-.16-.17-.43-.17-.6,0,0,0,0,0,0,0" style="fill:gray; stroke-width:0px;"/></g><path d="M5.52,42.22c.62.72,1.23,1.59,1.84,2.62l-.84.53c-.43-.87-.92-1.67-1.47-2.4-.69.96-1.64,1.76-2.86,2.38l-.51-.69c1.08-.5,1.95-1.22,2.62-2.16.55-.77.93-1.64,1.14-2.61h-3.25v-.76h4.12l.22.3c-.24,1.07-.58,2-1.02,2.79Z" style="fill:#000; stroke-width:0px;"/><path d="M9.87,40.98c1.13.3,2.16.72,3.07,1.24l-.45.85c-.74-.51-1.61-.92-2.62-1.23v3.54h-.89v-6.74h.89v2.34Z" style="fill:#000; stroke-width:0px;"/><path d="M13.78,40.64l.72-.26c.26.55.48,1.17.66,1.86l-.74.27c-.18-.74-.39-1.37-.63-1.87ZM14.65,44.88c1.01-.37,1.73-.91,2.16-1.64.38-.65.61-1.64.68-2.98l.89.18c-.09.81-.2,1.46-.34,1.95-.13.48-.31.91-.53,1.28-.28.46-.61.84-1.01,1.13-.34.26-.79.5-1.34.72l-.52-.63ZM15.3,40.31l.75-.23c.21.48.39,1.08.55,1.79l-.75.26c-.16-.77-.34-1.38-.55-1.82Z" style="fill:#000; stroke-width:0px;"/><path d="M23.35,39.21c-.03-.1-.05-.2-.05-.3,0-.27.1-.5.3-.68.17-.16.38-.23.61-.23.27,0,.5.1.68.3.16.17.23.38.23.61,0,.27-.1.5-.3.68-.17.16-.38.23-.61.23-.08,0-.15,0-.22-.02-.07,1.7-.45,2.98-1.13,3.84-.57.73-1.47,1.32-2.7,1.77l-.5-.7c1.21-.41,2.07-1,2.59-1.77.48-.73.74-1.72.78-2.97h-3.66v-.76h3.97ZM24.21,38.4c-.16,0-.29.06-.39.17-.09.1-.13.21-.13.35,0,.16.06.29.17.39.1.09.21.13.35.13.16,0,.29-.06.39-.17.09-.1.13-.21.13-.35,0-.16-.06-.29-.17-.39-.1-.09-.21-.13-.35-.13Z" style="fill:#000; stroke-width:0px;"/><path d="M28.67,39.69h2.04c0,1.24-.12,2.23-.35,2.98-.23.73-.6,1.32-1.11,1.76-.45.4-1.1.73-1.93,1.01l-.49-.7c.71-.23,1.25-.5,1.64-.8.43-.34.74-.78.94-1.32.2-.56.3-1.29.3-2.2h-3.04v1.86h-.9v-2.6h1.98v-1.16h.92v1.16Z" style="fill:#000; stroke-width:0px;"/><path d="M34.44,42.11l-.3.62c-.47.78-1.15,1.51-2.04,2.18l-.56-.65c.54-.33,1.03-.74,1.46-1.24.39-.44.7-.91.93-1.4h-2.1v-.7h2.47l-.04-1.09h.83l.04,1.09h1.2v.7h-1.18l.14,3.75h-.83l-.08-2.55.05-.71Z" style="fill:#000; stroke-width:0px;"/><path d="M37.3,40.64l.72-.26c.26.55.48,1.17.66,1.86l-.74.27c-.18-.74-.39-1.37-.63-1.87ZM38.17,44.88c1.01-.37,1.73-.91,2.16-1.64.38-.65.61-1.64.68-2.98l.89.18c-.09.81-.2,1.46-.34,1.95-.13.48-.31.91-.53,1.28-.28.46-.61.84-1.01,1.13-.34.26-.79.5-1.34.72l-.52-.63ZM38.83,40.31l.75-.23c.21.48.39,1.08.55,1.79l-.75.26c-.16-.77-.34-1.38-.55-1.82Z" style="fill:#000; stroke-width:0px;"/><path d="M45.28,40c-.47.08-1.06.15-1.77.21l-.35-.71c1.59-.11,2.96-.37,4.13-.76l.43.71c-.44.14-.96.27-1.55.39v1.38h2.02v.75h-2.02c0,.95-.21,1.7-.61,2.25-.35.48-.91.88-1.66,1.19l-.61-.62c.79-.32,1.33-.7,1.61-1.13.25-.39.38-.95.4-1.68h-2.45v-.75h2.45v-1.22Z" style="fill:#000; stroke-width:0px;"/></g></svg>