<?xml version="1.0" encoding="UTF-8"?><svg id="b" xmlns="http://www.w3.org/2000/svg" width="50" height="50" viewBox="0 0 50 50"><g id="c"><rect width="50" height="50" rx="5" ry="5" style="fill:#fff; stroke-width:0px;"/><g id="d"><path id="e" d="M36.5,17.24h-9.49V7.73c0-.57-.46-1.03-1.03-1.03-.01,0-.02,0-.04,0h-2.12c-.57,0-1.03.46-1.03,1.02v9.52h-9.53c-.57,0-1.03.46-1.03,1.02v2.12c0,.57.46,1.02,1.03,1.02h9.53v9.51c0,.57.46,1.02,1.03,1.02h2.12c.57,0,1.03-.46,1.03-1.02v-9.48h9.53c.57,0,1.03-.46,1.03-1.02,0-.01,0-.03,0-.04v-2.12c0-.57-.46-1.02-1.03-1.02" style="fill:gray; stroke-width:0px;"/></g><path d="M17.5,45.55c.2.02.41.03.65.03.09,0,.14-.02.17-.05s.04-.1.04-.19v-1.64l-.39.12c-.1.03-.19.08-.27.13-.05.03-.1.05-.13.05-.05,0-.08-.03-.1-.1-.06-.19-.12-.45-.18-.78.25-.04.49-.09.73-.15l.34-.09v-1.48h-.11l-.79.02s-.07,0-.08-.02c0-.01-.01-.04-.01-.07v-.59s0-.07.02-.08.04-.01.07-.01l.79.02h.11v-.38c0-.48-.02-.86-.06-1.14.31,0,.58.03.82.06.09,0,.13.04.13.09,0,.04-.02.1-.05.17-.03.06-.05.33-.05.81v.39l.67-.02s.07,0,.08.02c0,.01.01.04.01.07v.59s0,.07-.02.08c0,0-.03.01-.07.01,0,0-.04,0-.09,0-.17,0-.37,0-.58-.01v1.21c.31-.11.58-.22.79-.31-.02.19-.03.38-.03.55v.1c0,.08-.02.13-.05.15-.02.02-.08.05-.18.09l-.54.22v2.05c0,.23-.01.39-.05.5-.04.11-.1.2-.2.27-.09.07-.2.12-.33.14-.12.02-.3.03-.55.03-.13,0-.21-.01-.23-.04-.02-.02-.05-.09-.07-.21-.05-.24-.12-.45-.21-.61ZM20.97,40.97v.82c0,1.01-.08,1.9-.25,2.66-.15.7-.38,1.29-.68,1.76-.06.1-.11.14-.14.14-.04,0-.09-.04-.16-.12-.13-.15-.29-.28-.47-.41.33-.43.57-1,.71-1.71.12-.59.18-1.34.18-2.25l-.02-1.57s0-.07.02-.08.03-.01.07-.01l1.08.02h.62v-.21c0-.33-.02-.61-.06-.84.18,0,.46.02.84.06.09,0,.13.04.13.09,0,.04-.02.1-.05.17-.03.05-.04.23-.04.53v.21h.65l1.05-.02c.05,0,.08.03.08.09v.6c0,.06-.03.09-.08.09l-1.05-.02h-2.44ZM23.68,43.37c.35.74.67,1.6.96,2.57,0,.02,0,.04,0,.05,0,.04-.03.07-.1.09l-.53.16s-.08.02-.09.02c-.03,0-.05-.02-.07-.07l-.16-.59c-.65.15-1.47.3-2.46.46-.13.02-.22.05-.27.08-.04.03-.08.04-.12.04-.04,0-.08-.04-.1-.11-.05-.16-.1-.42-.16-.76.15,0,.36-.01.63-.03.28-.93.49-1.87.64-2.82.05-.35.08-.68.08-.98.38.06.66.11.83.15.1.03.14.07.14.12,0,.05-.02.1-.05.14-.05.06-.09.2-.13.39-.22,1.16-.45,2.12-.69,2.89.53-.08,1-.16,1.44-.25-.13-.4-.31-.84-.53-1.31,0-.03-.01-.05-.01-.06,0-.03.03-.06.09-.08l.49-.16s.06-.02.08-.02c.03,0,.06.02.07.07Z" style="fill:#000; stroke-width:0px;"/><path d="M26.6,42.02l-1.02.02s-.07,0-.08-.02c0-.01-.01-.04-.01-.08v-.66s0-.07.02-.07.04-.01.07-.01l1.02.02h1.83c.02-.22.03-.58.04-1.08v-.19c0-.27-.01-.51-.04-.74.42.01.73.03.92.06.1.02.14.06.14.11,0,.05-.02.1-.05.17-.04.07-.07.26-.07.56-.01.5-.03.87-.05,1.11h2.06l1.02-.02s.07,0,.07.02.01.03.01.07v.66s0,.08-.02.09c-.01,0-.03.01-.07.01l-1.02-.02h-1.91c.27.86.7,1.6,1.29,2.22.54.56,1.18.99,1.91,1.27-.18.18-.34.38-.46.6-.07.13-.13.2-.17.2-.02,0-.08-.03-.18-.08-1.34-.72-2.29-1.79-2.85-3.23-.08.26-.18.51-.3.77-.53,1.09-1.38,1.92-2.56,2.5-.1.04-.17.06-.19.06-.04,0-.11-.06-.18-.18-.11-.17-.27-.34-.46-.5,1.22-.47,2.09-1.21,2.59-2.2.2-.4.34-.88.43-1.41h-1.74Z" style="fill:#000; stroke-width:0px;"/></g></svg>