<?xml version="1.0" encoding="UTF-8"?><svg id="b" xmlns="http://www.w3.org/2000/svg" width="50" height="50" viewBox="0 0 50 50"><g id="c"><rect width="50" height="50" rx="5" ry="5" style="fill:#fff; stroke-width:0px;"/><path d="M23.22,39.04h-1.29l-2.07-2.72c-.08-.1-.12-.17-.14-.21h-.02v2.93h-.99v-5.95h.99v2.8h.02c.03-.06.08-.13.14-.2l2-2.59h1.18l-2.34,2.86,2.52,3.1Z" style="fill:#000; stroke-width:0px;"/><path d="M27.4,37.18h-2.9c.01.39.13.7.36.91.23.21.55.32.95.32.45,0,.87-.14,1.25-.41v.78c-.39.24-.9.37-1.54.37s-1.12-.19-1.47-.58c-.36-.39-.53-.93-.53-1.63,0-.66.2-1.2.59-1.62s.88-.62,1.46-.62,1.03.19,1.35.56c.32.37.48.89.48,1.56v.37ZM26.47,36.5c0-.35-.08-.62-.24-.81-.16-.19-.38-.29-.66-.29s-.51.1-.7.3-.31.47-.35.79h1.97Z" style="fill:#000; stroke-width:0px;"/><path d="M32,34.79l-1.92,4.93c-.4.88-.96,1.32-1.68,1.32-.2,0-.37-.02-.51-.05v-.8c.15.05.29.07.42.07.36,0,.63-.18.8-.53l.29-.7-1.69-4.24h1.07l1.01,3.09s.04.14.07.31h.02c.01-.06.04-.16.08-.3l1.06-3.1h.97Z" style="fill:#000; stroke-width:0px;"/><path d="M6.05,46.8v-1.02c.09.08.2.16.33.22s.26.12.4.17c.14.05.28.08.42.11s.27.04.39.04c.42,0,.72-.07.93-.21.2-.14.31-.34.31-.6,0-.14-.03-.26-.1-.37-.07-.1-.16-.2-.28-.28-.12-.09-.27-.17-.43-.25-.17-.08-.34-.16-.53-.25-.2-.11-.39-.22-.56-.33-.17-.11-.33-.23-.46-.37-.13-.13-.23-.29-.3-.45-.07-.17-.11-.37-.11-.59,0-.28.06-.52.19-.73s.29-.38.5-.51.44-.23.7-.3.53-.1.81-.1c.62,0,1.08.07,1.36.21v.98c-.34-.24-.77-.37-1.3-.37-.15,0-.29.01-.44.04s-.28.07-.39.14c-.11.06-.21.15-.28.24-.07.1-.11.22-.11.36,0,.13.03.25.08.34s.14.19.24.27.24.16.39.23.33.16.53.25c.21.11.4.22.59.34.18.12.35.25.49.39.14.14.25.3.33.48.08.18.12.38.12.6,0,.3-.06.56-.18.76-.12.21-.29.38-.49.51-.21.13-.44.22-.71.28-.27.06-.55.09-.85.09-.1,0-.22,0-.37-.02-.14-.02-.29-.04-.45-.07-.15-.03-.3-.06-.43-.11-.14-.04-.25-.09-.33-.14Z" style="fill:#000; stroke-width:0px;"/><path d="M14.44,45.18h-2.9c.01.39.13.7.36.91.23.21.55.32.95.32.45,0,.87-.14,1.25-.41v.78c-.39.24-.9.37-1.54.37s-1.12-.19-1.47-.58c-.36-.39-.53-.93-.53-1.63,0-.66.2-1.2.59-1.62s.88-.62,1.46-.62,1.03.19,1.35.56c.32.37.48.89.48,1.56v.37ZM13.51,44.5c0-.35-.08-.62-.24-.81-.16-.19-.38-.29-.66-.29s-.51.1-.7.3-.31.47-.35.79h1.97Z" style="fill:#000; stroke-width:0px;"/><path d="M19.14,47.04h-.96v-2.39c0-.79-.28-1.19-.84-1.19-.29,0-.54.11-.73.33-.19.22-.29.5-.29.83v2.42h-.97v-4.25h.97v.71h.02c.32-.54.78-.81,1.38-.81.46,0,.81.15,1.06.45.24.3.37.73.37,1.3v2.6Z" style="fill:#000; stroke-width:0px;"/><path d="M22.56,46.99c-.19.09-.44.14-.74.14-.82,0-1.24-.4-1.24-1.19v-2.4h-.71v-.76h.71v-.98l.96-.27v1.26h1.02v.76h-1.02v2.12c0,.25.04.43.14.54.09.11.24.16.46.16.16,0,.3-.05.42-.14v.76Z" style="fill:#000; stroke-width:0px;"/><path d="M26.99,45.18h-2.9c.01.39.13.7.36.91.23.21.55.32.95.32.45,0,.87-.14,1.25-.41v.78c-.39.24-.9.37-1.54.37s-1.12-.19-1.47-.58c-.36-.39-.53-.93-.53-1.63,0-.66.2-1.2.59-1.62s.88-.62,1.46-.62,1.03.19,1.35.56c.32.37.48.89.48,1.56v.37ZM26.06,44.5c0-.35-.08-.62-.24-.81-.16-.19-.38-.29-.66-.29s-.51.1-.7.3-.31.47-.35.79h1.97Z" style="fill:#000; stroke-width:0px;"/><path d="M31.69,47.04h-.96v-2.39c0-.79-.28-1.19-.84-1.19-.29,0-.54.11-.73.33-.19.22-.29.5-.29.83v2.42h-.97v-4.25h.97v.71h.02c.32-.54.78-.81,1.38-.81.46,0,.81.15,1.06.45.24.3.37.73.37,1.3v2.6Z" style="fill:#000; stroke-width:0px;"/><path d="M35.91,46.84c-.34.2-.74.29-1.21.29-.63,0-1.14-.2-1.53-.59-.39-.39-.58-.91-.58-1.53,0-.7.21-1.26.62-1.69.42-.42.97-.64,1.67-.64.39,0,.73.07,1.02.2v.9c-.3-.22-.61-.33-.95-.33-.41,0-.74.14-1,.41s-.39.64-.39,1.08.12.79.37,1.04c.24.25.57.38.99.38.35,0,.67-.12.98-.37v.84Z" style="fill:#000; stroke-width:0px;"/><path d="M40.46,45.18h-2.9c.01.39.13.7.36.91.23.21.55.32.95.32.45,0,.87-.14,1.25-.41v.78c-.39.24-.9.37-1.54.37s-1.12-.19-1.47-.58c-.36-.39-.53-.93-.53-1.63,0-.66.2-1.2.59-1.62s.88-.62,1.46-.62,1.03.19,1.35.56c.32.37.48.89.48,1.56v.37ZM39.53,44.5c0-.35-.08-.62-.24-.81-.16-.19-.38-.29-.66-.29s-.51.1-.7.3-.31.47-.35.79h1.97Z" style="fill:#000; stroke-width:0px;"/><path d="M41.11,46.91v-.89c.36.27.76.41,1.19.41.58,0,.87-.17.87-.51,0-.1-.03-.18-.07-.25-.05-.07-.12-.13-.2-.18-.08-.05-.18-.1-.3-.14-.11-.04-.24-.09-.38-.14-.17-.07-.33-.14-.47-.22s-.26-.17-.35-.26-.16-.21-.21-.33-.07-.27-.07-.44c0-.21.05-.39.15-.54s.23-.29.39-.39.35-.19.56-.24c.21-.05.42-.08.64-.08.39,0,.75.06,1.05.18v.84c-.3-.2-.64-.31-1.03-.31-.12,0-.23.01-.33.04-.1.03-.18.06-.25.1s-.12.1-.16.16c-.04.06-.06.13-.06.21,0,.09.02.17.06.23.04.06.1.12.17.17s.17.09.27.13.23.08.37.13c.18.07.35.15.49.23.15.08.27.17.37.26s.18.21.24.34c.06.13.08.28.08.46,0,.22-.05.4-.15.56-.1.16-.23.29-.4.4-.17.11-.36.18-.57.23-.22.05-.45.08-.69.08-.46,0-.87-.08-1.21-.23Z" style="fill:#000; stroke-width:0px;"/><rect x="5" y="3" width="40" height="28" rx="2" ry="2" style="fill:gray; stroke-width:0px;"/><line x1="5" y1="26" x2="45" y2="26" style="fill:none; stroke:#fff; stroke-miterlimit:10;"/><circle cx="25" cy="14.5" r="7.5" style="fill:#fff; stroke-width:0px;"/><path d="M22.97,18.5c-.48.28-.87.05-.87-.5v-7c0-.55.39-.77.87-.5l6.06,3.5c.48.28.48.73,0,1l-6.06,3.5Z" style="fill:gray; stroke-width:0px;"/></g></svg>