<?xml version="1.0" encoding="UTF-8"?><svg id="b" xmlns="http://www.w3.org/2000/svg" width="50" height="50" viewBox="0 0 50 50"><g id="c"><rect width="50" height="50" rx="5" ry="5" style="fill:#fff; stroke-width:0px;"/><path d="M18.48,39.74c.03-.33.07-.72.12-1.18l.84.05c-.05.39-.1.76-.14,1.12.76-.02,1.46-.05,2.1-.1v.71c-.74.03-1.47.05-2.18.06l-.12,1.12c.82-.01,1.57-.04,2.23-.1v.73c-.64.04-1.41.07-2.3.09-.09.8-.13,1.38-.13,1.73,0,.48.35.72,1.05.72.57,0,.98-.08,1.21-.23.19-.12.29-.31.29-.56,0-.34-.15-.71-.45-1.09l.71-.3c.39.46.59.91.59,1.36,0,1.06-.78,1.59-2.34,1.59-.68,0-1.17-.14-1.48-.43-.25-.24-.38-.59-.38-1.05,0-.29.05-.86.14-1.72-.25,0-.65-.01-1.19-.03v-.72c.29.02.71.03,1.26.03.03-.25.07-.62.11-1.12-.25,0-.69,0-1.32-.02v-.69c.46.02.92.03,1.39.03Z" style="stroke-width:0px;"/><path d="M26.27,38.57l.75.53c-.85.96-1.69,1.83-2.54,2.6-.1.09-.15.18-.15.27,0,.06.08.15.24.28.92.73,1.85,1.6,2.79,2.62l-.72.6c-.91-1.12-1.91-2.11-2.98-2.97-.18-.14-.27-.31-.27-.52,0-.19.07-.35.21-.5.66-.66,1.16-1.17,1.48-1.53.39-.43.78-.89,1.18-1.39Z" style="stroke-width:0px;"/><path d="M28.59,38.67h.89c-.09,3.13-.14,4.78-.14,4.97,0,.36.09.62.26.77.16.14.4.21.73.21,1.05,0,1.7-.71,1.97-2.12l.82.43c-.41,1.66-1.33,2.49-2.75,2.49-.7,0-1.19-.15-1.47-.45-.27-.28-.4-.73-.4-1.35,0-.21.01-.9.04-2.08.03-1.17.05-2.13.06-2.87ZM30.95,39.36l.54-.15c.21.36.4.81.58,1.33l-.55.18c-.15-.5-.34-.96-.57-1.36ZM31.94,39.1l.53-.16c.22.4.41.83.57,1.27l-.54.19c-.17-.51-.35-.94-.55-1.3Z" style="stroke-width:0px;"/><g id="d"><path id="e" d="M26.05,32.83c-.68.23-1.42.23-2.1,0-.97-.33-1.97-.6-2.99-.79-3.06-.61-6.23-.61-9.29,0-.56.11-1.11.24-1.67.4-.58.15-1.17-.17-1.33-.71-.03-.09-.04-.18-.04-.27V7.17c0-.41.28-.78.69-.93,4.94-1.76,10.43-1.61,15.25.41.27.11.58.11.85,0,4.82-2.03,10.3-2.2,15.25-.48.42.15.69.53.69.95v24.33c0,.56-.5,1.01-1.1,1-.1,0-.2-.01-.29-.04-.55-.15-1.1-.29-1.67-.4-3.06-.61-6.23-.61-9.29,0-1.02.2-2.01.46-2.99.79" style="fill:gray; stroke:gray; stroke-linecap:round; stroke-linejoin:round;"/><path id="f" d="M15.35,14.51h0c-.83,0-1.5-.67-1.5-1.5s.67-1.5,1.5-1.5,1.5.67,1.5,1.5h0c0,.83-.67,1.5-1.5,1.5" style="fill:#fff; stroke-width:0px;"/><path id="g" d="M34.22,14.06h-14.31c-.58,0-1.05-.47-1.05-1.05s.47-1.05,1.05-1.05h14.31c.58,0,1.05.47,1.05,1.05s-.47,1.05-1.05,1.05h0" style="fill:#fff; stroke-width:0px;"/><path id="h" d="M15.35,20.61h0c.83,0,1.49-.68,1.49-1.51,0-.83-.68-1.49-1.51-1.49s-1.49.68-1.49,1.51c0,.82.67,1.48,1.49,1.49" style="fill:#fff; stroke-width:0px;"/><path id="i" d="M34.22,20.16h-14.31c-.58,0-1.05-.47-1.05-1.05s.47-1.05,1.05-1.05h14.31c.58,0,1.05.47,1.05,1.05s-.47,1.05-1.05,1.05h0" style="fill:#fff; stroke-width:0px;"/><path id="j" d="M15.35,26.71h0c-.83,0-1.5-.67-1.5-1.5s.67-1.5,1.5-1.5c.83,0,1.5.67,1.5,1.5h0c0,.83-.67,1.5-1.5,1.5" style="fill:#fff; stroke-width:0px;"/><path id="k" d="M34.22,26.26h-14.31c-.58,0-1.05-.47-1.05-1.05s.47-1.05,1.05-1.05h14.31c.58,0,1.05.47,1.05,1.05s-.47,1.05-1.05,1.05h0" style="fill:#fff; stroke-width:0px;"/></g></g></svg>