<?xml version="1.0" encoding="UTF-8"?><svg id="b" xmlns="http://www.w3.org/2000/svg" width="50" height="50.56" viewBox="0 0 50 50.56"><g id="c"><rect width="50" height="50" rx="5" ry="5" style="fill:#fff; stroke-width:0px;"/><path d="M12.25,35.76h-2.6v-.74h3l-.06-1.32h.9l.05,1.32h1.45v.74h-1.42l.18,4.66h-.91l-.11-3.36.05-.66-.27.62c-.61,1.02-1.43,1.93-2.47,2.74l-.61-.67c.64-.44,1.21-.96,1.71-1.55.47-.56.83-1.15,1.11-1.77Z" style="fill:#000; stroke-width:0px;"/><path d="M17.28,33.92v3.95h-.89v-3.95h.89ZM16.82,39.77c.63-.13,1.12-.29,1.45-.49.37-.22.64-.51.8-.89.16-.38.25-.9.25-1.55v-2.96h.89v3.03c0,1.18-.27,2.04-.82,2.59-.44.45-1.16.77-2.14.98l-.42-.7Z" style="fill:#000; stroke-width:0px;"/><path d="M21.59,36.39l.38-.66c.9.3,1.57.59,2.01.85l-.42.73c-.46-.3-1.11-.61-1.97-.92ZM26.53,34.94l.8.46c-.15.67-.36,1.3-.65,1.89-.27.54-.57.98-.89,1.31-.85.86-1.98,1.44-3.39,1.74l-.39-.81c1.36-.24,2.4-.73,3.11-1.47.35-.37.65-.84.91-1.41.23-.53.41-1.1.52-1.71ZM22.27,34.69l.43-.66c.79.28,1.43.58,1.94.9l-.45.74c-.48-.37-1.11-.69-1.91-.98ZM25.71,33.42l.52-.14c.21.36.4.81.58,1.33l-.54.18c-.15-.5-.34-.96-.57-1.36ZM26.67,33.19l.52-.15c.22.4.41.82.57,1.27l-.53.19c-.17-.51-.35-.94-.55-1.3Z" style="fill:#000; stroke-width:0px;"/><path d="M31.64,35.36h1.98v.76h-1.98c-.01.74-.06,1.32-.15,1.73-.07.34-.19.67-.36.98-.2.36-.45.67-.77.93-.3.25-.7.49-1.18.73l-.65-.64c.91-.36,1.52-.83,1.8-1.41.14-.28.24-.6.3-.97.05-.33.08-.78.09-1.34h-2.45v-.76h2.45v-1.66h.91v1.66Z" style="fill:#000; stroke-width:0px;"/><path d="M36.37,33.96c0,1.63-.02,2.76-.07,3.37-.04.51-.11.94-.23,1.29-.22.67-.59,1.25-1.13,1.73l-.68-.5c.5-.4.84-.91,1.02-1.52.09-.32.15-.8.18-1.44.02-.57.04-1.54.04-2.92h.87ZM38.24,39.08c.71-.5,1.3-1.35,1.76-2.53l.61.72c-.4.82-.83,1.46-1.28,1.93-.39.41-.89.79-1.52,1.16l-.45-.31v-6.15h.87v5.18Z" style="fill:#000; stroke-width:0px;"/><path d="M15.48,43.99c.17.35.33.78.48,1.3,0-.02.04-.03.08-.03l1.02.02h1.86l1.03-.02s.07,0,.08.02c0,.01.01.04.01.08v.59s0,.06-.01.07c0,0-.03.01-.08.01l-1.03-.02h-1.17c-.17.55-.35,1.06-.54,1.51.56-.06,1.05-.13,1.49-.2-.07-.12-.2-.32-.39-.61-.02-.03-.02-.05-.02-.06,0-.03.03-.05.09-.08l.41-.21s.07-.03.09-.03c.03,0,.05.02.08.06.43.59.79,1.18,1.06,1.76.01.02.02.04.02.06,0,.04-.03.07-.09.1l-.49.24s-.08.03-.1.03c-.03,0-.05-.02-.07-.06-.08-.19-.16-.37-.24-.54-.87.16-1.77.29-2.72.39-.15.02-.25.05-.31.09-.04.03-.08.04-.12.04-.04,0-.08-.04-.1-.13-.05-.18-.1-.43-.15-.74.27,0,.5,0,.7-.02.25-.6.43-1.13.56-1.59-.25,0-.47,0-.67.01-.13,0-.2,0-.2,0-.04,0-.07,0-.08-.02,0-.01-.01-.03-.01-.07v-.38l-.05.02-.4.12s-.06.02-.07.02c-.03,0-.05-.03-.06-.08-.03-.15-.06-.26-.08-.33l-.52.05v2.18l.02,1.05s0,.07-.02.08-.03.01-.07.01h-.61s-.07,0-.08-.02c0-.01-.01-.04-.01-.07l.02-1.05v-2.12c-.26.02-.46.03-.61.04-.12,0-.22.03-.29.07-.07.03-.11.04-.12.04-.04,0-.07-.05-.09-.14-.04-.22-.08-.45-.11-.67.17.01.32.02.45.02.05,0,.1,0,.15,0,.15-.19.31-.4.47-.63-.32-.42-.67-.79-1.03-1.12-.02-.02-.04-.04-.04-.07s.01-.06.04-.1l.27-.42s.06-.07.08-.07c.02,0,.04.02.07.05l.21.21c.16-.26.31-.53.43-.82.08-.16.14-.33.19-.5.29.11.53.21.7.3.07.04.11.08.11.13,0,.03-.02.06-.07.1-.06.04-.11.11-.15.2-.22.38-.45.75-.71,1.11l.34.38c.17-.26.34-.56.53-.88.09-.15.17-.33.24-.54.27.12.5.24.67.34.06.04.09.08.09.12,0,.05-.03.09-.09.12-.06.04-.15.14-.26.32-.45.7-.86,1.29-1.22,1.75.39-.02.68-.04.86-.05-.05-.16-.12-.32-.19-.48-.01-.03-.02-.05-.02-.06,0-.03.03-.05.1-.08l.34-.14s.06-.02.08-.02c.02,0,.04.02.07.07ZM12.8,47.88c.15-.46.25-.98.3-1.54.01-.11.02-.26.02-.45.25.03.45.06.62.1.08.02.11.05.11.09,0,.03-.02.07-.05.13,0,0-.01.09-.04.25-.05.59-.14,1.1-.27,1.54-.04.12-.08.18-.13.18-.03,0-.09-.03-.18-.09-.13-.09-.26-.17-.39-.21ZM15.44,45.85s.05-.02.07-.02c.03,0,.05.03.07.09.15.49.26.96.32,1.42,0,.02,0,.03,0,.04,0,.04-.04.08-.11.1l-.4.14s-.08.02-.09.02c-.03,0-.04-.02-.04-.07-.07-.57-.17-1.06-.29-1.47,0-.02,0-.04,0-.05,0-.03.04-.05.11-.08l.37-.12ZM18.26,44.56h-.79l-.73.02s-.08,0-.09-.02c0-.01-.01-.03-.01-.07v-.55c-.06.06-.2.19-.41.37-.09.07-.14.11-.17.11-.03,0-.08-.06-.14-.18-.1-.18-.22-.33-.34-.43.71-.5,1.28-1.16,1.7-1.98.08-.16.14-.32.18-.49.37.03.63.06.79.08.07.02.11.05.11.1,0,.05-.02.09-.07.12l-.06.05c.56.88,1.24,1.53,2.04,1.95-.12.12-.23.31-.32.54-.06.13-.1.19-.14.19-.03,0-.09-.03-.17-.1-.74-.54-1.33-1.18-1.79-1.93-.33.56-.7,1.05-1.09,1.46.09,0,.33.02.72.02h.79l.73-.02s.07,0,.08.02c0,0,.01.03.01.07v.59s0,.07-.02.07-.04.01-.07.01l-.73-.02Z" style="fill:#000; stroke-width:0px;"/><path d="M23.53,43.03h2.36c0,1.85-.06,3.23-.17,4.13-.06.47-.2.78-.42.93-.12.08-.3.14-.53.17s-.57.05-1.04.05l-.28-.87c.24.02.43.03.59.03.24,0,.41-.01.53-.03.09-.01.15-.06.2-.13.04-.08.08-.21.1-.4.09-.71.14-1.75.14-3.13h-1.5c-.07,1.22-.29,2.19-.66,2.89-.33.63-.85,1.19-1.55,1.7l-.59-.59c.72-.5,1.22-1.1,1.51-1.79.23-.55.37-1.29.41-2.21h-1.71v-.74h1.73v-1.34h.89c0,.64,0,1.09,0,1.34Z" style="fill:#000; stroke-width:0px;"/><path d="M26.87,44.57h4.53v.87h-4.53v-.87Z" style="fill:#000; stroke-width:0px;"/><path d="M33.98,44.01c1.13.3,2.16.72,3.07,1.24l-.45.85c-.74-.51-1.61-.92-2.62-1.23v3.54h-.89v-6.74h.89v2.34ZM35.27,41.5l.53-.14c.21.36.41.8.59,1.33l-.54.18c-.15-.5-.34-.96-.57-1.36ZM36.25,41.26l.52-.15c.22.4.41.83.57,1.27l-.54.18c-.16-.51-.35-.94-.55-1.3Z" style="fill:#000; stroke-width:0px;"/><path id="d" d="M43.35,31H6.65c-.91,0-1.65-.69-1.65-1.54V4.54c0-.85.74-1.54,1.65-1.54h36.69c.91,0,1.65.69,1.65,1.54h0v24.92c0,.85-.74,1.54-1.65,1.54" style="fill:gray; stroke:gray; stroke-miterlimit:10;"/><rect id="e" x="14.65" y="5.1" width="21.33" height="15.24" style="fill:#fff; stroke-width:0px;"/><path id="f" d="M16.19,15.77h0v3.04h18.29v-3.04l-6.12-4.58-1.39,1.97-4.69-3.51-6.09,6.12Z" style="fill:gray; stroke-width:0px;"/><path id="g" d="M19.23,8.17c0,.86-.7,1.56-1.56,1.56-.86,0-1.56-.7-1.56-1.56,0-.86.7-1.56,1.56-1.56.86,0,1.56.7,1.56,1.56" style="fill:gray; stroke-width:0px;"/><path id="h" d="M16.74,25.16c.15,1.4-.86,2.65-2.26,2.8-.12.01-.25.02-.38.01-1.37.07-2.53-.99-2.6-2.36,0-.14,0-.28.02-.42-.15-1.4.86-2.65,2.26-2.8.12-.01.25-.02.38-.01,1.35-.08,2.51.95,2.59,2.3,0,.15,0,.3-.01.45M12.79,25.19c0,1.1.49,1.71,1.3,1.71s1.36-.67,1.36-1.74-.49-1.71-1.3-1.71-1.36.64-1.36,1.74" style="fill:#fff; stroke-width:0px;"/><path id="i" d="M18.54,25.04c.11-.42.46-.74.9-.78h.15c.19,0,.35.15.35.34,0,.02,0,.04,0,.06,0,.41-.15.58-.41.58h-.2c-.23,0-.43.13-.55.32-.18.33-.28.7-.26,1.07v.81c0,.35-.17.49-.58.49s-.58-.15-.58-.49v-2.67c0-.35.17-.49.58-.49s.58.15.58.49l.03.26Z" style="fill:#fff; stroke-width:0px;"/><path id="j" d="M21.61,23.33c.02.32-.23.59-.55.61-.02,0-.04,0-.06,0-.34,0-.61-.27-.61-.61,0-.34.27-.61.61-.61s.61.27.61.61h0M20.42,24.78c0-.35.17-.46.58-.46s.58.15.58.46v2.7c0,.32-.17.46-.58.46s-.58-.15-.58-.46v-2.7Z" style="fill:#fff; stroke-width:0px;"/><path id="k" d="M24.74,27.25c-.2.46-.66.75-1.16.72-.76.03-1.4-.56-1.43-1.32,0-.07,0-.15,0-.22.02-1.14.92-2.08,2.06-2.14.4,0,.8.04,1.19.15.27.04.45.28.44.55v3.13c.11.94-.56,1.78-1.5,1.89-.15.02-.3.01-.44,0-.54.03-1.07-.15-1.48-.49-.08-.08-.12-.18-.12-.29.02-.28.24-.49.52-.49.12,0,.23.06.32.15.2.18.46.28.72.29.55,0,.84-.29.84-1.04l.03-.87ZM24.74,25.19c-.16-.06-.32-.09-.49-.09-.55,0-.93.41-.93,1.25s.2.81.55.81.52-.26.64-.61c.13-.35.2-.73.2-1.1l.03-.26Z" style="fill:#fff; stroke-width:0px;"/><path id="l" d="M27.75,23.33c.02.32-.23.59-.55.61-.02,0-.04,0-.06,0-.34,0-.61-.27-.61-.61s.27-.61.61-.61.61.27.61.61h0M26.56,24.78c0-.35.17-.46.58-.46s.58.15.58.46v2.7c0,.32-.17.46-.58.46s-.58-.15-.58-.46v-2.7Z" style="fill:#fff; stroke-width:0px;"/><path id="m" d="M29.61,25.04c.18-.46.61-.77,1.1-.78.58-.07,1.12.35,1.19.93,0,.08,0,.15,0,.23v1.25c0,.25,0,.5.03.75v.06c0,.32-.17.46-.61.46s-.55-.12-.58-.44c-.02-.26-.03-.52-.03-.78v-1.13c0-.29-.15-.44-.38-.44-.24.02-.44.18-.52.41-.15.33-.22.68-.2,1.04v.81c0,.35-.17.49-.58.49s-.58-.15-.58-.49v-2.64c0-.35.17-.49.58-.49s.58.15.58.49v.26Z" style="fill:#fff; stroke-width:0px;"/><path id="n" d="M36.16,27.54c0,.26-.17.41-.55.41s-.52-.12-.55-.44c-.02-.12-.03-.25-.03-.38-.17.5-.64.83-1.16.81-.84,0-1.39-.52-1.39-1.54,0-1.14.88-2.08,2.02-2.14.4,0,.8.04,1.19.15.27.03.47.27.44.54,0,0,0,0,0,0v1.62c0,.29.02.58.06.87l-.03.09ZM34.97,25.19c-.14-.08-.3-.12-.46-.12-.52,0-.9.41-.9,1.28s.2.81.52.81.49-.26.61-.61c.13-.35.2-.73.2-1.1l.03-.26Z" style="fill:#fff; stroke-width:0px;"/><path id="o" d="M36.83,22.9c0-.35.17-.46.58-.46s.58.15.58.46v4.55c0,.35-.17.46-.58.46s-.58-.15-.58-.46v-4.55Z" style="fill:#fff; stroke-width:0px;"/></g></svg>