<svg xmlns="http://www.w3.org/2000/svg" xmlns:xlink="http://www.w3.org/1999/xlink" width="100" zoomAndPan="magnify" viewBox="0 0 75 42" height="56" preserveAspectRatio="xMidYMid meet" version="1.2"><defs><clipPath id="b0d09ac3b4"><path d="M 0.871094 0 L 74.125 0 L 74.125 41.023438 L 0.871094 41.023438 Z M 0.871094 0 "/></clipPath></defs><g id="8f534443a7"><g clip-rule="nonzero" clip-path="url(#b0d09ac3b4)"><path style=" stroke:none;fill-rule:nonzero;fill:#808080;fill-opacity:1;" d="M 53.617188 0 L 0.871094 0 L 0.871094 41.023438 L 53.617188 41.023438 C 64.941406 41.023438 74.128906 31.835938 74.128906 20.511719 C 74.128906 9.1875 64.941406 0 53.617188 0 Z M 53.617188 0 "/></g><path style=" stroke:none;fill-rule:nonzero;fill:#ffffff;fill-opacity:1;" d="M 25.777344 14.796875 C 25.777344 14.3125 26.175781 13.917969 26.65625 13.917969 L 37.851562 13.917969 C 38.335938 13.917969 38.730469 13.523438 38.730469 13.039062 L 38.730469 6.738281 C 38.730469 6.257812 39.023438 6.125 39.390625 6.445312 L 54.421875 19.925781 C 54.789062 20.246094 54.789062 20.773438 54.421875 21.097656 L 39.390625 34.578125 C 39.023438 34.898438 38.730469 34.765625 38.730469 34.285156 L 38.730469 27.984375 C 38.730469 27.5 38.335938 27.105469 37.851562 27.105469 L 26.65625 27.105469 C 26.175781 27.105469 25.777344 26.710938 25.777344 26.226562 L 25.777344 14.78125 Z M 25.777344 14.796875 "/></g></svg>