<?xml version="1.0" encoding="UTF-8"?><svg id="b" xmlns="http://www.w3.org/2000/svg" width="50" height="50.53" viewBox="0 0 50 50.53"><g id="c"><rect width="50" height="50" rx="5" ry="5" style="fill:#fff; stroke-width:0px;"/><path d="M12.15,36.49c.97-.47,1.79-1.04,2.44-1.72l.64.68c-.57.47-1.11.84-1.62,1.13-.4.23-.89.46-1.46.69v1.62c0,.28.1.44.29.48.19.04.49.05.91.05h.23c.65,0,1.29-.03,1.89-.09v.84c-.65.04-1.34.06-2.07.06s-1.24-.04-1.54-.12c-.4-.1-.59-.44-.59-1v-5.32h.89v2.7ZM15.29,33.07c.27,0,.5.1.68.3.16.17.24.38.24.61,0,.27-.1.49-.3.68-.17.16-.38.23-.61.23-.27,0-.5-.1-.68-.3-.16-.17-.23-.38-.23-.61,0-.27.1-.5.3-.68.17-.16.38-.23.61-.23ZM15.29,33.46c-.16,0-.29.06-.39.17-.09.1-.13.21-.13.35,0,.16.06.29.17.39.1.09.21.13.35.13.16,0,.29-.06.39-.17.09-.1.13-.22.13-.35,0-.16-.06-.29-.17-.39-.1-.09-.21-.13-.35-.13Z" style="fill:#000; stroke-width:0px;"/><path d="M18.86,35.14c-.41.85-.93,1.6-1.56,2.24l-.67-.5c.95-.94,1.57-2.04,1.86-3.3l.92.14c-.12.36-.21.58-.24.67h2.46l.21.29c-.28,1.75-.82,3.09-1.62,4.02-.61.72-1.48,1.31-2.6,1.77l-.52-.65c1.14-.44,2.01-1.06,2.62-1.87.56-.74.93-1.68,1.12-2.82h-1.98Z" style="fill:#000; stroke-width:0px;"/><path d="M25.25,35c-.47.08-1.06.15-1.77.21l-.35-.71c1.59-.11,2.96-.37,4.13-.76l.43.71c-.44.14-.96.27-1.55.39v1.38h2.02v.75h-2.02c0,.95-.21,1.7-.61,2.25-.35.48-.91.88-1.66,1.19l-.61-.62c.79-.32,1.33-.7,1.61-1.13.25-.39.38-.95.4-1.68h-2.45v-.75h2.45v-1.22Z" style="fill:#000; stroke-width:0px;"/><path d="M30.2,36.17l-.26-1.22.8-.15.25,1.21,2.46-.47.43.43c-.19.86-.56,1.7-1.11,2.52l-.69-.4c.23-.29.43-.61.61-.96.15-.3.24-.56.28-.78l-1.82.38.75,3.55-.8.17-.75-3.55-1.25.26-.16-.74,1.26-.24Z" style="fill:#000; stroke-width:0px;"/><path d="M34.71,36.54h4.53v.87h-4.53v-.87Z" style="fill:#000; stroke-width:0px;"/><path d="M19.53,43h2.36c0,1.85-.06,3.23-.17,4.13-.06.47-.2.78-.42.93-.12.08-.3.14-.53.17s-.57.05-1.04.05l-.28-.87c.24.02.43.03.59.03.24,0,.41-.01.53-.03.09-.01.15-.06.2-.13.04-.08.08-.21.1-.4.09-.71.14-1.75.14-3.13h-1.5c-.07,1.22-.29,2.19-.66,2.89-.33.63-.85,1.19-1.55,1.7l-.59-.59c.72-.5,1.22-1.1,1.51-1.79.23-.55.37-1.29.41-2.21h-1.71v-.74h1.73v-1.34h.89c0,.64,0,1.09,0,1.34Z" style="fill:#000; stroke-width:0px;"/><path d="M22.87,44.54h4.53v.87h-4.53v-.87Z" style="fill:#000; stroke-width:0px;"/><path d="M29.98,43.98c1.13.3,2.16.72,3.07,1.24l-.45.85c-.74-.51-1.61-.92-2.62-1.23v3.54h-.89v-6.74h.89v2.34ZM31.27,41.47l.53-.14c.21.36.41.8.59,1.33l-.54.18c-.15-.5-.34-.96-.57-1.36ZM32.25,41.23l.52-.15c.22.4.41.83.57,1.27l-.54.18c-.16-.51-.35-.94-.55-1.3Z" style="fill:#000; stroke-width:0px;"/><path id="d" d="M43.35,31H6.65c-.91,0-1.65-.69-1.65-1.54V4.54c0-.85.74-1.54,1.65-1.54h36.69c.91,0,1.65.69,1.65,1.54h0v24.92c0,.85-.74,1.54-1.65,1.54" style="fill:gray; stroke:gray; stroke-miterlimit:10;"/><path d="M21.05,12.5c1.62,0,3.03.79,3.03,2.82v.08c0,2.11-1.43,3.14-3.13,3.14h-2.33v2.89h-1.8v-8.94h4.22ZM22.18,15.4c0-1.04-.74-1.48-1.62-1.48h-1.93v3.2h1.89c.98,0,1.66-.59,1.66-1.67v-.06Z" style="fill:#fff; stroke-width:0px;"/><path d="M24.88,17.11v-.11c0-2.88,1.81-4.59,4.31-4.59,2.17,0,3.79,1.06,3.98,3h-1.92c-.18-.91-1.09-1.44-2.1-1.44-1.43,0-2.36,1.01-2.36,3.03v.1c0,1.91.96,2.91,2.28,2.91,1.17,0,2-.53,2.18-1.45h1.91c-.14,1.88-1.8,3.03-4.1,3.03-2.51,0-4.17-1.62-4.17-4.49Z" style="fill:#fff; stroke-width:0px;"/><path d="M40.25,20.75l-.75-.75,3-3-3-3,.75-.75,3.75,3.75-3.75,3.75Z" style="fill:#fff; stroke:#fff; stroke-miterlimit:10; stroke-width:.5px;"/><path d="M9.75,20.75l.75-.75-3-3,3-3-.75-.75-3.75,3.75,3.75,3.75Z" style="fill:#fff; stroke:#fff; stroke-miterlimit:10; stroke-width:.5px;"/><rect x="13" y="8" width="24" height="18" style="fill:none; stroke:#fff; stroke-miterlimit:10; stroke-width:.5px;"/></g></svg>