<?xml version="1.0" encoding="UTF-8"?><svg id="b" xmlns="http://www.w3.org/2000/svg" width="50" height="50" viewBox="0 0 50 50"><g id="c"><rect width="50" height="50" rx="5" ry="5" style="fill:#fff; stroke-width:0px;"/><path d="M10.95,41.51v2.29h-1.04v-6.3h1.91c.72,0,1.28.17,1.68.51.4.34.6.81.6,1.42s-.21,1.11-.62,1.5-.98.58-1.69.58h-.84ZM10.95,38.36v2.3h.68c.45,0,.79-.1,1.02-.31s.35-.5.35-.88c0-.74-.43-1.11-1.29-1.11h-.76Z" style="fill:#000; stroke-width:0px;"/><path d="M17.53,40.27c-.12-.1-.3-.15-.53-.15-.3,0-.55.14-.76.41s-.3.64-.3,1.11v2.15h-1.02v-4.5h1.02v.93h.02c.1-.32.25-.56.46-.74.21-.18.44-.27.69-.27.19,0,.33.03.42.08v.97Z" style="fill:#000; stroke-width:0px;"/><path d="M22.06,41.83h-3.07c.01.42.14.74.38.96.24.23.58.34,1.01.34.48,0,.92-.14,1.32-.43v.82c-.41.26-.95.39-1.63.39s-1.18-.2-1.56-.61c-.38-.41-.57-.98-.57-1.72,0-.7.21-1.27.62-1.71.42-.44.93-.66,1.54-.66s1.09.2,1.43.59c.34.4.5.94.5,1.65v.39ZM21.07,41.1c0-.37-.09-.65-.26-.85-.17-.2-.4-.31-.7-.31s-.54.11-.75.32c-.2.21-.33.49-.38.84h2.08Z" style="fill:#000; stroke-width:0px;"/><path d="M26.9,39.3l-1.74,4.5h-1.1l-1.66-4.5h1.11l1,3.15c.08.23.12.43.14.61h.01c.03-.22.07-.41.12-.59l1.04-3.16h1.07Z" style="fill:#000; stroke-width:0px;"/><path d="M28.11,38.35c-.17,0-.31-.05-.43-.16-.12-.11-.18-.25-.18-.41s.06-.31.18-.42c.12-.11.26-.17.43-.17s.32.06.44.17.18.25.18.42c0,.16-.06.29-.18.41-.12.11-.27.17-.44.17ZM28.61,43.8h-1.02v-4.5h1.02v4.5Z" style="fill:#000; stroke-width:0px;"/><path d="M33.75,41.83h-3.07c.01.42.14.74.38.96.24.23.58.34,1.01.34.48,0,.92-.14,1.32-.43v.82c-.41.26-.95.39-1.63.39s-1.18-.2-1.56-.61c-.38-.41-.57-.98-.57-1.72,0-.7.21-1.27.62-1.71.42-.44.93-.66,1.54-.66s1.09.2,1.43.59c.34.4.5.94.5,1.65v.39ZM32.77,41.1c0-.37-.09-.65-.26-.85-.17-.2-.4-.31-.7-.31s-.54.11-.75.32c-.2.21-.33.49-.38.84h2.08Z" style="fill:#000; stroke-width:0px;"/><path d="M40.78,39.3l-1.33,4.5h-1.07l-.82-3.05c-.03-.12-.05-.25-.06-.4h-.02c0,.1-.03.23-.08.39l-.89,3.06h-1.05l-1.32-4.5h1.05l.82,3.24c.03.1.04.23.05.39h.03c0-.12.03-.25.07-.4l.91-3.23h.96l.81,3.26c.03.1.04.23.06.39h.03c0-.11.03-.24.07-.39l.8-3.26h.97Z" style="fill:#000; stroke-width:0px;"/><rect x="5" y="3" width="40" height="28" rx="2" ry="2" style="fill:gray; stroke-width:0px;"/><line x1="5" y1="26" x2="45" y2="26" style="fill:none; stroke:#fff; stroke-miterlimit:10;"/><circle cx="25" cy="14.5" r="7.5" style="fill:#fff; stroke-width:0px;"/><path d="M22.97,18.5c-.48.28-.87.05-.87-.5v-7c0-.55.39-.77.87-.5l6.06,3.5c.48.28.48.73,0,1l-6.06,3.5Z" style="fill:gray; stroke-width:0px;"/></g></svg>