<?xml version="1.0" encoding="UTF-8"?><svg id="b" xmlns="http://www.w3.org/2000/svg" width="50" height="50.53" xmlns:xlink="http://www.w3.org/1999/xlink" viewBox="0 0 50 50.53"><defs><clipPath id="e"><path d="M11.15,14.55v9.96c0,4.06,6.21,7.35,13.87,7.35s13.83-3.29,13.83-7.35v-9.96H11.15Z" style="fill:none; stroke-width:0px;"/></clipPath></defs><g id="c"><rect width="50" height="50" rx="5" ry="5" style="fill:#fff; stroke-width:0px;"/><path id="d" d="M38.84,23.82v-9.27H11.15v9.96c0,4.06,6.21,7.35,13.87,7.35s13.83-3.27,13.83-7.33v-.7Z" style="fill:gray; stroke-width:0px;"/><g style="clip-path:url(#e);"><rect id="f" x="13.13" y="18.02" width="4.94" height="14.61" style="fill:#b3b3b3; stroke-width:0px;"/><rect id="g" x="22.04" y="20" width="5.94" height="14.15" style="fill:#b3b3b3; stroke-width:0px;"/><path id="h" d="M36.88,32.63h-4.92l-.03-14.61h4.92l.03,14.61Z" style="fill:#b3b3b3; stroke-width:0px;"/></g><path d="M17.49,33.9v3.95h-.89v-3.95h.89ZM17.04,39.75c.63-.13,1.12-.29,1.45-.49.37-.22.64-.51.8-.89.16-.38.25-.9.25-1.55v-2.96h.89v3.03c0,1.18-.27,2.04-.82,2.59-.44.45-1.16.77-2.14.98l-.42-.7Z" style="fill:#000; stroke-width:0px;"/><path d="M25.5,37.23c.6.7,1.21,1.57,1.84,2.62l-.84.53c-.41-.85-.9-1.65-1.47-2.39-.66.94-1.62,1.73-2.86,2.38l-.51-.69c1.08-.5,1.95-1.22,2.62-2.16.55-.77.93-1.64,1.14-2.61h-3.25v-.76h3.73c.12.27.23.55.31.84l.18-.05c-.24.89-.54,1.65-.89,2.3ZM25.93,33.35l.5-.14c.21.37.4.81.58,1.33l-.52.17c-.15-.5-.34-.96-.57-1.36ZM26.87,33.2l.51-.14c.23.4.42.83.57,1.27l-.53.18c-.17-.51-.35-.94-.55-1.3Z" style="fill:#000; stroke-width:0px;"/><path d="M32.64,38.83c-.27-.65-.59-1.31-.95-1.97l.76-.3c.58,1,1.12,2.15,1.62,3.46l-.87.39c-.09-.3-.19-.6-.29-.88-1.16.18-2.64.38-4.42.59l-.19-.85c.25-.02.44-.03.57-.04.58-1.65,1.11-3.46,1.6-5.44l.89.24c-.46,1.67-1,3.37-1.61,5.12,1.06-.1,2.02-.21,2.89-.33Z" style="fill:#000; stroke-width:0px;"/><path d="M14.79,44.68c-.16.72-.34,1.33-.53,1.83-.17.45-.39.9-.66,1.35l-.78-.42c.57-.88.95-1.88,1.14-3.02l.83.26ZM16.37,42.93h2.5v.75h-2.5v4.72h-.88v-4.72h-2.47v-.75h2.47v-1.28h.88v1.28ZM17.03,44.75l.79-.29c.35,1.22.74,2.2,1.17,2.94l-.83.44c-.4-.81-.78-1.84-1.13-3.09ZM17.28,41.32l.52-.15c.21.36.4.8.58,1.33l-.54.18c-.15-.5-.34-.96-.57-1.36ZM18.3,41.17l.51-.16c.22.4.41.82.57,1.27l-.53.2c-.17-.51-.35-.94-.55-1.3Z" style="fill:#000; stroke-width:0px;"/><path d="M19.92,43.64l.72-.26c.26.55.48,1.17.66,1.86l-.74.27c-.18-.74-.39-1.37-.63-1.87ZM20.79,47.88c1.01-.37,1.73-.91,2.16-1.64.38-.65.61-1.64.68-2.98l.89.18c-.09.81-.2,1.46-.34,1.95-.13.48-.31.91-.53,1.28-.28.46-.61.84-1.01,1.13-.34.26-.79.5-1.34.72l-.52-.63ZM21.45,43.32l.75-.23c.21.48.39,1.08.55,1.79l-.75.26c-.16-.77-.34-1.38-.55-1.82Z" style="fill:#000; stroke-width:0px;"/><path d="M27.66,43.14c-.41.85-.93,1.6-1.56,2.24l-.67-.5c.95-.94,1.57-2.04,1.86-3.3l.92.14c-.12.36-.21.58-.24.67h2.46l.21.29c-.28,1.75-.82,3.09-1.62,4.02-.61.72-1.48,1.31-2.6,1.77l-.52-.65c1.14-.44,2.01-1.06,2.62-1.87.56-.74.93-1.68,1.12-2.82h-1.98Z" style="fill:#000; stroke-width:0px;"/><path d="M35.31,45.23c.62.72,1.23,1.59,1.84,2.62l-.84.53c-.43-.87-.92-1.67-1.47-2.4-.69.96-1.64,1.76-2.86,2.38l-.51-.69c1.08-.5,1.95-1.22,2.62-2.16.55-.77.93-1.64,1.14-2.61h-3.25v-.76h4.12l.22.3c-.24,1.07-.58,2-1.02,2.79Z" style="fill:#000; stroke-width:0px;"/><path id="i" d="M38.5,14.55c0,3.87-6.02,7-13.48,7s-13.52-3.13-13.52-7,6.07-7,13.52-7,13.48,3.13,13.48,7" style="fill:#fff; stroke:#b3b3b3; stroke-miterlimit:10; stroke-width:1.5px;"/><path id="j" d="M21.64,13.77c0,1.09-.89,1.98-1.98,1.98-1.09,0-1.98-.89-1.98-1.98,0-1.09.89-1.98,1.98-1.98,1.09,0,1.98.89,1.98,1.98h0" style="fill:gray; stroke-width:0px;"/><path id="k" d="M20.37,12.96l-1.39,1.39L9.51,4.93c-.19-.19-.19-.49,0-.68,0,0,0,0,0,0l.72-.72c.19-.19.49-.19.68,0,0,0,0,0,0,0l9.44,9.44Z" style="fill:gray; stroke-width:0px;"/><path id="l" d="M28.37,13.77c0,1.09.89,1.98,1.98,1.98,1.09,0,1.98-.89,1.98-1.98s-.89-1.98-1.98-1.98-1.98.89-1.98,1.98h0" style="fill:gray; stroke-width:0px;"/><path id="m" d="M29.64,12.96l1.39,1.39,9.44-9.43c.19-.19.19-.49,0-.68,0,0,0,0,0,0l-.71-.72c-.19-.19-.49-.19-.68,0,0,0,0,0,0,0l-9.44,9.44Z" style="fill:gray; stroke-width:0px;"/></g></svg>