<?xml version="1.0" encoding="UTF-8"?><svg id="b" xmlns="http://www.w3.org/2000/svg" width="50" height="50" viewBox="0 0 50 50"><g id="c"><rect width="50" height="50" rx="5" ry="5" style="fill:#fff; stroke-width:0px;"/><path d="M9.3,43.48c.58-.67,1.02-1.5,1.31-2.5.07-.25.11-.49.13-.7.22.05.5.15.83.28.09.04.14.08.14.13,0,.05-.02.1-.06.13-.07.08-.12.19-.15.32-.3,1.03-.73,1.92-1.26,2.65-.07.1-.12.15-.15.15-.03,0-.08-.04-.18-.11-.17-.14-.37-.26-.6-.36ZM11.36,44.48c.26.03.54.05.85.05.14,0,.23-.02.28-.07.05-.04.07-.12.07-.24v-4.52c0-.48-.02-.86-.06-1.14.33.01.64.03.93.06.09.01.14.04.14.09,0,.03-.02.09-.06.18-.04.08-.05.34-.05.8v3.14l.03,1.59c0,.4-.1.67-.29.81-.11.08-.27.13-.47.16-.18.03-.46.04-.82.04-.13,0-.21-.01-.23-.04-.02-.02-.04-.09-.07-.21-.07-.32-.15-.55-.24-.7ZM16.68,43.38c-.21.11-.41.25-.6.42-.09.08-.15.12-.18.12-.03,0-.08-.05-.14-.15-.3-.47-.58-1-.84-1.58-.24-.54-.42-1.06-.55-1.54,0-.03,0-.04,0-.06,0-.03.04-.06.12-.09l.56-.21s.08-.03.09-.03c.02,0,.04.03.05.07.32,1.13.82,2.14,1.5,3.03Z" style="stroke-width:0px;"/><path d="M20.46,38.34c.36,0,.65.03.89.05.09.01.14.04.14.1s-.01.11-.04.16c-.04.1-.07.32-.07.64v.6h1.55l1.09-.02s.07,0,.08.02c0,.01.01.04.01.07l-.02.99v.93l.02,1.56s0,.06-.01.07c0,.01-.03.02-.07.02h-.68s-.07,0-.08-.02c0,0-.01-.03-.01-.07v-.34h-1.87v.98l.02,1.48s0,.07-.02.07-.03.01-.07.01h-.71s-.07,0-.07-.02c0,0-.01-.03-.01-.07l.02-1.46v-1h-1.77v.37s0,.08-.02.09c-.01,0-.04.01-.07.01h-.68s-.07,0-.07-.02c0,0-.01-.04-.01-.08l.02-1.57v-.82l-.02-1.12s0-.07.02-.08.04-.01.07-.01l1.09.02h1.45v-.54c0-.43-.02-.77-.06-1.02ZM18.75,40.67v1.66h1.77v-1.66h-1.77ZM23.25,40.67h-1.87v1.66h1.87v-1.66Z" style="stroke-width:0px;"/><path d="M25.46,44.81c.13.02.33.02.62.02.09,0,.14-.02.17-.07.02-.04.03-.11.03-.21v-1.54l-.32.11c-.12.05-.21.09-.28.14-.04.03-.08.05-.14.05-.05,0-.09-.03-.1-.1-.05-.19-.09-.44-.12-.75.21-.02.46-.07.73-.15l.23-.07v-1.57h-.13l-.7.02c-.05,0-.08-.03-.08-.09v-.59c0-.06.03-.09.08-.09l.7.02h.13v-.43c0-.43-.02-.81-.07-1.14.32.01.59.03.82.07.09,0,.14.03.14.08,0,.03-.02.08-.06.17-.03.07-.05.33-.05.81v.44l.61-.02s.07,0,.08.02c0,.01.01.03.01.07v.59s0,.07-.02.07-.04.01-.07.01l-.61-.02v1.29c.36-.16.55-.24.58-.26-.02.14-.04.34-.05.6,0,.09-.01.14-.03.16-.02.02-.05.04-.12.07l-.39.18v.35l.02,1.6c0,.39-.09.65-.27.79-.1.07-.21.12-.33.14-.12.02-.3.04-.53.04h-.1c-.08,0-.13-.02-.15-.05-.02-.02-.03-.09-.05-.19-.04-.2-.11-.39-.2-.57ZM32.39,44.97s.07.05.07.07c0,0-.02.04-.06.09l-.34.46c-.04.05-.07.08-.1.08-.02,0-.04,0-.07-.03-.5-.34-1.01-.63-1.51-.87-.59.43-1.39.71-2.4.83-.08.01-.14.02-.16.02-.05,0-.11-.07-.17-.22-.07-.18-.17-.34-.29-.46.94-.07,1.67-.24,2.18-.5-.18-.07-.41-.15-.7-.25l-.07.07c-.07.09-.13.14-.18.14-.03,0-.08-.01-.13-.04l-.36-.16c-.09-.04-.13-.07-.13-.11,0-.02.02-.05.05-.09.16-.19.31-.38.44-.57.12-.18.19-.3.23-.37-.27,0-.51,0-.72.01,0,0-.06,0-.16,0h-.05s-.06,0-.07-.02c0-.01-.01-.04-.01-.08v-.52c0-.05.03-.08.08-.08l1.1.02h.19l.06-.12c.11-.25.18-.46.22-.61h-.43l-1.09.02s-.07,0-.08-.02c0,0-.01-.03-.01-.07v-.53s0-.08.02-.09c.01,0,.04-.01.07-.01l1.09.02h1.57c.09-.2.18-.43.27-.71.04-.11.06-.24.07-.37.25.03.49.06.73.11.09.02.14.05.14.09,0,.03-.02.06-.07.11-.03.03-.06.09-.09.17-.11.28-.2.48-.27.6h.18l1.09-.02s.06,0,.07.02c0,.01.01.04.01.08v.53c0,.06-.03.09-.08.09l-1.09-.02h-1.77l.48.14c.07.02.1.06.1.11s-.03.1-.1.14c-.06.05-.13.15-.2.3l-.02.04h1.5l1.1-.02h.04s.04.03.04.08v.52s0,.07-.01.08c0,.01-.03.02-.07.02-.01,0-.05,0-.12,0-.24,0-.5,0-.79-.01-.16.45-.39.83-.67,1.17.52.22,1,.47,1.44.73ZM29.11,39.89l-1.07.02s-.07,0-.08-.02c0,0-.01-.03-.01-.07v-.52c0-.05.03-.08.09-.08l1.07.02h.55v-.21c0-.28-.02-.49-.05-.65.27,0,.54.02.81.05.09,0,.14.04.14.08,0,.03-.02.07-.05.12-.03.07-.05.19-.05.39v.22h.81l1.07-.02c.06,0,.09.03.09.08v.52s0,.07-.02.07-.03.01-.07.01l-1.07-.02h-2.16ZM28.66,40.18s-.02-.05-.02-.06c0-.03.03-.05.09-.07l.46-.11s.07-.01.09-.01c.03,0,.06.02.07.05.09.17.18.41.27.7,0,.02.01.04.01.05,0,.04-.03.06-.1.08l-.5.12s-.06.02-.07.02c-.03,0-.06-.03-.07-.08-.05-.23-.13-.46-.22-.69ZM29.25,43.64c.36.11.68.21.96.32.23-.24.42-.54.57-.88h-1.2c-.14.25-.25.43-.33.56Z" style="stroke-width:0px;"/><path d="M33.31,41.76c.19.02.38.03.57.03.16-.21.31-.42.46-.62-.31-.42-.65-.81-1.04-1.18-.03-.03-.04-.05-.04-.07,0-.01.02-.05.06-.11l.29-.39s.06-.07.08-.07.04.01.06.04l.2.21c.18-.29.33-.58.47-.88.06-.13.11-.27.14-.43.29.11.52.21.66.29.07.04.11.08.11.12s-.02.08-.07.11c-.05.03-.1.1-.15.19-.25.44-.48.8-.69,1.11l.34.39c.16-.27.34-.56.52-.87.1-.19.17-.36.22-.5.35.14.57.24.66.3.07.03.1.07.1.11,0,.05-.03.09-.09.13-.05.04-.14.14-.25.31-.39.62-.8,1.21-1.23,1.78.27,0,.54-.02.82-.05-.05-.16-.12-.32-.19-.48-.01-.02-.02-.04-.02-.05,0-.03.03-.06.1-.08l.37-.15s.04-.02.05-.02c.03,0,.05.02.07.06.2.45.37.94.5,1.45v-.48l-.02-.37c0-.09.03-.13.1-.13l1.03.02h1.86l1.05-.02s.07,0,.08.02c0,.01.01.04.01.07l-.02.32v.28l.02.73s0,.07-.01.08c0,0-.03.01-.07.01h-.59s-.07,0-.08-.02c0,0,0-.03,0-.07v-.73h-2.6v.73s0,.07-.02.08-.03.01-.07.01h-.58s-.08,0-.09-.02c0,0-.01-.04-.01-.07,0,0,0-.04,0-.11,0-.07,0-.15.01-.25-.02.02-.05.04-.1.06l-.39.14s-.08.03-.09.03c-.02,0-.04-.03-.04-.08l-.08-.35c-.19.02-.32.04-.39.04v2.2l.02,1.05s0,.07-.02.07-.04.01-.07.01h-.61s-.07,0-.07-.02c0,0-.01-.03-.01-.07l.02-1.05v-2.12l-.63.05c-.13,0-.23.03-.3.07-.04.02-.08.03-.12.03-.05,0-.08-.04-.1-.13-.04-.22-.07-.45-.09-.68ZM33.3,44.88c.18-.43.29-.92.33-1.46.01-.14.02-.26.02-.36,0-.05,0-.1,0-.15.28.05.49.09.62.13.09.03.14.06.14.1,0,.04-.01.08-.04.12-.02.04-.05.14-.07.3-.08.65-.17,1.13-.26,1.44-.04.13-.08.19-.11.19-.02,0-.08-.03-.18-.1-.16-.1-.3-.17-.44-.21ZM35.93,42.89s.06-.01.08-.01c.03,0,.05.02.06.07.12.38.22.78.28,1.2,0,.03,0,.04,0,.05,0,.04-.03.07-.1.09l-.4.13s-.08.02-.09.02c-.03,0-.04-.03-.04-.08-.08-.57-.15-.99-.23-1.25,0-.03-.01-.04-.01-.06,0-.03.03-.05.09-.07l.37-.11ZM35.8,45.02c.61-.19,1.04-.47,1.28-.82.17-.26.27-.61.29-1.05v-.37c0-.11,0-.21,0-.3.03,0,.15.02.38.05.13.02.23.03.31.04.1.02.14.05.14.1s-.01.11-.04.17c-.02.08-.04.22-.06.41-.04.61-.19,1.09-.43,1.45-.24.36-.62.66-1.12.88-.09.04-.16.06-.18.06-.04,0-.1-.06-.18-.18-.12-.19-.25-.33-.39-.44ZM37.63,40.99l-.98.02c-.05,0-.08-.03-.08-.09v-.49c0-.06.03-.09.08-.09l.98.02h.3v-.52h-.47l-1.04.02s-.07,0-.08-.02c0,0-.01-.03-.01-.07v-.5c0-.05.03-.08.09-.08l1.04.02h.47v-.05c0-.41-.02-.68-.05-.82.28,0,.54.03.8.05.09.01.13.04.13.08,0,.05-.02.1-.05.16-.03.06-.04.21-.04.45v.14h.72l1.04-.02c.06,0,.09.03.09.08v.5s0,.07-.02.07-.04.01-.07.01l-1.04-.02h-.72v.52h.5l.98-.02s.07,0,.07.02c0,.01.01.04.01.07v.49s0,.07-.02.07-.03.01-.07.01l-.98-.02h-1.58ZM40.02,43.89c.13.08.29.15.46.21.09.03.15.05.17.07.02.02.03.06.03.11,0,.01,0,.05,0,.1-.03.49-.12.81-.27.96-.17.14-.49.21-.95.21-.33,0-.55-.04-.68-.11-.15-.09-.22-.28-.22-.57v-1.57c0-.35-.01-.62-.04-.81.26,0,.51.03.74.05.09,0,.14.04.14.09,0,.03-.02.09-.06.18-.03.07-.04.27-.04.6v1.18c0,.12.02.19.05.21.05.03.14.05.26.05.15,0,.25-.04.31-.11.06-.08.09-.36.09-.85Z" style="stroke-width:0px;"/><rect x="15" y="19" width="20" height="10" style="fill:gray; stroke-width:0px;"/><rect x="15" y="9" width="20" height="10" style="fill:#b3b3b3; stroke-width:0px;"/><circle cx="15" cy="19" r="10" style="fill:#b3b3b3; stroke-width:0px;"/><circle cx="35" cy="19" r="10" style="fill:gray; stroke-width:0px;"/><path d="M13.05,16.06c0,.49-.46,2.57-.9,3.77-.38,1.01-.85,1.93-1.09,2.23-.13.18-.34.32-.67.32-.68,0-1.22-.6-1.22-1.09,0-.3.16-.59.35-.94.53-1.01.91-1.71,1.42-4.25.08-.43.2-1.04,1.2-.9.31.05.92.2.92.85ZM16.03,23.08c0,1.62-.9,1.68-2.36,1.68-.34,0-1.05-.01-1.39-.05-.72-.08-.82-.82-.82-1.07,0-.19.05-.55.26-.78.24-.25.6-.26.75-.26.11,0,.59.01.68.01.48,0,.71-.02.71-.46v-7.93c0-.35.04-.98.98-.98s1.18.3,1.18.98v8.85ZM18.89,16.1c.06.29.56,2.36,1.32,3.74.08.14.44.78.5.91.07.16.11.31.11.5,0,.8-.88,1.13-1.26,1.13-.43,0-.68-.26-1.14-1.12-.91-1.71-1.67-4.79-1.67-5.29,0-.31.22-.71.91-.8,1-.13,1.12.42,1.22.92Z" style="fill:#fff; stroke-width:0px;"/><path d="M33.91,15.09v-1.78h2.04v1.78h4.29v6.55h-4.29v3.08h-2.04v-3.08h-4.25v-6.55h4.25ZM33.91,17.01h-2.22v2.71h2.22v-2.71ZM38.2,17.01h-2.25v2.71h2.25v-2.71Z" style="fill:#fff; stroke-width:0px;"/></g></svg>