<?xml version="1.0" encoding="UTF-8"?><svg id="b" xmlns="http://www.w3.org/2000/svg" width="50" height="50" viewBox="0 0 50 50"><g id="c"><rect width="50" height="50" rx="5" ry="5" style="fill:#fff; stroke-width:0px;"/><g id="d"><path id="e" d="M36.49,20.37H13.51c-.56,0-1.01.45-1.01,1.01h0v2.14c0,.56.45,1.01,1.01,1.01,0,0,0,0,0,0h22.97c.56,0,1.01-.45,1.01-1.01h0v-2.14c0-.56-.45-1.01-1.01-1.01h0" style="fill:gray; stroke-width:0px;"/></g><path d="M17.23,45.61c.17-.44.27-.93.32-1.5.01-.23.02-.35.02-.37v-.11c.27.04.46.07.57.11.09.02.13.05.13.09,0,.04-.01.08-.04.12-.01.02-.03.12-.05.28-.05.57-.14,1.07-.28,1.49-.04.12-.07.18-.11.18-.03,0-.09-.03-.18-.1-.11-.08-.24-.15-.38-.21ZM19.69,41.66s.06-.02.07-.02c.02,0,.04.02.06.06.18.4.33.81.44,1.23.25-.38.48-.88.7-1.5.05-.14.09-.3.11-.48.3.09.51.16.62.21.08.04.12.08.12.12,0,.04-.02.08-.05.12-.06.05-.12.16-.18.34-.07.18-.16.4-.27.64v2.98l.02,1c0,.06-.03.09-.08.09h-.57s-.08,0-.09-.02c0-.01-.01-.04-.01-.07l.02-1v-1.77l-.11.15c-.06.08-.11.12-.15.12-.03,0-.09-.04-.17-.13-.1-.11-.22-.2-.36-.28.1-.1.21-.23.34-.39l-.34.13s-.06.03-.08.03c-.03,0-.05-.03-.07-.1l-.04-.14-.45.07v2.23l.02,1.05s0,.07-.02.08c-.01,0-.04.01-.08.01h-.59s-.07,0-.07-.02-.01-.04-.01-.07l.02-1.05v-2.14c-.13.02-.3.04-.52.05-.17.02-.27.04-.3.07-.04.03-.09.04-.13.04-.04,0-.07-.05-.09-.14-.05-.21-.09-.43-.11-.67.13,0,.32,0,.55,0,.21-.29.37-.51.46-.66-.34-.44-.66-.8-.95-1.09-.03-.02-.04-.04-.04-.06s.01-.05.04-.1l.3-.4s.05-.05.07-.05.04.01.07.04l.15.16c.14-.24.29-.52.44-.86.07-.16.12-.31.16-.46.33.14.54.22.62.27.07.04.11.08.11.13,0,.04-.02.07-.07.1-.06.04-.11.1-.14.2-.25.47-.47.84-.66,1.12,0,0,.11.13.32.37.15-.24.31-.53.5-.86.09-.14.16-.3.23-.49.26.11.46.21.61.3.07.03.11.07.11.11,0,.05-.03.1-.1.13-.05.03-.13.13-.24.3-.44.71-.83,1.3-1.18,1.75.37-.03.64-.06.82-.08-.04-.13-.11-.28-.18-.45-.02-.03-.02-.05-.02-.07,0-.02.04-.05.11-.08l.33-.12ZM19.77,43.66s.06-.01.07-.01c.04,0,.06.02.08.07.16.47.28.95.36,1.44,0,.02,0,.04,0,.05,0,.04-.04.07-.11.09l-.37.13s-.08.02-.09.02c-.03,0-.04-.03-.04-.08-.08-.61-.18-1.1-.32-1.49,0-.02-.01-.04-.01-.05,0-.03.03-.05.1-.07l.33-.1ZM23.43,39.92l1.05-.02s.08,0,.09.02c0,0,.01.03.01.07l-.02.32v.27l.02.67s0,.07-.02.07c-.01,0-.04.01-.08.01h-.11v.53s0,.07-.02.07-.04.01-.07.01l-.8-.02c-.08.28-.14.51-.21.69h.25l.78-.02s.07,0,.07.02.01.04.01.07l-.02,1.05v.98l.02,1.61s0,.07-.02.08c-.01,0-.03.01-.07.01h-.54s-.07,0-.07-.02-.01-.04-.01-.08v-.27h-1.17v.27s0,.07-.02.07-.03.01-.07.01h-.52s-.07,0-.07-.02-.01-.03-.01-.07l.02-1.62v-.85l-.02-1.16s0-.07.02-.08.04-.01.07-.01l.67.02c.09-.25.15-.48.2-.69h-.03l-.81.02s-.07,0-.08-.02-.01-.03-.01-.07v-.52s0-.07.02-.08c.01,0,.04-.01.07-.01l.81.02h1.06v-.68h-2.86v.72s0,.07-.02.08c0,0-.03.01-.07.01h-.57s-.08,0-.09-.02c0-.01-.01-.04-.01-.07l.02-.69v-.23l-.02-.41s0-.06.02-.07c.01,0,.04-.01.08-.01l1.06.02h.59v-.05c0-.33-.02-.58-.06-.78.32,0,.6.03.85.05.09.01.13.04.13.07,0,.04-.01.1-.04.16-.03.06-.05.22-.05.46v.08h.66ZM22.5,43.26v.74h1.17v-.74h-1.17ZM22.5,45.42h1.17v-.79h-1.17v.79Z" style="fill:#000; stroke-width:0px;"/><path d="M25.3,44.24c.58-.67,1.02-1.5,1.31-2.5.07-.26.11-.49.13-.7.22.05.5.15.83.28.09.04.14.08.14.13,0,.05-.02.1-.06.13-.07.08-.12.19-.15.32-.3,1.03-.73,1.92-1.26,2.65-.07.1-.12.15-.15.15-.03,0-.08-.04-.18-.11-.17-.14-.37-.26-.6-.36ZM27.36,45.24c.26.03.54.05.85.05.14,0,.23-.02.28-.07.05-.04.07-.12.07-.24v-4.52c0-.48-.02-.86-.06-1.14.33.01.64.03.93.06.09.01.14.04.14.09,0,.03-.02.09-.06.18-.04.08-.05.34-.05.8v3.14l.03,1.59c0,.4-.1.67-.29.81-.11.08-.27.13-.47.16-.18.03-.46.04-.82.04-.13,0-.21-.01-.23-.04-.02-.02-.04-.09-.07-.21-.07-.32-.15-.55-.24-.7ZM32.68,44.14c-.21.11-.41.25-.6.42-.09.08-.15.12-.18.12-.03,0-.08-.05-.14-.15-.3-.47-.58-1-.84-1.58-.24-.54-.42-1.06-.55-1.54,0-.03,0-.05,0-.06,0-.03.04-.06.12-.09l.56-.21s.08-.03.09-.03c.02,0,.04.02.05.07.32,1.13.82,2.14,1.5,3.03Z" style="fill:#000; stroke-width:0px;"/></g></svg>