<?xml version="1.0" encoding="UTF-8"?><svg id="b" xmlns="http://www.w3.org/2000/svg" width="50" height="50" viewBox="0 0 50 50"><g id="c"><rect width="50" height="50" rx="5" ry="5" style="fill:#fff; stroke-width:0px;"/><path d="M14.37,43.25c.52.27,1.25.44,2.18.54-.12.12-.25.28-.39.5-.07.1-.13.15-.18.15s-.12,0-.19-.02c-.39-.06-.79-.16-1.22-.32-.38-.14-.7-.3-.97-.46-.03-.02-.05-.04-.05-.05,0-.02.03-.04.09-.06l.61-.29h-2.69c.17.07.4.17.68.3.08.02.11.06.11.11,0,.05-.04.08-.12.1-.06.01-.17.06-.33.14-.53.27-1.14.45-1.82.56-.08.01-.14.02-.16.02-.07,0-.13-.06-.2-.17-.1-.18-.22-.33-.36-.46.73-.07,1.33-.2,1.8-.39.15-.06.27-.13.36-.2l-.97.02s-.07,0-.07-.02c0-.01-.01-.04-.01-.08l.02-.79v-1.37l-.02-.79s0-.07.02-.07.03-.01.07-.01l1.05.02s-.05-.08-.07-.13c-.1-.18-.2-.3-.28-.37.63-.11,1.11-.27,1.43-.48.3-.2.52-.46.64-.8h-.67c-.16.19-.33.35-.51.5-.1.08-.16.11-.18.11-.03,0-.1-.05-.19-.16-.11-.12-.22-.2-.35-.26.47-.34.82-.71,1.05-1.12.06-.11.11-.23.15-.36.25.04.46.08.63.12.09.02.14.05.14.09,0,.04-.02.08-.07.11-.05.03-.11.1-.16.21l-.09.15h2.37c.1,0,.16-.01.2-.03.04-.02.08-.03.11-.03.05,0,.15.05.3.16.18.12.27.21.27.28,0,.04-.02.08-.07.1-.06.03-.1.08-.14.14-.09.14-.22.33-.39.57-.08.11-.15.16-.19.16-.04,0-.11-.02-.21-.07-.18-.08-.33-.13-.45-.16.18-.17.33-.35.46-.53h-1.18c.29.78,1.14,1.23,2.53,1.35-.09.11-.16.29-.22.52-.03.1-.05.16-.07.18s-.05.04-.09.04c-.03,0-.08,0-.16-.02-.2-.04-.41-.09-.63-.16-.01.14-.02.38-.02.73v1.37l.02.79s0,.07-.01.08-.03.02-.08.02l-1.07-.02.05.02ZM11.48,38.69c0,.09.02.24.06.46.02.1.03.16.03.19,0,.06-.07.12-.2.2-.32.17-.73.35-1.25.54-.11.04-.18.08-.21.11-.04.04-.08.06-.11.06-.04,0-.08-.03-.11-.09-.08-.15-.18-.38-.28-.68.23-.05.43-.1.59-.14.6-.2,1.09-.41,1.49-.64ZM10.22,37.29c.36.15.72.36,1.1.62.04.03.06.05.06.07,0,.02-.02.04-.06.08l-.34.39s-.07.07-.1.07c-.02,0-.04-.01-.07-.04-.38-.3-.74-.53-1.09-.67-.04-.03-.06-.05-.06-.06,0-.02.02-.05.05-.09l.34-.34s.07-.07.1-.07c.02,0,.04,0,.07.02ZM14.68,40.69h-3.43v.34h3.43v-.34ZM11.25,41.84h3.43v-.34h-3.43v.34ZM14.68,42.66v-.35h-3.43v.35h3.43ZM14.29,40.13c.42,0,.7,0,.82,0-.62-.26-1.07-.62-1.34-1.09-.28.52-.81.88-1.6,1.1h2.12Z" style="fill:#000; stroke-width:0px;"/><path d="M18.74,37.1c.29,0,.56.03.81.05.09,0,.13.04.13.08,0,.04-.02.09-.05.17-.04.07-.05.34-.05.8v1.5h.06l.86-.02s.07,0,.08.02.01.04.01.07v.57c0,.05-.03.08-.09.08l-.81-.02c.3.5.66.96,1.08,1.38-.11.14-.22.31-.32.53-.05.1-.08.14-.11.14s-.07-.04-.12-.12c-.27-.39-.49-.77-.65-1.14l.05,3.14s0,.07-.02.08c-.01,0-.04.01-.07.01h-.66s-.07,0-.07-.02-.01-.04-.01-.07c0-.02,0-.18.01-.48.02-.92.04-1.74.04-2.45-.25.67-.57,1.28-.97,1.82-.07.09-.12.13-.14.13-.03,0-.07-.05-.09-.14-.09-.26-.18-.46-.29-.58.57-.65,1-1.39,1.29-2.22h-.14l-.87.02c-.06,0-.09-.03-.09-.08v-.57s0-.07.02-.08.04-.01.07-.01l.87.02h.33v-1.48c0-.43-.02-.81-.07-1.13ZM18.18,37.73c.19.44.34.89.43,1.34,0,.02,0,.03,0,.04,0,.04-.04.07-.11.1l-.34.13s-.08.03-.1.03c-.02,0-.04-.03-.05-.08-.08-.46-.22-.9-.41-1.34-.01-.03-.02-.05-.02-.06,0-.03.03-.06.1-.08l.34-.14s.06-.02.08-.02c.02,0,.04.02.07.07ZM19.73,39.15c.16-.39.28-.8.37-1.21.03-.12.04-.24.05-.34.32.11.52.18.61.22.06.03.09.06.09.1,0,.04-.02.06-.05.08-.04.03-.07.09-.1.18-.08.29-.21.62-.37,1.02-.05.11-.09.17-.12.17-.03,0-.08-.02-.16-.07-.1-.05-.21-.1-.32-.14ZM21.78,41.81l1.22-.24v-3.2c0-.51-.02-.91-.07-1.21.31,0,.6.03.85.05.08.01.12.04.12.09,0,.02-.02.07-.05.16-.03.08-.05.37-.05.89v3.07c.2-.04.37-.08.53-.12.03,0,.07-.02.13-.04.03,0,.05,0,.06-.01.02,0,.04,0,.04,0,.02,0,.04.03.05.09l.09.62s0,.03,0,.04c0,.03-.03.05-.08.05-.02,0-.1.02-.25.05-.18.03-.38.07-.57.11v.75l.02,1.38s0,.07-.02.08c-.01,0-.04.01-.07.01h-.66s-.07,0-.07-.02c0,0-.01-.03-.01-.07l.02-1.38v-.59l-1.1.22c-.3.06-.56.11-.78.16-.05,0-.11.02-.18.04-.03,0-.06.01-.07.02-.02,0-.04,0-.05,0-.03,0-.05-.02-.05-.07l-.1-.63s0-.04,0-.05c0-.02.03-.04.08-.05.01,0,.06-.01.15-.02.26-.04.55-.09.89-.15ZM21.39,39.52c.41.29.78.63,1.11,1.02.03.03.04.06.04.07,0,.02-.02.05-.06.09l-.39.39s-.08.06-.09.06c-.02,0-.04-.02-.07-.05-.34-.44-.7-.8-1.05-1.09-.04-.04-.05-.06-.05-.07,0-.02.02-.04.06-.09l.37-.35s.06-.06.07-.06.04.02.08.05ZM21.61,37.67c.47.33.84.67,1.13,1.02.02.02.04.05.04.07s-.02.05-.06.09l-.38.38s-.08.07-.1.07-.03-.02-.05-.05c-.32-.4-.68-.75-1.09-1.05-.03-.02-.04-.04-.04-.06,0-.03.02-.06.06-.09l.35-.34s.08-.06.09-.06c.02,0,.04,0,.06.03Z" style="fill:#000; stroke-width:0px;"/><path d="M27.8,43.33s0,.07-.01.08-.03.01-.07.01h-.56s-.08,0-.09-.02c0,0-.01-.03-.01-.07v-.25h-.69v.62s0,.07-.01.08-.03.01-.07.01h-.58c-.05,0-.08-.03-.08-.09l.02-2.63v-1.5l-.02-1.99s0-.08.02-.09c0,0,.03-.01.06-.01l.68.02h.66l.67-.02s.07,0,.07.02c0,.01.01.04.01.08l-.02,1.7v1.63l.02,2.42ZM27.06,38.22h-.69v1.66h.69v-1.66ZM26.37,42.35h.69v-1.74h-.69v1.74ZM27.34,43.77c1.15-.41,1.91-1.1,2.28-2.06l.07-.2h-.66l-.99.02s-.07,0-.07-.02-.01-.03-.01-.07v-.55s0-.07.02-.07.03-.01.07-.01c0,0,.03,0,.09,0,.06,0,.13,0,.21.01v-1.53l-.02-.79s0-.07.02-.07.04-.01.07-.01l1.03.02h.38v-.29c0-.39-.02-.73-.05-1.02.33,0,.6.03.82.05.09.02.13.05.13.1,0,.04-.02.09-.05.15-.03.08-.05.31-.05.7v.3h.5l1.02-.02s.08,0,.09.02c0,.01.01.03.01.07l-.02.79v1.53c.11,0,.22,0,.33-.01.07,0,.11,0,.11,0,.04,0,.07,0,.08.02,0,.01.01.03.01.07v.55s0,.06-.01.07-.04.01-.08.01l-1.1-.02h-.88c.43.93,1.16,1.63,2.16,2.1-.12.17-.23.37-.31.61-.04.13-.09.19-.13.19-.04,0-.1-.03-.18-.08-.88-.56-1.53-1.28-1.95-2.16-.38.9-1.11,1.63-2.17,2.19-.09.04-.16.06-.18.06-.04,0-.1-.06-.17-.18-.12-.2-.25-.35-.41-.47ZM29.83,39.37v-.24h-.74v1.68h.71c.02-.26.03-.74.03-1.44ZM30.56,40.81h.87v-1.68h-.82v.25c0,.53-.02,1.01-.05,1.43Z" style="fill:#000; stroke-width:0px;"/><path d="M33.16,40.18c.6-.66,1.07-1.5,1.43-2.54.06-.19.11-.38.13-.56.32.08.57.16.74.23.09.03.14.07.14.12,0,.04-.03.08-.08.14-.05.05-.12.18-.19.38-.12.34-.26.68-.43,1.02v4.14l.02,1.21s0,.07-.02.08c-.01,0-.04.01-.07.01h-.63s-.07,0-.07-.02-.01-.04-.01-.07l.02-1.21v-1.73c0-.24,0-.62.02-1.15-.13.19-.29.4-.49.64-.05.07-.1.11-.14.11-.03,0-.06-.06-.09-.17-.07-.24-.16-.45-.26-.62ZM35,43.42c1.09-.33,1.99-.77,2.7-1.33-.04-.12-.08-.21-.11-.27-.63.44-1.29.79-1.98,1.04-.08.03-.13.05-.16.05-.04,0-.08-.05-.12-.14-.07-.16-.16-.31-.29-.43.87-.26,1.61-.59,2.23-1.01-.04-.06-.1-.13-.17-.2-.44.26-.91.48-1.42.66-.08.03-.14.05-.18.05-.04,0-.08-.05-.12-.14-.09-.19-.18-.34-.29-.45.79-.2,1.42-.45,1.89-.75h-.16l-1.09.02s-.07,0-.07-.02-.01-.03-.01-.07l.02-.55v-.33l-.11.07c-.1.07-.16.11-.19.11-.03,0-.07-.05-.12-.14-.07-.13-.17-.27-.31-.43.65-.41,1.18-.94,1.59-1.58.11-.19.18-.36.22-.51.28.04.52.09.71.14.1.03.14.06.14.11,0,.06-.03.11-.1.14-.05.03-.12.11-.2.23h1.16c.09,0,.16,0,.2-.02.05-.02.09-.03.1-.03.06,0,.16.07.31.21.14.12.2.21.2.27,0,.05-.04.1-.11.14-.06.03-.12.1-.19.19-.12.16-.23.28-.32.38h.34l1.1-.02s.07,0,.08.02c0,.01.01.03.01.07l-.02.53v.48l.02.52s0,.07-.02.07c0,0-.03.01-.07.01l-1.1-.02h-.13c.07.33.18.65.32.96.13-.12.26-.26.4-.42.08-.09.15-.21.23-.35.28.16.47.28.58.36.07.05.11.1.11.13,0,.05-.04.09-.11.12-.08.03-.17.1-.27.21-.22.22-.42.41-.6.55.31.45.73.85,1.27,1.2-.14.16-.26.33-.35.51-.06.12-.12.18-.16.18-.04,0-.1-.04-.19-.12-.51-.44-.93-.96-1.25-1.54-.27-.5-.49-1.1-.66-1.8h-.16l-.38.28c.61.64.91,1.39.91,2.25,0,.49-.11.85-.32,1.07-.16.17-.37.25-.64.25-.17,0-.3,0-.41,0-.12,0-.2-.02-.22-.05-.02-.02-.04-.08-.06-.18-.04-.2-.1-.38-.18-.54.27.04.48.05.64.05.18,0,.3-.05.36-.16.06-.1.09-.3.09-.59,0-.06,0-.12-.01-.15-.64.51-1.38.92-2.24,1.23-.08.03-.13.04-.15.04-.04,0-.08-.05-.12-.14-.09-.19-.19-.35-.31-.47ZM36.4,39.97h1.14v-.58h-1.14v.58ZM36.49,38.83h1.32c.17-.17.32-.34.43-.51h-1.3c-.18.22-.33.39-.44.51ZM39.46,39.97v-.58h-1.19v.58h1.19Z" style="fill:#000; stroke-width:0px;"/><rect x="5" y="3" width="40" height="28" rx="2" ry="2" style="fill:gray; stroke-width:0px;"/><line x1="5" y1="26" x2="45" y2="26" style="fill:none; stroke:#fff; stroke-miterlimit:10;"/><circle cx="25" cy="14.5" r="7.5" style="fill:#fff; stroke-width:0px;"/><path d="M22.97,18.5c-.48.28-.87.05-.87-.5v-7c0-.55.39-.77.87-.5l6.06,3.5c.48.28.48.73,0,1l-6.06,3.5Z" style="fill:gray; stroke-width:0px;"/></g></svg>