<?xml version="1.0" encoding="UTF-8"?><svg id="b" xmlns="http://www.w3.org/2000/svg" width="50" height="50" viewBox="0 0 50 50"><g id="c"><rect width="50" height="50" rx="5" ry="5" style="fill:#fff; stroke-width:0px;"/><path d="M21.74,6.5c-.95-1.58-1.86-2.8-2.72-3.63l-.11-.11-1.17-.21-2.01,12.96c-2.19-1.4-4.55-1.63-6.57-.49-1.2.68-1.92,1.62-2.13,2.79-.17.94.05,1.86.64,2.72.59.86,1.54,1.41,2.8,1.63.91.16,1.87.11,2.84-.15.99-.26,1.73-.59,2.28-1.02.59-.46.97-1.15,1.13-2.06l1.94-12.22c.32.39.67.84,1.04,1.36.65.91,1.1,1.61,1.32,2.05.08.17.34.71.83.8.29.05.57-.07.84-.37.22-.24.34-.45.37-.65.08-.43,0-1.2-1.33-3.39Z" style="fill:gray; stroke-width:0px;"/><path d="M15.95,16.1c.34.77.47,1.67.31,2.7-.2,1.12-.66,1.98-1.39,2.54-.68.53-1.6.94-2.81,1.26-1.2.32-2.38.38-3.5.18-1.56-.28-2.73-.95-3.46-2.01-.73-1.06-.99-2.18-.79-3.35.26-1.45,1.14-2.61,2.62-3.44,3.14-1.77,7.69-.85,9.02,2.12Z" style="fill:gray; stroke:gray; stroke-miterlimit:10;"/><path d="M7.35,21.52c-.13.24-.32.33-.61.28-.51-.09-.86-.42-.8-.74.02-.11.06-.19.12-.29l3.91-6.46c.26-.43.59-.59,1.14-.49s.84.36.92.85l1.35,7.38c.02.08.02.18,0,.28-.06.33-.52.54-1.03.45-.27-.05-.42-.19-.47-.47l-.39-2.5-2.87-.51-1.27,2.21ZM11.33,18.54l-.25-1.62c-.09-.55-.16-1.05-.23-1.6h-.04c-.24.48-.51.97-.79,1.46l-.8,1.39,2.11.37Z" style="fill:#fff; stroke-width:0px;"/><path d="M28.31,15.47c-1.43-1.16-2.71-1.99-3.8-2.48l-.14-.06-1.17.21,2.54,12.86c-2.54-.56-4.83.03-6.34,1.79-.9,1.05-1.25,2.18-1.04,3.35.17.94.68,1.73,1.53,2.33.85.61,1.93.8,3.19.57.91-.16,1.79-.53,2.62-1.11.84-.58,1.43-1.15,1.79-1.74.4-.63.51-1.41.35-2.32l-2.36-12.15c.43.25.92.56,1.44.92.92.63,1.58,1.13,1.94,1.47.14.14.56.55,1.06.46.29-.05.51-.26.67-.64.12-.3.16-.53.13-.73-.08-.43-.42-1.12-2.41-2.73Z" style="fill:#b3b3b3; stroke-width:0px;"/><path d="M26.16,26.47c.58.6,1.02,1.41,1.21,2.43.2,1.12.05,2.08-.44,2.86-.45.73-1.18,1.43-2.21,2.15-1.02.71-2.11,1.17-3.23,1.37-1.56.28-2.89.04-3.93-.71-1.05-.74-1.68-1.71-1.89-2.87-.26-1.45.18-2.84,1.29-4.13,2.35-2.74,6.93-3.43,9.2-1.09Z" style="fill:#b3b3b3; stroke:#b3b3b3; stroke-miterlimit:10;"/><path d="M22.87,29.66c1.27.04,2.06.62,2.25,1.69.28,1.56-.65,2.64-2.78,3.02l-2.48.44c-.57.1-.91-.1-1.01-.64l-1.19-6.77c-.09-.53.16-.85.73-.95l2.35-.42c2.06-.36,3.08.21,3.32,1.59.16.9-.33,1.65-1.2,2.01v.04ZM19.59,29.7l1.69-.3c1.08-.19,1.43-.71,1.31-1.39-.12-.67-.6-.9-1.64-.72l-1.73.31.37,2.1ZM20.25,33.43l1.9-.33c1.12-.2,1.59-.74,1.45-1.53-.14-.82-.74-1.15-1.89-.95l-1.89.33.44,2.48Z" style="fill:#fff; stroke-width:0px;"/><path d="M42.62,7.74c-1.61-.89-3.01-1.49-4.18-1.78l-.15-.04-1.12.41,4.73,12.23c-2.6-.11-4.76.87-5.94,2.86-.7,1.19-.85,2.36-.45,3.48.33.9.97,1.58,1.91,2.03.94.45,2.03.45,3.25.01.87-.32,1.67-.84,2.39-1.55.73-.72,1.2-1.38,1.46-2.03.28-.69.26-1.48-.05-2.35l-4.43-11.56c.47.17,1,.39,1.58.66,1.02.46,1.75.84,2.17,1.12.16.11.65.44,1.12.27.28-.1.46-.35.54-.74.07-.32.07-.55,0-.75-.15-.41-.61-1.03-2.85-2.27Z" style="fill:gray; stroke-width:0px;"/><path d="M42.41,18.95c.68.49,1.24,1.21,1.62,2.18.39,1.07.41,2.04.07,2.9-.32.8-.91,1.61-1.8,2.5-.88.88-1.87,1.52-2.94,1.91-1.49.54-2.84.54-4-.01-1.16-.55-1.95-1.39-2.36-2.5-.5-1.38-.32-2.83.55-4.29,1.84-3.1,6.23-4.58,8.87-2.67Z" style="fill:gray; stroke:gray; stroke-miterlimit:10;"/><path d="M40.75,19.54c.15.12.23.19.29.36.13.35-.16.76-.61.92-.28.1-.47.06-.7-.12-.62-.48-1.25-.61-2-.33-1.42.52-1.87,2-1.22,3.77.65,1.78,1.86,2.59,3.26,2.08.76-.28,1.21-.8,1.38-1.64.06-.28.2-.45.46-.55.45-.16.95.01,1.06.32.04.12.04.23,0,.4-.29,1.22-1.11,2.17-2.48,2.67-2.2.8-4.19-.15-5.13-2.74-.94-2.57.03-4.7,2.26-5.51,1.3-.47,2.57-.32,3.45.36Z" style="fill:#fff; stroke-width:0px;"/><path d="M15.77,39.99c-.47.08-1.06.15-1.77.21l-.35-.71c1.59-.11,2.96-.37,4.13-.76l.43.71c-.44.14-.96.27-1.55.39v1.38h2.02v.75h-2.02c0,.95-.21,1.7-.61,2.25-.35.48-.91.88-1.66,1.19l-.61-.62c.79-.32,1.33-.7,1.61-1.13.25-.39.38-.95.4-1.68h-2.45v-.75h2.45v-1.22Z" style="fill:#000; stroke-width:0px;"/><path d="M20.72,41.16l-.26-1.22.8-.15.25,1.21,2.46-.47.43.43c-.19.86-.56,1.7-1.11,2.52l-.69-.4c.23-.29.43-.61.61-.96.15-.3.24-.56.28-.78l-1.82.38.75,3.55-.8.17-.75-3.55-1.25.26-.16-.74,1.26-.24Z" style="fill:#000; stroke-width:0px;"/><path d="M25.8,39.23c.74.38,1.41.8,2.01,1.27l-.58.8c-.6-.55-1.25-1.01-1.96-1.38l.54-.69ZM29.67,39.57l.84.43c-.24,1.48-.73,2.65-1.49,3.51-.77.88-1.86,1.5-3.25,1.86l-.43-.82c1.48-.33,2.57-.98,3.29-1.98.54-.76.89-1.77,1.05-3.01Z" style="fill:#000; stroke-width:0px;"/><path d="M31.29,39.67l.79-.3c.35.57.64,1.29.88,2.14l-.84.31c-.23-.88-.51-1.59-.82-2.14ZM32.33,44.77c1.22-.47,2.08-1.16,2.59-2.06.45-.79.7-1.97.76-3.54l.98.2c-.15,1.7-.47,2.96-.96,3.79-.31.52-.69.96-1.14,1.33-.43.35-.98.67-1.62.96l-.6-.66ZM33.01,39.25l.82-.26c.32.59.57,1.3.77,2.11l-.86.29c-.18-.88-.43-1.59-.73-2.14Z" style="fill:#000; stroke-width:0px;"/></g></svg>