<?xml version="1.0" encoding="UTF-8"?><svg id="_レイヤー_2" xmlns="http://www.w3.org/2000/svg" width="50" height="50.53" viewBox="0 0 50 50.53"><g id="sideBar"><rect width="50" height="50" rx="5" ry="5" style="fill:#fff; stroke-width:0px;"/><path d="M13.02,37.22c.62.72,1.23,1.59,1.84,2.62l-.84.53c-.43-.87-.92-1.67-1.47-2.4-.69.96-1.64,1.76-2.86,2.38l-.51-.69c1.08-.5,1.95-1.22,2.62-2.16.55-.77.93-1.64,1.14-2.61h-3.25v-.76h4.12l.22.3c-.24,1.07-.58,2-1.02,2.79Z" style="fill:#000; stroke-width:0px;"/><path d="M17.37,35.98c1.13.3,2.16.72,3.07,1.24l-.45.85c-.74-.51-1.61-.92-2.62-1.23v3.54h-.89v-6.74h.89v2.34Z" style="fill:#000; stroke-width:0px;"/><path d="M21.19,36.54h4.53v.87h-4.53v-.87Z" style="fill:#000; stroke-width:0px;"/><path d="M27.91,33.89v3.95h-.89v-3.95h.89ZM27.46,39.74c.63-.13,1.12-.29,1.45-.49.37-.22.64-.51.8-.89.16-.38.25-.9.25-1.55v-2.96h.89v3.03c0,1.18-.27,2.04-.82,2.59-.44.45-1.16.77-2.14.98l-.42-.7Z" style="fill:#000; stroke-width:0px;"/><path d="M32.21,36.54h4.53v.87h-4.53v-.87Z" style="fill:#000; stroke-width:0px;"/><path d="M39.09,36.2c.23,0,.43.09.59.27.14.15.21.33.21.54,0,.23-.09.43-.27.59-.15.14-.33.21-.54.21-.24,0-.43-.09-.59-.27-.14-.15-.21-.33-.21-.54,0-.24.09-.44.27-.59.15-.14.33-.21.54-.21Z" style="fill:#000; stroke-width:0px;"/><path d="M17.35,45.22c.62.72,1.23,1.59,1.84,2.62l-.84.53c-.43-.87-.92-1.67-1.47-2.4-.69.96-1.64,1.76-2.86,2.38l-.51-.69c1.08-.5,1.95-1.22,2.62-2.16.55-.77.93-1.64,1.14-2.61h-3.25v-.76h4.12l.22.3c-.24,1.07-.58,2-1.02,2.79Z" style="fill:#000; stroke-width:0px;"/><path d="M19.94,43.61h4.74c-.07,1.6-.45,2.78-1.14,3.52-.55.59-1.4,1.02-2.56,1.31l-.41-.67c1.11-.28,1.92-.71,2.42-1.31.44-.53.68-1.23.74-2.1h-3.79v-.75ZM20.43,41.95h3.82v.74h-3.82v-.74Z" style="fill:#000; stroke-width:0px;"/><path d="M28.01,44.42c-.63.46-1.31.89-2.05,1.3l-.5-.7c.96-.48,1.82-1.04,2.57-1.66.7-.59,1.25-1.19,1.64-1.81l.82.5c-.52.62-1.04,1.17-1.58,1.64v4.7h-.9v-3.97Z" style="fill:#000; stroke-width:0px;"/><path d="M33.19,43.98c1.13.3,2.16.72,3.07,1.24l-.45.85c-.74-.51-1.61-.92-2.62-1.23v3.54h-.89v-6.74h.89v2.34ZM34.48,41.47l.53-.14c.21.36.41.8.59,1.33l-.54.18c-.15-.5-.34-.96-.57-1.36ZM35.46,41.23l.52-.15c.22.4.41.83.57,1.27l-.54.18c-.16-.51-.35-.94-.55-1.3Z" style="fill:#000; stroke-width:0px;"/><path id="_パス_1506" d="M43.35,31H6.65c-.91,0-1.65-.69-1.65-1.54V4.54c0-.85.74-1.54,1.65-1.54h36.69c.91,0,1.65.69,1.65,1.54h0v24.92c0,.85-.74,1.54-1.65,1.54" style="fill:gray; stroke:gray; stroke-miterlimit:10;"/><path d="M17.01,18.81h1.91c0,.67.73,1.39,1.86,1.39,1.03,0,1.57-.48,1.57-1.13s-.3-.92-1.22-1.22l-1.74-.56c-1.45-.47-2.05-1.33-2.05-2.51,0-1.43,1.4-2.39,3.37-2.39s3.33,1.01,3.33,2.48h-1.89c0-.61-.73-1.09-1.54-1.09s-1.39.34-1.39.92.34.89,1.18,1.16l1.54.5c1.69.55,2.31,1.18,2.31,2.46,0,1.81-1.46,2.78-3.61,2.78-2.29,0-3.62-1.2-3.62-2.81Z" style="fill:#fff; stroke-width:0px;"/><path d="M25.14,18.81h1.91c0,.67.73,1.39,1.86,1.39,1.03,0,1.57-.48,1.57-1.13s-.3-.92-1.22-1.22l-1.74-.56c-1.45-.47-2.05-1.33-2.05-2.51,0-1.43,1.4-2.39,3.37-2.39s3.33,1.01,3.33,2.48h-1.89c0-.61-.73-1.09-1.54-1.09s-1.39.34-1.39.92.34.89,1.18,1.16l1.54.5c1.69.55,2.31,1.18,2.31,2.46,0,1.81-1.46,2.78-3.61,2.78-2.29,0-3.62-1.2-3.62-2.81Z" style="fill:#fff; stroke-width:0px;"/><path d="M40.25,20.75l-.75-.75,3-3-3-3,.75-.75,3.75,3.75-3.75,3.75Z" style="fill:#fff; stroke:#fff; stroke-miterlimit:10; stroke-width:.5px;"/><path d="M9.75,20.75l.75-.75-3-3,3-3-.75-.75-3.75,3.75,3.75,3.75Z" style="fill:#fff; stroke:#fff; stroke-miterlimit:10; stroke-width:.5px;"/><rect x="13" y="8" width="24" height="18" style="fill:none; stroke:#fff; stroke-miterlimit:10; stroke-width:.5px;"/></g></svg>