<?xml version="1.0" encoding="UTF-8"?><svg id="b" xmlns="http://www.w3.org/2000/svg" width="50" height="50" viewBox="0 0 50 50"><g id="c"><rect width="50" height="50" rx="5" ry="5" style="fill:#fff; stroke-width:0px;"/><g id="d"><path id="e" d="M12.75,20.76c0,6.76,5.48,12.25,12.25,12.25s12.25-5.48,12.25-12.25-5.48-12.25-12.25-12.25h0c-6.76,0-12.25,5.48-12.25,12.25" style="fill:gray; stroke-width:0px;"/><path id="f" d="M20.18,6.75h9.63c.24,0,.43-.18.44-.41,0,0,0-.01,0-.02v-.9c0-.24-.19-.43-.43-.43,0,0,0,0,0,0h-9.64c-.24,0-.43.19-.43.43h0v.9c0,.24.19.43.43.43h0" style="fill:gray; stroke-width:0px;"/><rect id="g" x="23.25" y="5.03" width="3.5" height="4.36" style="fill:gray; stroke-width:0px;"/><path id="h" d="M32.2,11.79l.65-1.14c.12-.2.06-.46-.14-.59,0,0,0,0-.01,0l-2.28-1.32c-.2-.12-.46-.06-.59.14,0,0,0,0,0,.01l-.65,1.14" style="fill:gray; stroke-width:0px;"/><path id="i" d="M20.83,10.04l-.66-1.14c-.12-.2-.38-.28-.58-.16,0,0,0,0-.01,0l-2.28,1.32c-.2.12-.28.38-.16.58,0,0,0,0,0,.01l.65,1.14" style="fill:gray; stroke-width:0px;"/><path id="j" d="M14.5,20.76c0,5.8,4.7,10.5,10.5,10.5s10.5-4.7,10.5-10.5c0-5.8-4.7-10.5-10.5-10.5s-10.5,4.7-10.5,10.5h0" style="fill:#fff; stroke-width:0px;"/><path id="k" d="M23.6,20.76c0,.77.63,1.4,1.4,1.4s1.4-.63,1.4-1.4-.63-1.4-1.4-1.4-1.4.63-1.4,1.4" style="fill:gray; stroke-width:0px;"/><path id="l" d="M29.64,15.51l-4.94,4.93.62.62,4.94-4.93c.17-.16.17-.43,0-.6,0,0,0,0,0,0h-.02c-.16-.17-.43-.17-.6,0,0,0,0,0,0,0" style="fill:gray; stroke-width:0px;"/></g><path d="M16.91,42.77c-.38-.34-.88-.66-1.5-.96l.48-.62c.57.28,1.06.57,1.45.86.27-.57.48-1.24.62-2.02h-2.08c-.4.91-.94,1.69-1.62,2.33l-.7-.47c.47-.42.87-.94,1.21-1.55.32-.57.54-1.17.67-1.8l.9.22c-.08.25-.13.43-.18.55h2.51l.24.29c-.29,1.73-.79,3.04-1.51,3.94-.61.77-1.51,1.4-2.68,1.9l-.58-.66c1.23-.45,2.15-1.11,2.76-1.98Z" style="fill:#000; stroke-width:0px;"/><path d="M22.3,41.42c-.63.46-1.31.89-2.05,1.3l-.5-.7c.96-.48,1.82-1.04,2.57-1.66.7-.59,1.25-1.19,1.64-1.81l.82.5c-.52.62-1.04,1.17-1.58,1.64v4.7h-.9v-3.97Z" style="fill:#000; stroke-width:0px;"/><path d="M28.89,43.56c.28.37.58.81.9,1.34l-.79.5c-.75-1.38-1.65-2.57-2.69-3.54l.68-.47c.48.47.94.97,1.37,1.5.67-.97,1.16-1.92,1.46-2.83h-4.1v-.75h4.98l.28.37c-.58,1.47-1.28,2.76-2.1,3.89Z" style="fill:#000; stroke-width:0px;"/><path d="M31.83,41.54h4.53v.87h-4.53v-.87Z" style="fill:#000; stroke-width:0px;"/></g></svg>