<?xml version="1.0" encoding="UTF-8"?><svg id="b" xmlns="http://www.w3.org/2000/svg" width="50" height="50" viewBox="0 0 50 50"><g id="c"><rect width="50" height="50" rx="5" ry="5" style="fill:#fff; stroke-width:0px;"/><g id="d"><path id="e" d="M12.75,20.76c0,6.76,5.48,12.25,12.25,12.25s12.25-5.48,12.25-12.25-5.48-12.25-12.25-12.25h0c-6.76,0-12.25,5.48-12.25,12.25" style="fill:gray; stroke-width:0px;"/><path id="f" d="M20.18,6.75h9.63c.24,0,.43-.18.44-.41,0,0,0-.01,0-.02v-.9c0-.24-.19-.43-.43-.43,0,0,0,0,0,0h-9.64c-.24,0-.43.19-.43.43h0v.9c0,.24.19.43.43.43h0" style="fill:gray; stroke-width:0px;"/><rect id="g" x="23.25" y="5.03" width="3.5" height="4.36" style="fill:gray; stroke-width:0px;"/><path id="h" d="M32.2,11.79l.65-1.14c.12-.2.06-.46-.14-.59,0,0,0,0-.01,0l-2.28-1.32c-.2-.12-.46-.06-.59.14,0,0,0,0,0,.01l-.65,1.14" style="fill:gray; stroke-width:0px;"/><path id="i" d="M20.83,10.04l-.66-1.14c-.12-.2-.38-.28-.58-.16,0,0,0,0-.01,0l-2.28,1.32c-.2.12-.28.38-.16.58,0,0,0,0,0,.01l.65,1.14" style="fill:gray; stroke-width:0px;"/><path id="j" d="M14.5,20.76c0,5.8,4.7,10.5,10.5,10.5s10.5-4.7,10.5-10.5c0-5.8-4.7-10.5-10.5-10.5s-10.5,4.7-10.5,10.5h0" style="fill:#fff; stroke-width:0px;"/><path id="k" d="M23.6,20.76c0,.77.63,1.4,1.4,1.4s1.4-.63,1.4-1.4-.63-1.4-1.4-1.4-1.4.63-1.4,1.4" style="fill:gray; stroke-width:0px;"/><path id="l" d="M29.64,15.51l-4.94,4.93.62.62,4.94-4.93c.17-.16.17-.43,0-.6,0,0,0,0,0,0h-.02c-.16-.17-.43-.17-.6,0,0,0,0,0,0,0" style="fill:gray; stroke-width:0px;"/></g><path d="M22.74,39.44l-1.54,5.6h-1.05l-1.07-3.92c-.04-.17-.07-.35-.08-.55h-.02c-.01.19-.04.37-.09.54l-1.07,3.93h-1.07l-1.57-5.6h1.02l1.02,4.1c.04.17.07.35.08.54h.02c.01-.13.05-.31.11-.54l1.15-4.1h.96l1.06,4.13c.04.14.06.31.08.5h.02c0-.13.04-.3.09-.52l1-4.12h.96Z" style="fill:#000; stroke-width:0px;"/><path d="M24.45,43.01v2.03h-.93v-5.6h1.7c.64,0,1.14.15,1.5.45.35.3.53.72.53,1.27s-.18.99-.55,1.34c-.37.35-.87.52-1.5.52h-.75ZM24.45,40.2v2.05h.6c.4,0,.7-.09.91-.28.21-.18.31-.45.31-.78,0-.66-.38-.99-1.15-.99h-.68Z" style="fill:#000; stroke-width:0px;"/><path d="M34.21,45.04h-.92v-3.62c0-.3.02-.66.05-1.09h-.02c-.06.25-.11.42-.15.53l-1.67,4.19h-.64l-1.68-4.16c-.05-.12-.1-.31-.15-.56h-.02c.02.22.03.59.03,1.1v3.62h-.86v-5.6h1.31l1.47,3.73c.11.29.18.5.22.64h.02c.1-.29.17-.51.23-.66l1.5-3.71h1.26v5.6Z" style="fill:#000; stroke-width:0px;"/></g></svg>