<?xml version="1.0" encoding="UTF-8"?><svg id="b" xmlns="http://www.w3.org/2000/svg" width="50" height="50" viewBox="0 0 50 50"><g id="c"><rect width="50" height="50" rx="5" ry="5" style="fill:#fff; stroke-width:0px;"/><g id="d"><path id="e" d="M12.75,20.76c0,6.76,5.48,12.25,12.25,12.25s12.25-5.48,12.25-12.25-5.48-12.25-12.25-12.25h0c-6.76,0-12.25,5.48-12.25,12.25" style="fill:gray; stroke-width:0px;"/><path id="f" d="M20.18,6.75h9.63c.24,0,.43-.18.44-.41,0,0,0-.01,0-.02v-.9c0-.24-.19-.43-.43-.43,0,0,0,0,0,0h-9.64c-.24,0-.43.19-.43.43h0v.9c0,.24.19.43.43.43h0" style="fill:gray; stroke-width:0px;"/><rect id="g" x="23.25" y="5.03" width="3.5" height="4.36" style="fill:gray; stroke-width:0px;"/><path id="h" d="M32.2,11.79l.65-1.14c.12-.2.06-.46-.14-.59,0,0,0,0-.01,0l-2.28-1.32c-.2-.12-.46-.06-.59.14,0,0,0,0,0,.01l-.65,1.14" style="fill:gray; stroke-width:0px;"/><path id="i" d="M20.83,10.04l-.66-1.14c-.12-.2-.38-.28-.58-.16,0,0,0,0-.01,0l-2.28,1.32c-.2.12-.28.38-.16.58,0,0,0,0,0,.01l.65,1.14" style="fill:gray; stroke-width:0px;"/><path id="j" d="M14.5,20.76c0,5.8,4.7,10.5,10.5,10.5s10.5-4.7,10.5-10.5c0-5.8-4.7-10.5-10.5-10.5s-10.5,4.7-10.5,10.5h0" style="fill:#fff; stroke-width:0px;"/><path id="k" d="M23.6,20.76c0,.77.63,1.4,1.4,1.4s1.4-.63,1.4-1.4-.63-1.4-1.4-1.4-1.4.63-1.4,1.4" style="fill:gray; stroke-width:0px;"/><path id="l" d="M29.64,15.51l-4.94,4.93.62.62,4.94-4.93c.17-.16.17-.43,0-.6,0,0,0,0,0,0h-.02c-.16-.17-.43-.17-.6,0,0,0,0,0,0,0" style="fill:gray; stroke-width:0px;"/></g><path d="M10.44,42.77c-.38-.34-.88-.66-1.5-.96l.48-.62c.57.28,1.06.57,1.45.86.27-.57.48-1.24.62-2.02h-2.08c-.4.91-.94,1.69-1.62,2.33l-.7-.47c.47-.42.87-.94,1.21-1.55.32-.57.54-1.17.67-1.8l.9.22c-.08.25-.13.43-.18.55h2.51l.24.29c-.29,1.73-.79,3.04-1.51,3.94-.61.77-1.51,1.4-2.68,1.9l-.58-.66c1.23-.45,2.15-1.11,2.76-1.98Z" style="stroke-width:0px;"/><path d="M15.83,41.42c-.63.46-1.31.89-2.05,1.3l-.5-.7c.96-.48,1.82-1.04,2.57-1.66.7-.59,1.25-1.19,1.64-1.81l.82.5c-.52.62-1.04,1.17-1.58,1.64v4.7h-.9v-3.97Z" style="stroke-width:0px;"/><path d="M22.43,43.56c.28.37.58.81.9,1.34l-.79.5c-.75-1.38-1.65-2.57-2.69-3.54l.68-.47c.48.47.94.97,1.37,1.5.67-.97,1.16-1.92,1.46-2.83h-4.1v-.75h4.98l.28.37c-.58,1.47-1.28,2.76-2.1,3.89Z" style="stroke-width:0px;"/><path d="M25.37,41.54h4.53v.87h-4.53v-.87Z" style="stroke-width:0px;"/><path d="M33.09,39.86c.39-.03.74-.06,1.05-.11l.02.7c-.51.05-.93.09-1.25.11-.35,1.24-.82,2.47-1.42,3.69l-.78-.35c.61-1.11,1.07-2.21,1.38-3.3-.4.01-.69.02-.86.02h-.38s-.02-.7-.02-.7c.12,0,.3,0,.54,0,.19,0,.49,0,.89-.02.08-.36.16-.8.23-1.32l.86.11c-.06.3-.15.69-.26,1.16ZM34.56,43.11c-.04-.4-.07-1.05-.07-1.94h.78c0,.9.03,1.6.08,2.1.56.24,1.07.56,1.53.97l-.45.75c-.39-.43-.75-.73-1.08-.91v.2c0,.38-.15.68-.44.88-.27.18-.63.27-1.08.27-.52,0-.91-.11-1.16-.34-.22-.2-.32-.47-.32-.82,0-.41.18-.72.54-.95.29-.18.65-.27,1.08-.27.23,0,.43.02.6.05ZM34.59,43.84c-.17-.07-.37-.11-.59-.11-.62,0-.94.18-.94.54,0,.33.26.5.79.5s.75-.21.75-.64c0,0,0-.03,0-.05v-.24ZM34.59,40.25l.37-.65c.8.27,1.46.57,1.98.91l-.41.71c-.53-.4-1.17-.73-1.93-.98Z" style="stroke-width:0px;"/><path d="M40.1,41.04c.1-.05.71-.37,1.84-.95l.44.73c-1.18.46-2.08.92-2.71,1.36-.32.22-.56.47-.72.75-.13.23-.2.45-.2.67,0,.33.13.58.4.73.25.14.64.21,1.16.21.72,0,1.4-.04,2.06-.11v.83c-.65.03-1.29.05-1.91.05-.93,0-1.59-.15-1.98-.44-.36-.27-.54-.7-.54-1.3,0-.77.48-1.46,1.43-2.09-.21-.74-.41-1.68-.6-2.81l.85-.07c.13.94.29,1.75.48,2.43ZM41.04,38.47l.54-.15c.21.36.4.8.58,1.33l-.55.18c-.15-.5-.34-.96-.57-1.36ZM42.04,38.23l.53-.16c.22.4.41.83.57,1.27l-.54.19c-.17-.51-.35-.94-.55-1.3Z" style="stroke-width:0px;"/></g></svg>