<svg xmlns="http://www.w3.org/2000/svg" xmlns:xlink="http://www.w3.org/1999/xlink" width="1000" zoomAndPan="magnify" viewBox="0 0 750 749.999995" height="1000" preserveAspectRatio="xMidYMid meet" version="1.0"><defs><g/><clipPath id="6924590cd8"><path d="M 27.90625 542.253906 L 722.09375 542.253906 L 722.09375 725.527344 L 27.90625 725.527344 Z M 27.90625 542.253906 " clip-rule="nonzero"/></clipPath><clipPath id="58533d23b9"><path d="M 0.90625 0.253906 L 695.09375 0.253906 L 695.09375 183.527344 L 0.90625 183.527344 Z M 0.90625 0.253906 " clip-rule="nonzero"/></clipPath><clipPath id="5d1853c700"><rect x="0" width="696" y="0" height="184"/></clipPath></defs><path fill="#ffffff" d="M 75 0 L 675 0 C 676.226562 0 677.453125 0.03125 678.679688 0.0898438 C 679.90625 0.152344 681.128906 0.242188 682.351562 0.359375 C 683.574219 0.480469 684.789062 0.632812 686.003906 0.8125 C 687.21875 0.992188 688.429688 1.203125 689.632812 1.441406 C 690.835938 1.679688 692.03125 1.949219 693.222656 2.246094 C 694.414062 2.546875 695.597656 2.875 696.769531 3.230469 C 697.945312 3.585938 699.109375 3.972656 700.265625 4.382812 C 701.421875 4.796875 702.566406 5.238281 703.699219 5.710938 C 704.835938 6.179688 705.957031 6.675781 707.066406 7.199219 C 708.175781 7.726562 709.273438 8.277344 710.355469 8.855469 C 711.4375 9.433594 712.503906 10.039062 713.558594 10.671875 C 714.609375 11.300781 715.648438 11.957031 716.667969 12.640625 C 717.6875 13.320312 718.691406 14.027344 719.675781 14.757812 C 720.664062 15.492188 721.628906 16.246094 722.578125 17.023438 C 723.527344 17.804688 724.457031 18.605469 725.367188 19.429688 C 726.277344 20.253906 727.164062 21.097656 728.03125 21.96875 C 728.902344 22.835938 729.746094 23.722656 730.570312 24.632812 C 731.394531 25.542969 732.195312 26.472656 732.976562 27.421875 C 733.753906 28.371094 734.507812 29.335938 735.242188 30.324219 C 735.972656 31.308594 736.679688 32.3125 737.359375 33.332031 C 738.042969 34.351562 738.699219 35.390625 739.328125 36.441406 C 739.960938 37.496094 740.566406 38.5625 741.144531 39.644531 C 741.722656 40.726562 742.273438 41.824219 742.800781 42.933594 C 743.324219 44.042969 743.820312 45.164062 744.289062 46.296875 C 744.761719 47.433594 745.203125 48.578125 745.617188 49.734375 C 746.027344 50.890625 746.414062 52.054688 746.769531 53.230469 C 747.125 54.402344 747.453125 55.585938 747.753906 56.777344 C 748.050781 57.96875 748.320312 59.164062 748.558594 60.367188 C 748.796875 61.570312 749.007812 62.78125 749.1875 63.996094 C 749.367188 65.210938 749.519531 66.425781 749.640625 67.648438 C 749.757812 68.871094 749.847656 70.09375 749.910156 71.320312 C 749.96875 72.546875 750 73.773438 750 75 L 750 675 C 750 676.226562 749.96875 677.453125 749.910156 678.679688 C 749.847656 679.90625 749.757812 681.128906 749.640625 682.351562 C 749.519531 683.574219 749.367188 684.789062 749.1875 686.003906 C 749.007812 687.21875 748.796875 688.429688 748.558594 689.632812 C 748.320312 690.835938 748.050781 692.03125 747.753906 693.222656 C 747.453125 694.414062 747.125 695.597656 746.769531 696.769531 C 746.414062 697.945312 746.027344 699.109375 745.617188 700.265625 C 745.203125 701.421875 744.761719 702.566406 744.289062 703.699219 C 743.820312 704.835938 743.324219 705.957031 742.800781 707.066406 C 742.273438 708.175781 741.722656 709.273438 741.144531 710.355469 C 740.566406 711.4375 739.960938 712.503906 739.328125 713.558594 C 738.699219 714.609375 738.042969 715.648438 737.359375 716.667969 C 736.679688 717.6875 735.972656 718.691406 735.242188 719.675781 C 734.507812 720.664062 733.753906 721.628906 732.976562 722.578125 C 732.195312 723.527344 731.394531 724.457031 730.570312 725.367188 C 729.746094 726.277344 728.902344 727.164062 728.03125 728.03125 C 727.164062 728.902344 726.277344 729.746094 725.367188 730.570312 C 724.457031 731.394531 723.527344 732.195312 722.578125 732.976562 C 721.628906 733.753906 720.664062 734.507812 719.675781 735.242188 C 718.691406 735.972656 717.6875 736.679688 716.667969 737.359375 C 715.648438 738.042969 714.609375 738.699219 713.558594 739.328125 C 712.503906 739.960938 711.4375 740.566406 710.355469 741.144531 C 709.273438 741.722656 708.175781 742.273438 707.066406 742.800781 C 705.957031 743.324219 704.835938 743.820312 703.699219 744.289062 C 702.566406 744.761719 701.421875 745.203125 700.265625 745.617188 C 699.109375 746.027344 697.945312 746.414062 696.769531 746.769531 C 695.597656 747.125 694.414062 747.453125 693.222656 747.753906 C 692.03125 748.050781 690.835938 748.320312 689.632812 748.558594 C 688.429688 748.796875 687.21875 749.007812 686.003906 749.1875 C 684.789062 749.367188 683.574219 749.519531 682.351562 749.640625 C 681.128906 749.757812 679.90625 749.847656 678.679688 749.910156 C 677.453125 749.96875 676.226562 750 675 750 L 75 750 C 73.773438 750 72.546875 749.96875 71.320312 749.910156 C 70.09375 749.847656 68.871094 749.757812 67.648438 749.640625 C 66.425781 749.519531 65.210938 749.367188 63.996094 749.1875 C 62.78125 749.007812 61.570312 748.796875 60.367188 748.558594 C 59.164062 748.320312 57.96875 748.050781 56.777344 747.753906 C 55.585938 747.453125 54.402344 747.125 53.230469 746.769531 C 52.054688 746.414062 50.890625 746.027344 49.734375 745.617188 C 48.578125 745.203125 47.433594 744.761719 46.296875 744.289062 C 45.164062 743.820312 44.042969 743.324219 42.933594 742.800781 C 41.824219 742.273438 40.726562 741.722656 39.644531 741.144531 C 38.5625 740.566406 37.496094 739.960938 36.441406 739.328125 C 35.390625 738.699219 34.351562 738.042969 33.332031 737.359375 C 32.3125 736.679688 31.308594 735.972656 30.324219 735.242188 C 29.335938 734.507812 28.371094 733.753906 27.421875 732.976562 C 26.472656 732.195312 25.542969 731.394531 24.632812 730.570312 C 23.722656 729.746094 22.835938 728.902344 21.96875 728.03125 C 21.097656 727.164062 20.253906 726.277344 19.429688 725.367188 C 18.605469 724.457031 17.804688 723.527344 17.023438 722.578125 C 16.246094 721.628906 15.492188 720.664062 14.757812 719.675781 C 14.027344 718.691406 13.320312 717.6875 12.640625 716.667969 C 11.957031 715.648438 11.300781 714.609375 10.671875 713.558594 C 10.039062 712.503906 9.433594 711.4375 8.855469 710.355469 C 8.277344 709.273438 7.726562 708.175781 7.199219 707.066406 C 6.675781 705.957031 6.179688 704.835938 5.710938 703.699219 C 5.238281 702.566406 4.796875 701.421875 4.382812 700.265625 C 3.96875 699.109375 3.585938 697.945312 3.230469 696.769531 C 2.875 695.597656 2.546875 694.414062 2.246094 693.222656 C 1.949219 692.03125 1.679688 690.835938 1.441406 689.632812 C 1.203125 688.429688 0.992188 687.21875 0.8125 686.003906 C 0.632812 684.789062 0.480469 683.574219 0.359375 682.351562 C 0.242188 681.128906 0.152344 679.90625 0.0898438 678.679688 C 0.03125 677.453125 0 676.226562 0 675 L 0 75 C 0 73.773438 0.03125 72.546875 0.0898438 71.320312 C 0.152344 70.09375 0.242188 68.871094 0.359375 67.648438 C 0.480469 66.425781 0.632812 65.210938 0.8125 63.996094 C 0.992188 62.78125 1.203125 61.570312 1.441406 60.367188 C 1.679688 59.164062 1.949219 57.96875 2.246094 56.777344 C 2.546875 55.585938 2.875 54.402344 3.230469 53.230469 C 3.585938 52.054688 3.96875 50.890625 4.382812 49.734375 C 4.796875 48.578125 5.238281 47.433594 5.710938 46.296875 C 6.179688 45.164062 6.675781 44.042969 7.199219 42.933594 C 7.726562 41.824219 8.277344 40.726562 8.855469 39.644531 C 9.433594 38.5625 10.039062 37.496094 10.671875 36.441406 C 11.300781 35.390625 11.957031 34.351562 12.640625 33.332031 C 13.320312 32.3125 14.027344 31.308594 14.757812 30.324219 C 15.492188 29.335938 16.246094 28.371094 17.023438 27.421875 C 17.804688 26.472656 18.605469 25.542969 19.429688 24.632812 C 20.253906 23.722656 21.097656 22.835938 21.96875 21.96875 C 22.835938 21.097656 23.722656 20.253906 24.632812 19.429688 C 25.542969 18.605469 26.472656 17.804688 27.421875 17.023438 C 28.371094 16.246094 29.335938 15.492188 30.324219 14.757812 C 31.308594 14.027344 32.3125 13.320312 33.332031 12.640625 C 34.351562 11.957031 35.390625 11.300781 36.441406 10.671875 C 37.496094 10.039062 38.5625 9.433594 39.644531 8.855469 C 40.726562 8.277344 41.824219 7.726562 42.933594 7.199219 C 44.042969 6.675781 45.164062 6.179688 46.296875 5.710938 C 47.433594 5.238281 48.578125 4.796875 49.734375 4.382812 C 50.890625 3.972656 52.054688 3.585938 53.230469 3.230469 C 54.402344 2.875 55.585938 2.546875 56.777344 2.246094 C 57.96875 1.949219 59.164062 1.679688 60.367188 1.441406 C 61.570312 1.203125 62.78125 0.992188 63.996094 0.8125 C 65.210938 0.632812 66.425781 0.480469 67.648438 0.359375 C 68.871094 0.242188 70.09375 0.152344 71.320312 0.0898438 C 72.546875 0.03125 73.773438 0 75 0 Z M 75 0 " fill-opacity="1" fill-rule="nonzero"/><path fill="#000000" d="M 136.351562 597 L 136.351562 630.898438 L 122.851562 630.898438 L 122.851562 585.601562 L 193.949219 585.601562 C 193.949219 601.050781 193.351562 613.5 192 622.949219 C 190.949219 631.050781 189.300781 638.25 186.898438 644.550781 C 180.449219 662.25 166.800781 674.699219 146.25 681.898438 L 137.25 672 C 148.800781 668.25 157.5 663.300781 163.648438 657.300781 C 167.851562 652.949219 171.300781 647.550781 173.699219 640.949219 C 177.601562 630.898438 179.550781 616.199219 179.550781 597 Z M 136.351562 597 " fill-opacity="1" fill-rule="nonzero"/><path fill="#000000" d="M 209.851562 623.101562 L 277.800781 623.101562 L 277.800781 636.148438 L 209.851562 636.148438 Z M 209.851562 623.101562 " fill-opacity="1" fill-rule="nonzero"/><path fill="#000000" d="M 322.199219 602.101562 C 316.050781 614.851562 308.25 626.101562 298.800781 635.699219 L 288.75 628.199219 C 303 614.101562 312.300781 597.601562 316.648438 578.699219 L 330.449219 580.800781 C 328.648438 586.199219 327.300781 589.5 326.851562 590.851562 L 363.75 590.851562 L 366.898438 595.199219 C 362.699219 621.449219 354.601562 641.550781 342.601562 655.5 C 333.449219 666.300781 320.398438 675.148438 303.601562 682.050781 L 295.800781 672.300781 C 312.898438 665.699219 325.949219 656.398438 335.101562 644.25 C 343.5 633.148438 349.050781 619.050781 351.898438 601.949219 L 322.199219 601.949219 Z M 322.199219 602.101562 " fill-opacity="1" fill-rule="nonzero"/><path fill="#000000" d="M 381.601562 620.398438 L 387.300781 610.5 C 400.800781 615 410.851562 619.351562 417.449219 623.25 L 411.148438 634.199219 C 404.25 629.699219 394.5 625.050781 381.601562 620.398438 Z M 455.550781 598.648438 L 467.550781 605.550781 C 465.300781 615.601562 462.148438 625.050781 457.800781 633.898438 C 453.75 642 449.25 648.601562 444.449219 653.550781 C 431.699219 666.601562 414.75 675.148438 393.601562 679.648438 L 387.75 667.5 C 408.148438 663.898438 423.75 656.550781 434.398438 645.449219 C 439.648438 639.898438 444.148438 632.851562 448.050781 624.300781 C 451.5 616.351562 454.199219 607.949219 455.851562 598.648438 Z M 391.800781 594.898438 L 398.25 585 C 410.101562 589.199219 419.699219 593.699219 427.351562 598.5 L 420.601562 609.601562 C 413.398438 604.199219 403.949219 599.25 391.949219 594.898438 Z M 391.800781 594.898438 " fill-opacity="1" fill-rule="nonzero"/><path fill="#000000" d="M 479.550781 623.101562 L 547.5 623.101562 L 547.5 636.148438 L 479.550781 636.148438 Z M 479.550781 623.101562 " fill-opacity="1" fill-rule="nonzero"/><path fill="#000000" d="M 586.199219 614.699219 C 603.148438 619.199219 618.601562 625.5 632.25 633.300781 L 625.5 646.050781 C 614.398438 638.398438 601.351562 632.25 586.199219 627.601562 L 586.199219 680.699219 L 572.851562 680.699219 L 572.851562 579.601562 L 586.199219 579.601562 Z M 586.199219 614.699219 " fill-opacity="1" fill-rule="nonzero"/><path stroke-linecap="round" transform="matrix(14.999999, 0, 0, 14.999999, 0.00000265, 0.00002)" fill-opacity="1" fill="#ffffff" fill-rule="nonzero" stroke-linejoin="round" d="M 37.500002 22 L 31.740106 33 L 12.5 33 L 12.5 5.999999 L 37.500002 5.999999 Z M 37.500002 22 " stroke="#808080" stroke-width="2" stroke-opacity="1" stroke-miterlimit="4"/><path stroke-linecap="round" transform="matrix(14.999999, 0, 0, 14.999999, 0.00000265, 0.00002)" fill-opacity="1" fill="#ffffff" fill-rule="nonzero" stroke-linejoin="round" d="M 32.170053 32.429948 L 37.12995 22.520052 L 29.570053 26.429948 Z M 32.170053 32.429948 " stroke="#808080" stroke-width="2" stroke-opacity="1" stroke-miterlimit="4"/><path stroke-linecap="round" transform="matrix(14.999999, 0, 0, 14.999999, 0.00000265, 0.00002)" fill="none" stroke-linejoin="round" d="M 17.500001 11.999999 L 32.500001 11.999999 " stroke="#b3b3b3" stroke-width="2" stroke-opacity="1" stroke-miterlimit="4"/><path stroke-linecap="round" transform="matrix(14.999999, 0, 0, 14.999999, 0.00000265, 0.00002)" fill="none" stroke-linejoin="round" d="M 17.500001 16.999999 L 32.500001 16.999999 " stroke="#b3b3b3" stroke-width="2" stroke-opacity="1" stroke-miterlimit="4"/><path stroke-linecap="round" transform="matrix(14.999999, 0, 0, 14.999999, 0.00000265, 0.00002)" fill="none" stroke-linejoin="round" d="M 17.500001 22 L 32.500001 22 " stroke="#b3b3b3" stroke-width="2" stroke-opacity="1" stroke-miterlimit="4"/><path stroke-linecap="round" transform="matrix(14.999999, 0, 0, 14.999999, 0.00000265, 0.00002)" fill="none" stroke-linejoin="round" d="M 17.500001 27 L 27.500001 27 " stroke="#b3b3b3" stroke-width="2" stroke-opacity="1" stroke-miterlimit="4"/><g clip-path="url(#6924590cd8)"><g transform="matrix(1, 0, 0, 1, 27, 542)"><g clip-path="url(#5d1853c700)"><g clip-path="url(#58533d23b9)"><path fill="#ffffff" d="M 0.90625 0.253906 L 695.347656 0.253906 L 695.347656 183.527344 L 0.90625 183.527344 Z M 0.90625 0.253906 " fill-opacity="1" fill-rule="nonzero"/></g></g></g></g><g fill="#000000" fill-opacity="1"><g transform="translate(141.003043, 684.142595)"><g><path d="M 63.828125 -13.90625 L 63.828125 9.234375 L 52.90625 9.234375 L 52.90625 -13.90625 L 7.671875 -13.90625 L 7.671875 -25.09375 L 52.90625 -25.09375 L 52.90625 -35.75 L 18.0625 -35.75 L 18.0625 -88.140625 L 28.46875 -88.140625 C 27.425781 -90.566406 25.863281 -93.273438 23.78125 -96.265625 C 21.707031 -99.253906 19.757812 -101.960938 17.9375 -104.390625 L 27.6875 -108.9375 C 29.070312 -107.289062 30.5 -105.40625 31.96875 -103.28125 C 33.445312 -101.15625 34.859375 -99.050781 36.203125 -96.96875 C 37.546875 -94.894531 38.566406 -93.035156 39.265625 -91.390625 L 32.5 -88.140625 L 55.375 -88.140625 C 54.507812 -90.648438 53.207031 -93.617188 51.46875 -97.046875 C 49.738281 -100.472656 48.007812 -103.523438 46.28125 -106.203125 L 56.296875 -110.375 C 58.109375 -107.425781 59.96875 -104.128906 61.875 -100.484375 C 63.78125 -96.847656 65.171875 -93.773438 66.046875 -91.265625 L 58.375 -88.140625 L 77.34375 -88.140625 C 79.34375 -91.085938 81.425781 -94.640625 83.59375 -98.796875 C 85.757812 -102.960938 87.445312 -106.691406 88.65625 -109.984375 L 100.75 -105.8125 C 99.363281 -103.21875 97.800781 -100.617188 96.0625 -98.015625 L 95.421875 -96.984375 C 94.460938 -95.421875 93.484375 -93.878906 92.484375 -92.359375 C 91.492188 -90.847656 90.519531 -89.441406 89.5625 -88.140625 L 100.484375 -88.140625 L 100.484375 -35.75 L 63.828125 -35.75 L 63.828125 -25.09375 L 109.84375 -25.09375 L 109.84375 -13.90625 Z M 63.828125 -66.953125 L 89.1875 -66.953125 L 89.1875 -78.125 L 63.828125 -78.125 Z M 28.734375 -66.953125 L 52.90625 -66.953125 L 52.90625 -78.125 L 28.734375 -78.125 Z M 63.828125 -45.765625 L 89.1875 -45.765625 L 89.1875 -57.453125 L 63.828125 -57.453125 Z M 28.734375 -45.765625 L 52.90625 -45.765625 L 52.90625 -57.453125 L 28.734375 -57.453125 Z M 28.734375 -45.765625 "/></g></g></g><g fill="#000000" fill-opacity="1"><g transform="translate(257.999547, 684.142595)"><g><path d="M 111.796875 -58.234375 L 111.796875 -47.578125 L 47.703125 -47.578125 L 47.703125 -58.234375 L 62.140625 -58.234375 C 62.398438 -59.710938 62.679688 -61.335938 62.984375 -63.109375 C 63.285156 -64.890625 63.566406 -66.734375 63.828125 -68.640625 L 64.09375 -69.9375 C 64.257812 -70.71875 64.382812 -71.5 64.46875 -72.28125 C 64.5625 -73.0625 64.648438 -73.796875 64.734375 -74.484375 L 52.90625 -74.484375 L 52.90625 -84.625 L 66.171875 -84.625 C 66.429688 -86.445312 66.691406 -88.289062 66.953125 -90.15625 C 67.210938 -92.019531 67.472656 -93.773438 67.734375 -95.421875 L 51.09375 -95.421875 L 51.09375 -105.8125 L 107.90625 -105.8125 L 107.90625 -95.421875 L 78 -95.421875 C 77.914062 -94.816406 77.847656 -94.207031 77.796875 -93.59375 C 77.753906 -92.988281 77.648438 -92.34375 77.484375 -91.65625 L 77.34375 -90.34375 L 77.21875 -89.1875 C 77.132812 -88.40625 77.023438 -87.644531 76.890625 -86.90625 C 76.765625 -86.164062 76.65625 -85.40625 76.5625 -84.625 L 101.65625 -84.625 L 101.65625 -58.234375 Z M 43.9375 -105.8125 L 43.9375 -96.453125 L 11.953125 -96.453125 L 11.953125 -105.8125 Z M 47.703125 -88.921875 L 47.703125 -79.4375 L 5.984375 -79.4375 L 5.984375 -88.921875 Z M 72.796875 -58.234375 L 91.390625 -58.234375 L 91.390625 -74.484375 L 75.140625 -74.484375 C 74.703125 -71.710938 74.3125 -68.875 73.96875 -65.96875 C 73.625 -63.070312 73.234375 -60.492188 72.796875 -58.234375 Z M 43.9375 -71.234375 L 43.9375 -62.015625 L 11.3125 -62.015625 L 11.3125 -71.234375 Z M 43.9375 -53.6875 L 43.9375 -44.328125 L 11.3125 -44.328125 L 11.3125 -53.6875 Z M 104.78125 -39 L 104.78125 4.8125 L 55.515625 4.8125 L 55.515625 -39 Z M 44.71875 -35.484375 L 44.71875 4.6875 L 11.046875 4.6875 L 11.046875 -35.484375 Z M 65.90625 -5.84375 L 93.984375 -5.84375 L 93.984375 -28.203125 L 65.90625 -28.203125 Z M 20.546875 -4.8125 L 35.09375 -4.8125 L 35.09375 -25.875 L 20.546875 -25.875 Z M 20.546875 -4.8125 "/></g></g></g><g fill="#000000" fill-opacity="1"><g transform="translate(374.99605, 684.142595)"><g><path d="M 111.15625 -59.40625 L 111.15625 -46.40625 L 6.625 -46.40625 L 6.625 -59.40625 Z M 111.15625 -59.40625 "/></g></g></g><g fill="#000000" fill-opacity="1"><g transform="translate(491.992543, 684.142595)"><g><path d="M 73.84375 -88.40625 C 72.539062 -85.71875 71.195312 -83.160156 69.8125 -80.734375 C 68.425781 -78.304688 66.992188 -76.140625 65.515625 -74.234375 L 57.203125 -80.734375 C 60.054688 -84.203125 62.757812 -88.578125 65.3125 -93.859375 C 67.875 -99.148438 69.847656 -104.523438 71.234375 -109.984375 L 80.859375 -107.515625 C 80.515625 -105.867188 80.082031 -104.195312 79.5625 -102.5 C 79.039062 -100.8125 78.476562 -99.1875 77.875 -97.625 L 110.109375 -97.625 L 110.109375 -88.40625 Z M 60.1875 -68.640625 L 60.1875 -61.484375 L 11.828125 -61.484375 L 11.828125 -105.6875 L 58.625 -105.6875 L 58.625 -98.546875 L 40.5625 -98.546875 L 40.5625 -93.734375 L 56.546875 -93.734375 L 56.546875 -74.484375 L 40.5625 -74.484375 L 40.5625 -68.640625 Z M 21.84375 -93.734375 L 31.984375 -93.734375 L 31.984375 -98.546875 L 21.84375 -98.546875 Z M 21.84375 -81.25 L 47.0625 -81.25 L 47.0625 -86.84375 L 21.84375 -86.84375 Z M 107.125 -74.75 L 107.125 -65.390625 L 69.03125 -65.390625 L 69.03125 -74.75 Z M 21.84375 -68.640625 L 31.984375 -68.640625 L 31.984375 -74.484375 L 21.84375 -74.484375 Z M 49.796875 -13.90625 C 48.660156 -9.75 46.597656 -6.109375 43.609375 -2.984375 C 40.617188 0.128906 36.394531 2.75 30.9375 4.875 C 25.476562 7 18.414062 8.535156 9.75 9.484375 L 7.796875 0 C 17.503906 -0.78125 24.765625 -2.296875 29.578125 -4.546875 C 34.390625 -6.804688 37.53125 -9.925781 39 -13.90625 L 23.140625 -13.90625 L 23.140625 -57.328125 L 94.125 -57.328125 L 94.125 -13.90625 L 75.265625 -13.90625 L 75.265625 -5.984375 C 75.265625 -4.859375 75.457031 -3.96875 75.84375 -3.3125 C 76.238281 -2.664062 77.128906 -2.210938 78.515625 -1.953125 C 79.898438 -1.691406 82.113281 -1.5625 85.15625 -1.5625 L 92.171875 -1.5625 C 94.941406 -1.5625 96.953125 -1.882812 98.203125 -2.53125 C 99.460938 -3.1875 100.3125 -4.289062 100.75 -5.84375 C 101.1875 -7.40625 101.445312 -9.53125 101.53125 -12.21875 L 110.890625 -10.796875 C 110.546875 -6.109375 109.804688 -2.398438 108.671875 0.328125 C 107.546875 3.054688 105.75 4.984375 103.28125 6.109375 C 100.8125 7.234375 97.28125 7.796875 92.6875 7.796875 L 84.625 7.796875 C 79.164062 7.796875 74.984375 7.335938 72.078125 6.421875 C 69.179688 5.515625 67.191406 4.085938 66.109375 2.140625 C 65.023438 0.191406 64.484375 -2.335938 64.484375 -5.453125 L 64.484375 -13.90625 Z M 33.546875 -45.234375 L 83.453125 -45.234375 L 83.453125 -50.703125 L 33.546875 -50.703125 Z M 33.546875 -33.15625 L 83.453125 -33.15625 L 83.453125 -38.734375 L 33.546875 -38.734375 Z M 33.546875 -20.671875 L 83.453125 -20.671875 L 83.453125 -26.65625 L 33.546875 -26.65625 Z M 33.546875 -20.671875 "/></g></g></g></svg>