<?xml version="1.0" encoding="UTF-8"?><svg id="b" xmlns="http://www.w3.org/2000/svg" width="50" height="50" viewBox="0 0 50 50"><g id="c"><rect width="50" height="50" rx="5" ry="5" style="fill:#fff; stroke-width:0px;"/><path d="M9.09,39.8v2.26h-.9v-3.02h4.74c0,1.03-.04,1.86-.13,2.49-.07.54-.18,1.02-.34,1.44-.43,1.18-1.34,2.01-2.71,2.49l-.6-.66c.77-.25,1.35-.58,1.76-.98.28-.29.51-.65.67-1.09.26-.67.39-1.65.39-2.93h-2.88Z" style="stroke-width:0px;"/><path d="M13.99,41.54h4.53v.87h-4.53v-.87Z" style="stroke-width:0px;"/><path d="M21.48,40.14c-.41.85-.93,1.6-1.56,2.24l-.67-.5c.95-.94,1.57-2.04,1.86-3.3l.92.14c-.12.36-.21.58-.24.67h2.46l.21.29c-.28,1.75-.82,3.09-1.62,4.02-.61.72-1.48,1.31-2.6,1.77l-.52-.65c1.14-.44,2.01-1.06,2.62-1.87.56-.74.93-1.68,1.12-2.82h-1.98Z" style="stroke-width:0px;"/><path d="M25.44,41.36l.38-.66c.9.3,1.57.59,2.01.85l-.42.73c-.46-.3-1.11-.61-1.97-.92ZM30.37,39.91l.8.46c-.15.67-.36,1.3-.65,1.89-.27.54-.57.98-.89,1.31-.85.87-1.98,1.44-3.39,1.74l-.39-.81c1.36-.24,2.4-.73,3.11-1.47.35-.37.65-.84.91-1.41.23-.53.41-1.09.52-1.71ZM26.12,39.66l.43-.66c.79.28,1.43.58,1.94.9l-.45.74c-.48-.36-1.11-.69-1.91-.98Z" style="stroke-width:0px;"/><path d="M31.97,41.54h4.53v.87h-4.53v-.87Z" style="stroke-width:0px;"/><path d="M39.08,40.98c1.13.3,2.16.72,3.07,1.24l-.45.85c-.74-.51-1.61-.92-2.62-1.23v3.54h-.89v-6.74h.89v2.34Z" style="stroke-width:0px;"/><polygon points="37.5 22 31.74 33 12.5 33 12.5 6 37.5 6 37.5 22" style="fill:#fff; stroke:gray; stroke-linecap:round; stroke-linejoin:round; stroke-width:2px;"/><polygon points="32.17 32.43 37.13 22.52 29.57 26.43 32.17 32.43" style="fill:#fff; stroke:gray; stroke-linecap:round; stroke-linejoin:round; stroke-width:2px;"/><line x1="17.5" y1="12" x2="32.5" y2="12" style="fill:none; stroke:#b3b3b3; stroke-linecap:round; stroke-linejoin:round; stroke-width:2px;"/><line x1="17.5" y1="17" x2="32.5" y2="17" style="fill:none; stroke:#b3b3b3; stroke-linecap:round; stroke-linejoin:round; stroke-width:2px;"/><line x1="17.5" y1="22" x2="32.5" y2="22" style="fill:none; stroke:#b3b3b3; stroke-linecap:round; stroke-linejoin:round; stroke-width:2px;"/><line x1="17.5" y1="27" x2="27.5" y2="27" style="fill:none; stroke:#b3b3b3; stroke-linecap:round; stroke-linejoin:round; stroke-width:2px;"/></g></svg>